<?xml version="1.0" encoding="UTF-8"?>
<!-- Generator: visioncortex VTracer 0.6.4 -->
<svg version="1.1" xmlns="http://www.w3.org/2000/svg" width="531" height="558">
<path d="M0 0 C1.2799 -0.0096 2.5598 -0.0192 3.8785 -0.0291 C5.2882 -0.034 6.698 -0.0382 8.1077 -0.042 C9.1781 -0.0462 9.1781 -0.0462 10.2702 -0.0506 C14.0657 -0.0656 17.8612 -0.0748 21.6567 -0.0791 C24.763 -0.0834 27.8689 -0.0972 30.9751 -0.1201 C62.3386 -0.3477 62.3386 -0.3477 76.2993 2.5137 C79.9213 3.1606 83.2535 3.2741 86.9241 3.1611 C86.9241 3.8211 86.9241 4.4811 86.9241 5.1611 C88.7494 5.223 88.7494 5.223 90.6116 5.2861 C96.1239 5.8881 100.4729 8.1396 105.4084 10.5557 C108.9903 12.1914 112.5449 13.4166 116.2991 14.5986 C129.431 18.7858 141.4447 25.4047 153.5725 31.8564 C161.7304 36.2109 161.7304 36.2109 170.1155 40.0986 C171.9241 41.1611 171.9241 41.1611 172.9241 44.1611 C175.1049 45.9599 175.1049 45.9599 177.7366 47.6611 C185.042 52.5818 185.042 52.5818 186.9241 54.1611 C186.9241 54.8211 186.9241 55.4811 186.9241 56.1611 C187.5634 56.4293 188.2028 56.6974 188.8616 56.9736 C190.9241 58.1611 190.9241 58.1611 191.9241 61.1611 C192.4887 61.2836 193.0533 61.4061 193.635 61.5322 C197.0274 62.4643 199.0881 64.8317 201.5491 67.2236 C204.7202 70.7825 204.7202 70.7825 208.9241 72.1611 C210.4749 73.7354 210.4749 73.7354 212.2366 75.8486 C214.2048 78.1972 216.182 80.4174 218.3577 82.5791 C220.9661 85.2034 223.3269 87.9269 225.6741 90.7861 C226.4527 91.7271 227.2313 92.6682 228.0334 93.6377 C229.9241 96.1611 229.9241 96.1611 230.9241 99.1611 C231.5841 99.1611 232.2441 99.1611 232.9241 99.1611 C235.9241 103.5457 235.9241 103.5457 235.9241 106.1611 C236.5841 106.1611 237.2441 106.1611 237.9241 106.1611 C237.9241 106.8211 237.9241 107.4811 237.9241 108.1611 C238.5841 108.1611 239.2441 108.1611 239.9241 108.1611 C241.2131 109.6221 241.2131 109.6221 242.5491 111.5361 C242.9951 112.1626 243.4411 112.7891 243.9006 113.4346 C244.9241 115.1611 244.9241 115.1611 244.9241 117.1611 C245.5841 117.1611 246.2441 117.1611 246.9241 117.1611 C247.3392 118.1859 247.7542 119.2107 248.1819 120.2666 C249.738 123.8959 251.6679 127.1442 253.7991 130.4736 C262.9241 145.0534 262.9241 145.0534 262.9241 149.1611 C263.5841 149.4911 264.2441 149.8211 264.9241 150.1611 C265.9739 152.3315 265.9739 152.3315 267.0959 155.2002 C267.7224 156.7857 267.7224 156.7857 268.3616 158.4033 C268.7947 159.5196 269.2278 160.636 269.6741 161.7861 C270.523 163.945 271.3719 166.1039 272.2209 168.2627 C272.6564 169.3842 273.0919 170.5057 273.5405 171.6611 C274.4795 174.0366 275.4466 176.4011 276.4385 178.7549 C280.0238 187.2796 282.639 195.7838 284.7397 204.7876 C285.2404 206.9276 285.7616 209.0618 286.2854 211.1963 C287.899 217.8911 289.2002 224.4187 289.6139 231.3118 C289.9448 234.3514 290.6414 237.1191 291.4277 240.0725 C293.1531 247.3937 293.3579 254.3799 293.3225 261.876 C293.3245 263.262 293.3275 264.648 293.3312 266.0341 C293.3356 268.9243 293.3293 271.8142 293.3152 274.7043 C293.2982 278.3382 293.3081 281.9714 293.3255 285.6052 C293.4208 309.1329 291.8077 331.7922 284.7366 354.3682 C283.9 357.244 283.1888 360.1399 282.4922 363.0525 C280.4303 371.6514 277.8258 379.5575 273.7366 387.4111 C272.07 390.6266 271.2875 393.5266 270.9241 397.1611 C270.2641 397.1611 269.6041 397.1611 268.9241 397.1611 C268.6701 397.9952 268.4162 398.8292 268.1545 399.6885 C266.7879 403.5453 265.0924 407.0845 263.2366 410.7236 C262.7048 411.7731 262.7048 411.7731 262.1624 412.8438 C261.0891 414.9528 260.0079 417.0575 258.9241 419.1611 C258.3298 420.32 257.7356 421.4789 257.1233 422.6729 C252.2501 431.9599 246.8565 441.2383 239.9241 449.1611 C239.2641 449.1611 238.6041 449.1611 237.9241 449.1611 C237.6727 449.8727 237.4213 450.5843 237.1624 451.3174 C234.1071 458.334 228.004 467.6212 220.9241 471.1611 C219.7906 473.1778 219.7906 473.1778 218.9241 475.1611 C218.2641 475.1611 217.6041 475.1611 216.9241 475.1611 C216.5838 476.0274 216.5838 476.0274 216.2366 476.9111 C214.5832 479.7455 212.4944 481.1288 209.9241 483.1611 C208.7369 484.605 207.5504 486.0496 206.3772 487.5049 C202.5167 491.905 198.6843 495.8109 192.9241 497.1611 C192.5941 497.8211 192.2641 498.4811 191.9241 499.1611 C187.3358 503.1611 187.3358 503.1611 184.9241 503.1611 C184.9241 503.8211 184.9241 504.4811 184.9241 505.1611 C183.2741 505.8211 181.6241 506.4811 179.9241 507.1611 C179.9241 507.8211 179.9241 508.4811 179.9241 509.1611 C178.2741 509.8211 176.6241 510.4811 174.9241 511.1611 C174.9241 511.8211 174.9241 512.4811 174.9241 513.1611 C173.2741 513.8211 171.6241 514.4811 169.9241 515.1611 C169.9241 515.8211 169.9241 516.4811 169.9241 517.1611 C166.9241 519.1611 166.9241 519.1611 163.8616 519.7861 C160.2781 520.7268 158.1466 522.5017 155.3616 524.9111 C150.4624 529.0184 145.5305 531.3095 139.6194 533.665 C136.4938 534.9305 133.4883 536.2949 130.459 537.7654 C121.8463 541.9414 113.02 545.2014 103.9241 548.1611 C102.4255 548.6581 102.4255 548.6581 100.8967 549.165 C93.6629 551.3639 86.454 551.8423 78.9241 552.1611 C78.9241 552.8211 78.9241 553.4811 78.9241 554.1611 C76.9253 554.6456 74.925 555.1234 72.9241 555.5986 C71.2534 555.9989 71.2534 555.9989 69.5491 556.4072 C61.0091 558.1833 52.7384 558.3215 44.0374 558.3291 C42.6899 558.3323 41.3424 558.3357 39.9949 558.3392 C37.1784 558.3451 34.3619 558.347 31.5454 558.3464 C27.9731 558.3463 24.401 558.36 20.8287 558.3772 C18.0462 558.3884 15.2638 558.3904 12.4813 558.3898 C10.5357 558.3915 8.5901 558.4023 6.6446 558.4134 C-3.6364 558.3873 -13.9067 558.2042 -23.0759 553.1611 C-25.743 552.9936 -25.743 552.9936 -28.0759 553.1611 C-28.7359 552.8311 -29.3959 552.5011 -30.0759 552.1611 C-31.0659 552.4911 -32.0559 552.8211 -33.0759 553.1611 C-35.4889 552.5348 -37.7843 551.8381 -40.1384 551.0361 C-47.0773 548.7516 -54.0539 546.7482 -61.1348 544.9497 C-65.1329 543.8882 -67.8701 542.7183 -71.0759 540.1611 C-73.8194 538.7245 -76.6348 537.4482 -79.4509 536.1611 C-93.9159 529.4811 -93.9159 529.4811 -95.0759 527.1611 C-95.7978 527.058 -96.5197 526.9549 -97.2634 526.8486 C-100.4708 526.0646 -102.0032 524.581 -104.4197 522.4111 C-106.2198 521.0525 -107.7467 520.4661 -109.8884 519.7861 C-114.2821 518.316 -117.4024 515.7904 -120.9548 512.8721 C-122.7961 511.3869 -124.6366 510.1015 -126.6384 508.8486 C-127.845 508.0133 -127.845 508.0133 -129.0759 507.1611 C-129.0759 506.5011 -129.0759 505.8411 -129.0759 505.1611 C-129.6328 505.0786 -130.1897 504.9961 -130.7634 504.9111 C-133.8127 503.9222 -135.7278 502.3136 -138.0759 500.1611 C-138.0759 499.5011 -138.0759 498.8411 -138.0759 498.1611 C-138.7359 498.1611 -139.3959 498.1611 -140.0759 498.1611 C-140.0759 497.5011 -140.0759 496.8411 -140.0759 496.1611 C-141.0969 495.8518 -141.0969 495.8518 -142.1384 495.5361 C-145.9923 493.7322 -149.1538 491.2601 -152.0759 488.1611 C-152.0759 487.5011 -152.0759 486.8411 -152.0759 486.1611 C-152.9731 485.728 -152.9731 485.728 -153.8884 485.2861 C-156.0759 484.1611 -156.0759 484.1611 -159.0759 482.1611 C-159.0759 481.5011 -159.0759 480.8411 -159.0759 480.1611 C-159.7359 480.1611 -160.3959 480.1611 -161.0759 480.1611 C-164.0759 476.6996 -164.0759 476.6996 -164.0759 474.1611 C-164.7359 474.1611 -165.3959 474.1611 -166.0759 474.1611 C-166.4059 472.8411 -166.7359 471.5211 -167.0759 470.1611 C-167.7359 470.1611 -168.3959 470.1611 -169.0759 470.1611 C-170.7073 468.2353 -172.2132 466.3179 -173.7009 464.2861 C-174.1212 463.7305 -174.5414 463.175 -174.9744 462.6025 C-178.0759 458.4235 -178.0759 458.4235 -178.0759 456.1611 C-178.7359 456.1611 -179.3959 456.1611 -180.0759 456.1611 C-187.0667 448.6193 -200.0759 433.8561 -200.0759 423.1611 C-201.0659 422.8311 -202.0559 422.5011 -203.0759 422.1611 C-203.0759 421.5011 -203.0759 420.8411 -203.0759 420.1611 C-203.7359 420.1611 -204.3959 420.1611 -205.0759 420.1611 C-205.3067 419.5553 -205.5374 418.9494 -205.7751 418.3252 C-207.5322 413.811 -209.3898 409.454 -211.6384 405.1611 C-214.1261 400.3239 -215.7017 395.4121 -217.0759 390.1611 C-217.7359 390.1611 -218.3959 390.1611 -219.0759 390.1611 C-220.2113 386.873 -221.3322 383.58 -222.4509 380.2861 C-222.768 379.3683 -223.0851 378.4505 -223.4119 377.5049 C-225.2108 372.1831 -226.5639 366.988 -227.571 361.4648 C-228.1744 358.7116 -229.2393 356.211 -230.282 353.5996 C-232.2346 347.6026 -233.091 341.2356 -234.2009 335.0361 C-234.4672 333.5816 -234.7341 332.1272 -235.0017 330.6729 C-235.7046 326.8376 -236.3978 323.0008 -237.0759 319.1611 C-237.336 317.7499 -237.336 317.7499 -237.6014 316.3102 C-238.0611 313.2595 -238.2354 310.3665 -238.2847 307.2839 C-238.3132 305.5699 -238.3132 305.5699 -238.3423 303.8212 C-238.3563 302.5915 -238.3702 301.3617 -238.3845 300.0947 C-238.4073 298.1586 -238.4073 298.1586 -238.4305 296.1833 C-238.4736 291.9884 -238.4967 287.7936 -238.5134 283.5986 C-238.5166 282.8879 -238.5197 282.1771 -238.523 281.4448 C-238.6107 258.177 -237.3126 235.9208 -232.0759 213.1611 C-231.7563 211.7133 -231.4372 210.2654 -231.1187 208.8174 C-229.2893 200.6336 -227.1494 192.7536 -224.1384 184.9111 C-223.6125 183.5079 -223.6125 183.5079 -223.0759 182.0764 C-222.3879 180.2451 -221.6956 178.4153 -220.9983 176.5874 C-220.2254 174.5543 -219.4742 172.5129 -218.7283 170.4697 C-213.397 156.0302 -206.5703 142.8844 -198.2292 129.9819 C-196.5297 127.2987 -194.9603 124.5456 -193.3884 121.7861 C-190.6716 117.056 -187.6809 112.6195 -184.4587 108.2197 C-182.9127 106.1157 -182.9127 106.1157 -182.0759 103.1611 C-180.0759 101.1611 -180.0759 101.1611 -178.0759 100.1611 C-177.5809 98.6761 -177.5809 98.6761 -177.0759 97.1611 C-175.4489 95.4324 -173.7913 93.7993 -172.0759 92.1611 C-167.7565 87.9307 -163.4843 83.7159 -159.5759 79.0986 C-156.3846 75.3729 -152.8579 72.1895 -149.1501 68.9854 C-147.434 67.4761 -145.8382 65.9385 -144.2634 64.2861 C-142.2245 62.3055 -140.5701 61.4082 -138.0759 60.1611 C-137.7459 59.1711 -137.4159 58.1811 -137.0759 57.1611 C-134.5134 55.9736 -134.5134 55.9736 -132.0759 55.1611 C-132.0759 54.5011 -132.0759 53.8411 -132.0759 53.1611 C-130.1267 51.751 -130.1267 51.751 -127.3884 50.0986 C-123.0718 47.438 -118.8978 44.6594 -114.7634 41.7236 C-106.107 35.6456 -97.0311 30.2276 -87.2556 26.1455 C-84.7408 25.0098 -82.4047 23.6627 -80.0134 22.2861 C-70.7235 17.1323 -60.5276 13.7374 -50.3259 10.8682 C-48.0193 10.1433 -45.905 9.2147 -43.7009 8.2236 C-38.6258 6.1291 -33.4396 5.0469 -28.0759 3.9736 C-27.2453 3.8068 -26.4146 3.6399 -25.5588 3.468 C-20.4189 2.485 -15.324 1.8291 -10.1072 1.4138 C-6.5126 0.9667 -3.8255 0.0231 0 0 Z " fill="#FCFCFC" transform="translate(238.075927734375,-0.1611328125)"/>
  <ellipse cx="265.48" cy="278.87" rx="242.01" ry="255.38" fill="none" stroke="#7BAA61" stroke-width="48.00" />
<path d="M0 0 C13.0663 8.6968 21.7292 22.4341 25.418 37.6094 C27.0152 52.7469 24.5723 66.1701 16.6875 79.3047 C14.9841 82.2967 14.9841 82.2967 14.418 85.6094 C15.956 88.0252 15.956 88.0252 18.293 90.2344 C19.0329 91.0104 19.7728 91.7864 20.5352 92.5859 C23.3979 94.5953 24.3813 94.8732 27.6719 95.3398 C33.9438 96.5048 37.3009 100.7639 41.4805 105.2969 C42.9897 106.8865 44.5014 108.4737 46.0156 110.0586 C46.7448 110.8259 47.4739 111.5932 48.2251 112.3838 C52.1844 116.4021 56.4058 120.1002 60.918 123.4844 C63.0175 126.4587 62.9695 128.9054 62.8164 132.4844 C62.2433 135.5408 60.9167 136.8455 58.418 138.6094 C55.5431 140.0468 53.6091 139.9514 50.418 139.6094 C47.8047 137.7656 47.8047 137.7656 45.1055 135.1094 C44.0692 134.1079 43.0327 133.1066 41.9961 132.1055 C41.1521 131.2757 41.1521 131.2757 40.291 130.4292 C38.2101 128.4074 36.0918 126.4304 33.9648 124.457 C32.4283 123.0287 30.8918 121.6004 29.3555 120.1719 C28.6171 119.4861 27.8787 118.8003 27.1179 118.0938 C26.4216 117.4402 25.7252 116.7866 25.0078 116.1133 C24.3877 115.5339 23.7676 114.9546 23.1287 114.3577 C20.287 111.4536 18.5851 109.4618 17.793 105.4219 C16.4397 99.8636 11.4955 96.3094 7.418 92.6094 C3.7145 94.0074 0.3134 95.6856 -3.1445 97.6094 C-16.0316 104.7589 -30.6469 107.0258 -45.207 103.5469 C-61.7228 98.2409 -73.76 89.148 -82.125 73.7734 C-88.2839 60.8776 -90.274 45.0124 -86.0195 31.1719 C-80.1298 16.2805 -70.8444 4.2955 -56.3789 -3.0078 C-37.4604 -11.041 -17.9636 -10.7198 0 0 Z " fill="#2A2E31" transform="translate(368.58203125,233.390625)"/>
<path d="M0 0 C3.2471 3.1507 6.1818 6.463 9 10 C12.3066 8.9273 15.5307 7.832 18.6875 6.375 C22 5 22 5 25 5 C24.4691 13.6432 24.4691 13.6432 21.231 16.6338 C18.8908 17.9649 16.5375 19.0658 14.0625 20.125 C12.3225 20.9533 10.5855 21.7879 8.8516 22.6289 C8.0127 23.0287 7.1738 23.4284 6.3096 23.8403 C-1.6342 27.829 -8.2485 33.9133 -14.7109 39.9219 C-17 42 -17 42 -19.5234 43.957 C-45.7132 65.5615 -64.0267 110.6746 -70 143 C-70.3748 147.0126 -70.4319 150.9722 -70.375 155 C-70.3641 156.0545 -70.3532 157.1091 -70.342 158.1956 C-70.1916 165.5245 -69.6121 172.0993 -67 179 C-66.7689 179.6395 -66.5379 180.2791 -66.2998 180.938 C-57.7343 204.4205 -42.5748 222.7535 -19.9375 233.6875 C-4.4612 240.8378 11.3145 244.7124 28.0273 247.8242 C36.7974 249.493 45.3749 251.6463 53.8125 254.5625 C78.6291 263.1007 99.5879 260.218 123.9724 252.0449 C131.768 249.5129 139.4833 247.839 147.5625 246.5 C170.3702 242.6413 193.2216 235.343 211 220 C211.8662 219.3606 212.7325 218.7212 213.625 218.0625 C216.5594 215.5142 218.915 212.6303 221.3516 209.6094 C223 208 223 208 226 208 C228.1875 210.5 228.1875 210.5 230 213 C208.2106 242.2071 175.2646 250.9692 140.8877 257.6519 C131.4999 259.5362 122.5075 262.1338 113.469 265.2849 C91.5424 272.8356 71.831 270.6117 50.2961 263.469 C48.943 263.0203 48.943 263.0203 47.5625 262.5625 C46.1871 262.1051 46.1871 262.1051 44.7839 261.6384 C37.6216 259.3341 30.4647 257.814 23.0625 256.5 C-1.7549 252.0224 -26.4399 244.533 -46 228 C-47.0519 227.2163 -48.1037 226.4325 -49.1875 225.625 C-64.3215 211.4999 -75.105 191.314 -79 171 C-79.1792 170.0693 -79.3584 169.1386 -79.543 168.1797 C-83.3749 141.5202 -73.7883 113.5498 -61.7148 90.0586 C-60.8298 87.5098 -60.8793 86.4507 -62 84 C-63.8362 82.3153 -63.8362 82.3153 -66.125 80.8125 C-75.6052 73.6647 -80.8717 64.7005 -83 53 C-85.043 35.31 -80.4814 22.0244 -69.668 7.9688 C-51.3494 -12.4151 -22.1149 -16.0459 0 0 Z " fill="#2A2F33" transform="translate(180,159)"/>
<path d="M0 0 C10.3468 7.943 18.2931 20.2453 21.0312 33.0938 C22.8041 47.8674 20.7561 61.6077 11.6797 73.5938 C8.002 78.0136 4.183 81.3815 -0.6875 84.4375 C-1.3475 84.4375 -2.0075 84.4375 -2.6875 84.4375 C-2.2028 85.3257 -1.7181 86.2138 -1.2188 87.1289 C7.6833 103.9087 13.5318 121.8545 17.3125 140.4375 C17.5046 141.2548 17.6966 142.072 17.8945 142.9141 C19.4494 152.3014 18.6241 162.2437 17 171.5625 C16.8824 172.248 16.7647 172.9334 16.6436 173.6396 C15.758 178.2623 14.2784 182.1974 12.3125 186.4375 C8.9409 185.0423 7.1261 183.6279 5.3125 180.4375 C5.6758 178.0117 5.6758 178.0117 6.625 175.125 C10.6374 159.6336 9.1104 143.5255 4.3125 128.4375 C3.9619 127.1845 3.6112 125.9316 3.25 124.6406 C-7.8912 85.3985 -31.1773 43.9128 -67.6875 23.4375 C-69.8719 22.4021 -72.0781 21.4288 -74.29 20.4539 C-83.0471 16.5641 -83.0471 16.5641 -85.3594 12.4961 C-86.1014 9.7555 -86.5626 7.2693 -86.6875 4.4375 C-85.0815 4.8895 -83.4778 5.3493 -81.875 5.8125 C-80.535 6.1954 -80.535 6.1954 -79.168 6.5859 C-76.6875 7.4375 -76.6875 7.4375 -73.6875 9.4375 C-71.0191 9.2435 -69.9616 8.717 -68.082 6.8008 C-67.56 6.124 -67.0379 5.4473 -66.5 4.75 C-49.2852 -15.8635 -20.7391 -13.9518 0 0 Z " fill="#292E31" transform="translate(412.6875,159.5625)"/>
<path d="M0 0 C5.9483 4.8179 9.442 9.2313 10.3047 16.9414 C11.0441 39.2618 -0.8739 57.8623 -13.0703 75.5898 C-13.7613 76.6185 -14.4522 77.6472 -15.1641 78.707 C-20.4323 85.9833 -26.5926 89.6146 -35.4492 91.1914 C-48.3653 92.6126 -57.2592 91.9058 -67.8203 84.3398 C-73.7414 79.5141 -77.071 73.9381 -79.0703 66.5898 C-80.0493 53.6086 -79.3743 43.669 -70.6836 33.4531 C-56.0426 17.4115 -24.3304 -16.5722 0 0 Z " fill="#2A2E32" transform="translate(230.0703125,245.41015625)"/>
<path d="M0 0 C13.0663 8.6968 21.7292 22.4341 25.418 37.6094 C27.0152 52.7469 24.5723 66.1701 16.6875 79.3047 C14.9841 82.2967 14.9841 82.2967 14.418 85.6094 C15.956 88.0252 15.956 88.0252 18.293 90.2344 C19.0329 91.0104 19.7728 91.7864 20.5352 92.5859 C23.3979 94.5953 24.3813 94.8732 27.6719 95.3398 C33.9438 96.5048 37.3009 100.7639 41.4805 105.2969 C42.9897 106.8865 44.5014 108.4737 46.0156 110.0586 C46.7448 110.8259 47.4739 111.5932 48.2251 112.3838 C52.1844 116.4021 56.4058 120.1002 60.918 123.4844 C63.0175 126.4587 62.9695 128.9054 62.8164 132.4844 C62.2433 135.5408 60.9167 136.8455 58.418 138.6094 C55.5431 140.0468 53.6091 139.9514 50.418 139.6094 C47.8047 137.7656 47.8047 137.7656 45.1055 135.1094 C44.0692 134.1079 43.0327 133.1066 41.9961 132.1055 C41.1521 131.2757 41.1521 131.2757 40.291 130.4292 C38.2101 128.4074 36.0918 126.4304 33.9648 124.457 C32.4283 123.0287 30.8918 121.6004 29.3555 120.1719 C28.6171 119.4861 27.8787 118.8003 27.1179 118.0938 C26.4216 117.4402 25.7252 116.7866 25.0078 116.1133 C24.3877 115.5339 23.7676 114.9546 23.1287 114.3577 C20.287 111.4536 18.5851 109.4618 17.793 105.4219 C16.4397 99.8636 11.4955 96.3094 7.418 92.6094 C3.7145 94.0074 0.3134 95.6856 -3.1445 97.6094 C-16.0316 104.7589 -30.6469 107.0258 -45.207 103.5469 C-61.7228 98.2409 -73.76 89.148 -82.125 73.7734 C-88.2839 60.8776 -90.274 45.0124 -86.0195 31.1719 C-80.1298 16.2805 -70.8444 4.2955 -56.3789 -3.0078 C-37.4604 -11.041 -17.9636 -10.7198 0 0 Z M-65.582 17.6094 C-74.7656 29.1486 -77.9923 41.104 -76.582 55.6094 C-74.9214 63.6701 -71.4987 70.0853 -66.582 76.6094 C-66.0045 77.4756 -65.427 78.3419 -64.832 79.2344 C-56.8889 87.6188 -45.8177 93.5772 -34.2017 93.9021 C-19.9649 94.039 -9.0134 90.3168 1.6016 80.6133 C11.9031 70.0002 14.8326 57.5666 14.6953 43.1719 C13.8495 32.3068 8.0368 21.7077 0.168 14.2969 C-4.3455 10.5293 -9.1528 7.8363 -14.582 5.6094 C-15.4521 5.2446 -16.3223 4.8798 -17.2188 4.5039 C-35.2645 -0.2957 -52.5945 4.417 -65.582 17.6094 Z " fill="#292E31" transform="translate(368.58203125,233.390625)"/>
<path d="M0 0 C2.64 0.0719 3.793 0.1441 6.0625 1.5625 C7.0625 3.3125 7.0625 3.3125 7.0625 7.3125 C7.6568 7.3383 8.251 7.3641 8.8633 7.3906 C24.0177 8.4276 36.6439 15.4978 47.0625 26.3125 C53.8644 34.3267 57.0625 41.784 57.0625 52.3125 C39.2425 52.3125 21.4225 52.3125 3.0625 52.3125 C3.0625 37.4625 3.0625 22.6125 3.0625 7.3125 C1.0825 7.3125 -0.8975 7.3125 -2.9375 7.3125 C-2.9375 22.1625 -2.9375 37.0125 -2.9375 52.3125 C-20.0975 52.3125 -37.2575 52.3125 -54.9375 52.3125 C-54.9375 40.1211 -51.0092 31.5805 -42.75 22.6875 C-33.9523 14.3903 -22.46 8.1279 -10.125 8.0625 C-9.0731 8.145 -8.0213 8.2275 -6.9375 8.3125 C-6.7519 6.8894 -6.7519 6.8894 -6.5625 5.4375 C-5.6198 0.7239 -4.8139 0.3821 0 0 Z " fill="#7BA963" transform="translate(264.9375,109.6875)"/>
<path d="M0 0 C9.5829 6.8632 17.3362 17.6635 19.4648 29.4258 C20.2616 44.304 17.683 56.8169 8.6133 68.8906 C0.0732 78.0458 -11.9653 83.3072 -24.3799 83.8281 C-36.3432 84.0291 -45.0142 80.4697 -54.5352 73.4258 C-55.4014 72.8483 -56.2677 72.2708 -57.1602 71.6758 C-65.8414 63.4514 -71.4981 51.926 -71.8279 39.9441 C-71.9475 27.3596 -68.4729 17.3996 -60.5352 7.4258 C-44.2804 -9.0853 -19.825 -12.3104 0 0 Z M-53.9961 8.668 C-62.6312 17.6473 -66.8809 27.4715 -66.6797 39.8906 C-66.029 51.3047 -60.238 61.8133 -51.9766 69.5156 C-41.7005 77.5556 -31.1036 78.2405 -18.5352 77.4258 C-7.6132 75.7411 1.24 69.8711 7.7656 61.082 C10.9341 56.129 13.3475 51.3015 13.5898 45.3633 C6.42 26.6421 -13.5133 12.5612 -30.2188 2.8516 C-40.2081 -1.443 -46.3074 1.6627 -53.9961 8.668 Z " fill="#F8F8F8" transform="translate(363.53515625,243.57421875)"/>
<path d="M0 0 C1.0687 -0.0062 2.1373 -0.0124 3.2384 -0.0188 C5.4944 -0.0259 7.7504 -0.0227 10.0063 -0.01 C13.457 0.0039 16.905 -0.0302 20.3555 -0.0684 C22.5495 -0.0693 24.7435 -0.0675 26.9375 -0.0625 C27.9678 -0.0758 28.9981 -0.089 30.0597 -0.1027 C37.2419 -0.0093 37.2419 -0.0093 41.0957 3.0432 C41.7138 3.8759 42.3319 4.7085 42.9688 5.5664 C43.4638 6.0614 43.4638 6.0614 43.9688 6.5664 C43.8114 10.6569 43.5381 12.9112 40.8164 16.043 C37.8655 18.6579 34.9089 20.6624 31.5312 22.6914 C29.8935 23.6853 29.8935 23.6853 28.2227 24.6992 C25.1861 26.4417 22.1173 28.0373 18.9688 29.5664 C18.9902 34.4899 19.2618 37.6548 22.3438 41.6289 C26.7156 44.6881 31.8838 44.295 36.9688 43.5664 C40.0495 42.1832 41.6072 40.9279 43.9688 38.5664 C46.4688 38.3164 46.4688 38.3164 48.9688 38.5664 C50.9688 40.5664 50.9688 40.5664 51.0312 42.8164 C49.1796 47.609 45.1426 50.5099 40.5977 52.7188 C34.4621 54.6971 27.377 54.6393 21.5312 51.8164 C18.4484 50.0143 15.658 47.9195 12.9688 45.5664 C12.1231 46.3295 11.2775 47.0927 10.4062 47.8789 C4.2607 52.898 -1.1405 54.2425 -9.0195 54.0547 C-14.8037 53.1169 -19.0492 49.8912 -22.793 45.5 C-24.0312 43.5664 -24.0312 43.5664 -23.7812 41.3789 C-23.0312 39.5664 -23.0312 39.5664 -22.0312 38.5664 C-19.8438 38.1914 -19.8438 38.1914 -17.0312 38.5664 C-16.165 39.3914 -15.2988 40.2164 -14.4062 41.0664 C-11.5498 43.6638 -9.3639 44.0095 -5.5312 44.1289 C-0.6705 43.8974 2.3092 42.9444 5.9688 39.5664 C8.3607 36.2632 8.5091 32.5501 8.9688 28.5664 C8.2649 28.4684 7.5611 28.3705 6.8359 28.2695 C-0.9203 26.3675 -11.4727 20.0146 -16.5312 13.6914 C-17.324 10.3222 -16.9227 7.8944 -16.0312 4.5664 C-11.5796 -0.6336 -6.3471 -0.0306 0 0 Z " fill="#272C2F" transform="translate(252.03125,340.43359375)"/>
<path d="M0 0 C0.9325 -0.0057 1.8649 -0.0114 2.8256 -0.0173 C3.8568 -0.0184 4.888 -0.0195 5.9505 -0.0207 C7.03 -0.0257 8.1096 -0.0306 9.2219 -0.0357 C12.8105 -0.0504 16.3991 -0.0572 19.9878 -0.0627 C22.4702 -0.0684 24.9527 -0.0742 27.4351 -0.08 C32.6464 -0.0905 37.8578 -0.0963 43.0691 -0.0998 C48.4325 -0.1036 53.7957 -0.1177 59.159 -0.1408 C65.6181 -0.1683 72.077 -0.1812 78.5362 -0.1831 C81.0047 -0.1862 83.4731 -0.1942 85.9416 -0.2073 C89.3874 -0.2243 92.8327 -0.2225 96.2786 -0.216 C97.8223 -0.2298 97.8223 -0.2298 99.3973 -0.2439 C100.3326 -0.2384 101.2678 -0.2328 102.2314 -0.2271 C103.0469 -0.2285 103.8623 -0.23 104.7024 -0.2315 C105.3547 -0.1088 106.0071 0.014 106.6792 0.1404 C108.8312 3.3684 108.8801 4.4244 108.6792 8.1404 C98.9555 14.9721 88.192 16.3985 76.6792 18.1404 C75.6072 18.3162 74.5352 18.492 73.4307 18.6732 C69.1859 19.2019 65.0378 19.338 60.7652 19.3787 C59.9211 19.3885 59.0771 19.3982 58.2075 19.4083 C13.2299 19.8213 13.2299 19.8213 -4.3208 10.1404 C-4.9808 9.4804 -5.6408 8.8204 -6.3208 8.1404 C-5.6085 0.0205 -5.6085 0.0205 0 0 Z " fill="#80AA68" transform="translate(214.32078552246094,166.85955810546875)"/>
<path d="M0 0 C1.2799 -0.0096 2.5598 -0.0192 3.8785 -0.0291 C5.2882 -0.034 6.698 -0.0382 8.1077 -0.042 C9.1781 -0.0462 9.1781 -0.0462 10.2702 -0.0506 C14.0657 -0.0656 17.8612 -0.0748 21.6567 -0.0791 C24.763 -0.0834 27.8689 -0.0972 30.9751 -0.1201 C62.3386 -0.3477 62.3386 -0.3477 76.2993 2.5137 C79.9213 3.1606 83.2535 3.2741 86.9241 3.1611 C86.9241 3.8211 86.9241 4.4811 86.9241 5.1611 C88.7494 5.223 88.7494 5.223 90.6116 5.2861 C96.1239 5.8881 100.4729 8.1396 105.4084 10.5557 C108.9903 12.1914 112.5449 13.4166 116.2991 14.5986 C130.9602 19.2734 144.4071 26.9195 157.9241 34.1611 C157.9241 35.1511 157.9241 36.1411 157.9241 37.1611 C156.5744 36.4689 156.5744 36.4689 155.1975 35.7627 C147.0644 31.6262 138.8541 27.6913 130.5491 23.9111 C129.6472 23.4994 128.7454 23.0877 127.8162 22.6636 C108.717 14.0254 89.4599 9.1375 68.9241 5.1611 C67.5623 4.8873 67.5623 4.8873 66.1731 4.6079 C53.1948 2.0899 40.2221 1.9232 27.0491 1.9111 C26.1865 1.9098 25.3238 1.9085 24.4351 1.9071 C11.0516 1.9116 -1.9117 2.5752 -15.0759 5.1611 C-16.936 5.5034 -16.936 5.5034 -18.8337 5.8525 C-22.2739 6.5382 -25.6694 7.3246 -29.0759 8.1611 C-29.7772 8.3284 -30.4784 8.4956 -31.2009 8.668 C-64.7425 16.7231 -96.4883 31.4417 -124.0759 52.1611 C-125.2477 53.0246 -126.4195 53.8879 -127.5916 54.751 C-137.1031 61.8371 -145.7271 69.7463 -154.0759 78.1611 C-156.4543 80.5542 -158.8321 82.9328 -161.2947 85.2393 C-177.6102 100.7725 -189.9265 120.7211 -201.0759 140.1611 C-201.4404 140.7915 -201.8049 141.4218 -202.1804 142.0713 C-212.4007 159.932 -219.8357 179.2887 -225.0759 199.1611 C-225.4339 200.4662 -225.7933 201.7709 -226.1541 203.0752 C-227.1606 206.7633 -228.155 210.4508 -229.0759 214.1611 C-229.3093 215.0992 -229.5427 216.0372 -229.7832 217.0037 C-234.7838 237.8033 -236.4622 258.7678 -236.4509 280.0986 C-236.4526 280.9272 -236.4544 281.7558 -236.4561 282.6095 C-236.4535 293.9314 -235.6272 304.9498 -234.0759 316.1611 C-233.961 317.0544 -233.8462 317.9476 -233.7278 318.8679 C-227.0522 369.7815 -206.4624 422.8075 -171.7322 461.208 C-169.2479 463.9699 -166.9379 466.8077 -164.6384 469.7236 C-151.6345 485.6904 -135.3845 497.7997 -119.0759 510.1611 C-119.7359 510.8211 -120.3959 511.4811 -121.0759 512.1611 C-122.4145 511.3783 -123.7467 510.5846 -125.0759 509.7861 C-125.8184 509.3453 -126.5609 508.9044 -127.3259 508.4502 C-127.9034 508.0248 -128.4809 507.5994 -129.0759 507.1611 C-129.0759 506.5011 -129.0759 505.8411 -129.0759 505.1611 C-129.6328 505.0786 -130.1897 504.9961 -130.7634 504.9111 C-133.8127 503.9222 -135.7278 502.3136 -138.0759 500.1611 C-138.0759 499.5011 -138.0759 498.8411 -138.0759 498.1611 C-138.7359 498.1611 -139.3959 498.1611 -140.0759 498.1611 C-140.0759 497.5011 -140.0759 496.8411 -140.0759 496.1611 C-141.0969 495.8518 -141.0969 495.8518 -142.1384 495.5361 C-145.9923 493.7322 -149.1538 491.2601 -152.0759 488.1611 C-152.0759 487.5011 -152.0759 486.8411 -152.0759 486.1611 C-152.9731 485.728 -152.9731 485.728 -153.8884 485.2861 C-156.0759 484.1611 -156.0759 484.1611 -159.0759 482.1611 C-159.0759 481.5011 -159.0759 480.8411 -159.0759 480.1611 C-159.7359 480.1611 -160.3959 480.1611 -161.0759 480.1611 C-164.0759 476.6996 -164.0759 476.6996 -164.0759 474.1611 C-164.7359 474.1611 -165.3959 474.1611 -166.0759 474.1611 C-166.4059 472.8411 -166.7359 471.5211 -167.0759 470.1611 C-167.7359 470.1611 -168.3959 470.1611 -169.0759 470.1611 C-170.7073 468.2353 -172.2132 466.3179 -173.7009 464.2861 C-174.1212 463.7305 -174.5414 463.175 -174.9744 462.6025 C-178.0759 458.4235 -178.0759 458.4235 -178.0759 456.1611 C-178.7359 456.1611 -179.3959 456.1611 -180.0759 456.1611 C-187.0667 448.6193 -200.0759 433.8561 -200.0759 423.1611 C-201.0659 422.8311 -202.0559 422.5011 -203.0759 422.1611 C-203.0759 421.5011 -203.0759 420.8411 -203.0759 420.1611 C-203.7359 420.1611 -204.3959 420.1611 -205.0759 420.1611 C-205.3067 419.5553 -205.5374 418.9494 -205.7751 418.3252 C-207.5322 413.811 -209.3898 409.454 -211.6384 405.1611 C-214.1261 400.3239 -215.7017 395.4121 -217.0759 390.1611 C-217.7359 390.1611 -218.3959 390.1611 -219.0759 390.1611 C-220.2113 386.873 -221.3322 383.58 -222.4509 380.2861 C-222.768 379.3683 -223.0851 378.4505 -223.4119 377.5049 C-225.2108 372.1831 -226.5639 366.988 -227.571 361.4648 C-228.1744 358.7116 -229.2393 356.211 -230.282 353.5996 C-232.2346 347.6026 -233.091 341.2356 -234.2009 335.0361 C-234.4672 333.5816 -234.7341 332.1272 -235.0017 330.6729 C-235.7046 326.8376 -236.3978 323.0008 -237.0759 319.1611 C-237.336 317.7499 -237.336 317.7499 -237.6014 316.3102 C-238.0611 313.2595 -238.2354 310.3665 -238.2847 307.2839 C-238.3132 305.5699 -238.3132 305.5699 -238.3423 303.8212 C-238.3563 302.5915 -238.3702 301.3617 -238.3845 300.0947 C-238.4073 298.1586 -238.4073 298.1586 -238.4305 296.1833 C-238.4736 291.9884 -238.4967 287.7936 -238.5134 283.5986 C-238.5166 282.8879 -238.5197 282.1771 -238.523 281.4448 C-238.6107 258.177 -237.3126 235.9208 -232.0759 213.1611 C-231.7563 211.7133 -231.4372 210.2654 -231.1187 208.8174 C-229.2893 200.6336 -227.1494 192.7536 -224.1384 184.9111 C-223.6125 183.5079 -223.6125 183.5079 -223.0759 182.0764 C-222.3879 180.2451 -221.6956 178.4153 -220.9983 176.5874 C-220.2254 174.5543 -219.4742 172.5129 -218.7283 170.4697 C-213.397 156.0302 -206.5703 142.8844 -198.2292 129.9819 C-196.5297 127.2987 -194.9603 124.5456 -193.3884 121.7861 C-190.6716 117.056 -187.6809 112.6195 -184.4587 108.2197 C-182.9127 106.1157 -182.9127 106.1157 -182.0759 103.1611 C-180.0759 101.1611 -180.0759 101.1611 -178.0759 100.1611 C-177.5809 98.6761 -177.5809 98.6761 -177.0759 97.1611 C-175.4489 95.4324 -173.7913 93.7993 -172.0759 92.1611 C-167.7565 87.9307 -163.4843 83.7159 -159.5759 79.0986 C-156.3846 75.3729 -152.8579 72.1895 -149.1501 68.9854 C-147.434 67.4761 -145.8382 65.9385 -144.2634 64.2861 C-142.2245 62.3055 -140.5701 61.4082 -138.0759 60.1611 C-137.7459 59.1711 -137.4159 58.1811 -137.0759 57.1611 C-134.5134 55.9736 -134.5134 55.9736 -132.0759 55.1611 C-132.0759 54.5011 -132.0759 53.8411 -132.0759 53.1611 C-130.1267 51.751 -130.1267 51.751 -127.3884 50.0986 C-123.0718 47.438 -118.8978 44.6594 -114.7634 41.7236 C-106.107 35.6456 -97.0311 30.2276 -87.2556 26.1455 C-84.7408 25.0098 -82.4047 23.6627 -80.0134 22.2861 C-70.7235 17.1323 -60.5276 13.7374 -50.3259 10.8682 C-48.0193 10.1433 -45.905 9.2147 -43.7009 8.2236 C-38.6258 6.1291 -33.4396 5.0469 -28.0759 3.9736 C-27.2453 3.8068 -26.4146 3.6399 -25.5588 3.468 C-20.4189 2.485 -15.324 1.8291 -10.1072 1.4138 C-6.5126 0.9667 -3.8255 0.0231 0 0 Z " fill="#EEF5EA" transform="translate(238.075927734375,-0.1611328125)"/>
<path d="M0 0 C0.66 0.33 1.32 0.66 2 1 C2 1.66 2 2.32 2 3 C3.32 3 4.64 3 6 3 C4.0599 4.4712 2.1188 5.9192 0.1055 7.2891 C-8.9498 13.5964 -14.5228 21.9491 -17.75 32.4375 C-19.0179 45.4334 -16.2454 56.8649 -8.1797 67.3711 C-1.7721 74.2326 6.3399 78.694 15.7578 79.2031 C27.6334 79.4154 36.4566 77.6622 47 72 C47.33 72.99 47.66 73.98 48 75 C49.32 74.67 50.64 74.34 52 74 C48.1384 78.3443 44.3598 80.7802 39 83 C38.282 83.3016 37.564 83.6033 36.8242 83.9141 C26.5766 87.5997 14.4949 87.5268 4.4648 83.2734 C0.3918 81.1691 -3.3187 78.7235 -7 76 C-7.8662 75.4225 -8.7325 74.845 -9.625 74.25 C-18.3062 66.0257 -23.9629 54.5002 -24.2927 42.5183 C-24.4119 29.9804 -20.9807 19.903 -13 10 C-9.0404 6.2811 -4.8911 2.4456 0 0 Z " fill="#F0F0F0" transform="translate(316,241)"/>
<path d="M0 0 C4.8383 2.3296 7.6006 5.2012 10 10 C10.9484 15.328 9.9973 19.4524 7 24 C2.0769 28.4428 -0.9542 29.3672 -7.4609 29.2734 C-11.2661 28.8637 -13.2157 27.5854 -16 25 C-18.65 21.6543 -19.8714 18.7856 -20.5625 14.5625 C-19.6662 8.8858 -17.0283 4.8544 -12.8125 1 C-8.5064 -0.5311 -4.5126 -0.6447 0 0 Z " fill="#F2F3F3" transform="translate(327,269)"/>
<path d="M0 0 C4.4298 2.1358 7.1961 4.3901 9 9 C9.7095 14.8826 9.6235 20.0908 6 25 C1.4331 28.4708 -2.1157 29.6644 -7.8555 29.3906 C-12.2075 28.5979 -14.969 26.1732 -17.8125 22.9375 C-20.3067 18.868 -20.6355 14.6514 -20 10 C-15.3328 1.0113 -9.8038 -1.4252 0 0 Z " fill="#F6F6F6" transform="translate(214,269)"/>
<path d="M0 0 C5.3794 5.3794 4.2484 16.4843 4.3035 23.5922 C4.3026 24.8882 4.3017 26.1843 4.3008 27.5195 C4.3047 28.9084 4.309 30.2973 4.3138 31.6862 C4.3212 34.5883 4.321 37.4902 4.3157 40.3923 C4.3111 43.3196 4.3179 46.2464 4.3362 49.1736 C4.4871 73.4828 3.1264 96.8558 -4.1875 120.207 C-5.0241 123.0829 -5.7353 125.9788 -6.4319 128.8914 C-8.4938 137.4903 -11.0983 145.3963 -15.1875 153.25 C-16.854 156.4654 -17.6365 159.3654 -18 163 C-18.66 163 -19.32 163 -20 163 C-20.2539 163.834 -20.5079 164.668 -20.7695 165.5273 C-22.1361 169.3842 -23.8316 172.9234 -25.6875 176.5625 C-26.2192 177.612 -26.2192 177.612 -26.7617 178.6826 C-27.8349 180.7917 -28.9162 182.8964 -30 185 C-30.5943 186.1589 -31.1885 187.3177 -31.8008 188.5117 C-36.674 197.7988 -42.0675 207.0772 -49 215 C-49.66 215 -50.32 215 -51 215 C-51.2514 215.7116 -51.5027 216.4231 -51.7617 217.1562 C-54.817 224.1728 -60.9201 233.4601 -68 237 C-68.495 237.99 -68.495 237.99 -69 239 C-69.33 238.34 -69.66 237.68 -70 237 C-69.4431 236.322 -68.8863 235.6439 -68.3125 234.9453 C-66.702 232.9812 -65.0941 231.0148 -63.4883 229.0469 C-62.0125 227.2398 -60.5325 225.4363 -59.043 223.6406 C-41.6849 202.4455 -27.6904 178.6385 -18 153 C-17.6695 152.152 -17.339 151.3039 -16.9985 150.4302 C-9.4944 131.1473 -4.3862 111.8062 -1.1875 91.375 C-1.0821 90.7039 -0.9767 90.0328 -0.8681 89.3414 C1.3854 74.7988 2.2017 60.4982 2.1875 45.8125 C2.1882 45.042 2.189 44.2714 2.1897 43.4776 C2.1886 33.3646 1.8568 23.4694 0.4453 13.4414 C-0.1405 8.9139 -0.147 4.5569 0 0 Z " fill="#E8EEE1" transform="translate(527,234)"/>
<path d="M0 0 C4.2735 0.476 6.6831 3.2032 9.625 6.0625 C12.7962 9.6213 12.7962 9.6213 17 11 C18.5508 12.5742 18.5508 12.5742 20.3125 14.6875 C22.2807 17.0361 24.2579 19.2563 26.4336 21.418 C29.042 24.0423 31.4028 26.7658 33.75 29.625 C34.5286 30.566 35.3072 31.507 36.1094 32.4766 C38 35 38 35 39 38 C39.66 38 40.32 38 41 38 C44 42.3846 44 42.3846 44 45 C44.66 45 45.32 45 46 45 C46 45.66 46 46.32 46 47 C46.66 47 47.32 47 48 47 C49.2891 48.4609 49.2891 48.4609 50.625 50.375 C51.071 51.0015 51.517 51.628 51.9766 52.2734 C53 54 53 54 53 56 C53.66 56 54.32 56 55 56 C55.4151 57.0248 55.8302 58.0496 56.2578 59.1055 C57.8139 62.7348 59.7438 65.9831 61.875 69.3125 C71 83.8923 71 83.8923 71 88 C71.66 88.33 72.32 88.66 73 89 C74.0498 91.1704 74.0498 91.1704 75.1719 94.0391 C75.5895 95.0961 76.0072 96.1531 76.4375 97.2422 C76.8706 98.3585 77.3037 99.4748 77.75 100.625 C78.5989 102.7839 79.4478 104.9427 80.2969 107.1016 C80.7323 108.2231 81.1678 109.3447 81.6165 110.5002 C82.5552 112.8749 83.5223 115.2386 84.5144 117.5916 C88.1092 126.1343 90.7161 134.6567 92.8157 143.6814 C93.3171 145.8322 93.8379 147.9775 94.3613 150.123 C96.1082 157.3968 97.4943 164.5173 98 172 C97.34 172.33 96.68 172.66 96 173 C95.8852 172.3684 95.7704 171.7367 95.6521 171.0859 C87.4774 126.7422 71.3627 84.1978 44 48 C43.5604 47.4162 43.1209 46.8324 42.668 46.231 C30.8641 30.6469 17.4597 15.7743 2.3906 3.2695 C1 2 1 2 0 0 Z " fill="#EEF3E9" transform="translate(430,61)"/>
<path d="M0 0 C4.7818 1.0735 4.7818 1.0735 7.0625 1.6875 C6.8975 2.2856 6.7325 2.8837 6.5625 3.5 C5.9511 5.8009 5.9511 5.8009 6.0625 8.6875 C4.2695 10.1523 4.2695 10.1523 1.875 11.625 C1.0487 12.1548 0.2224 12.6846 -0.6289 13.2305 C-1.3907 13.7113 -2.1526 14.1921 -2.9375 14.6875 C-7.6822 17.8506 -10.2596 21.8977 -13.2891 26.6406 C-13.833 27.3161 -14.377 27.9916 -14.9375 28.6875 C-15.9275 28.6875 -16.9175 28.6875 -17.9375 28.6875 C-18.02 29.3062 -18.1025 29.925 -18.1875 30.5625 C-18.9375 32.6875 -18.9375 32.6875 -21 33.9375 C-21.6394 34.185 -22.2788 34.4325 -22.9375 34.6875 C-23.0612 33.7181 -23.185 32.7487 -23.3125 31.75 C-23.6219 30.2341 -23.6219 30.2341 -23.9375 28.6875 C-24.5975 28.3575 -25.2575 28.0275 -25.9375 27.6875 C-24.8546 18.7079 -17.397 10.4796 -10.5625 5 C-3.3382 -0.3551 -3.3382 -0.3551 0 0 Z " fill="#242A2E" transform="translate(311.9375,232.3125)"/>
<path d="M0 0 C0.9647 -0.0161 1.9295 -0.0321 2.9234 -0.0487 C7.3374 -0.0931 11.7513 -0.1342 16.1655 -0.1572 C18.4944 -0.1738 20.8232 -0.2011 23.1519 -0.2393 C26.5073 -0.294 29.8616 -0.3159 33.2175 -0.3306 C34.7771 -0.3646 34.7771 -0.3646 36.3682 -0.3993 C43.576 -0.3782 43.576 -0.3782 47.5503 2.5381 C49.3542 5.1929 49.3542 5.1929 49.3542 8.1929 C48.3642 8.8529 47.3742 9.5129 46.3542 10.1929 C45.1619 12.2429 45.1619 12.2429 44.3542 14.1929 C44.3542 11.5529 44.3542 8.9129 44.3542 6.1929 C28.5142 6.1929 12.6742 6.1929 -3.6458 6.1929 C-3.6458 8.8329 -3.6458 11.4729 -3.6458 14.1929 C-2.9858 14.5229 -2.3258 14.8529 -1.6458 15.1929 C-1.9758 16.1829 -2.3058 17.1729 -2.6458 18.1929 C-5.5304 16.8998 -7.7743 15.7773 -9.6458 13.1929 C-10.5833 9.8179 -10.5833 9.8179 -10.6458 6.1929 C-7.6073 1.3732 -5.5368 0.0837 0 0 Z " fill="#262B2E" transform="translate(245.645751953125,340.80712890625)"/>
<path d="M0 0 C3.971 3.3617 4.0649 7.037 5 12 C5.33 8.7 5.66 5.4 6 2 C6.33 2 6.66 2 7 2 C7.049 2.9552 7.098 3.9104 7.1484 4.8945 C7.5556 11.9358 8.1218 18.7168 9.5977 25.6328 C10.0222 28.1306 10.0675 30.4713 10 33 C9.34 33 8.68 33 8 33 C8 33.99 8 34.98 8 36 C7.34 36 6.68 36 6 36 C5.67 36.99 5.34 37.98 5 39 C4.34 38.67 3.68 38.34 3 38 C2.1836 35.4883 2.1836 35.4883 1.4375 32.3125 C1.1887 31.2774 0.9399 30.2423 0.6836 29.1758 C-0.7026 22.736 -1.1548 16.7565 -1.125 10.1875 C-1.1289 9.3167 -1.1327 8.446 -1.1367 7.5488 C-1.1354 6.7219 -1.1341 5.895 -1.1328 5.043 C-1.1317 4.2904 -1.1306 3.5378 -1.1294 2.7625 C-1 1 -1 1 0 0 Z " fill="#262B2F" transform="translate(101,304)"/>
<path d="M0 0 C0.66 0 1.32 0 2 0 C1.93 0.7093 1.86 1.4186 1.7878 2.1494 C0.9605 11.4859 0.8138 20.7685 0.8147 30.1367 C0.8125 32.7319 0.7943 35.3267 0.7754 37.9219 C0.7389 48.768 1.4781 59.2649 3 70 C3.1151 70.8917 3.2303 71.7834 3.3489 72.7021 C5.0532 85.7605 8.1373 98.4554 11.3208 111.2197 C12.2769 115.1336 13.1447 119.063 14 123 C12.0625 121.9375 12.0625 121.9375 10 120 C9.5904 117.6788 9.2687 115.3417 9 113 C8.5604 111.9339 8.1209 110.8679 7.668 109.7695 C5.0785 103.0878 4.1329 95.9015 2.875 88.875 C2.6087 87.4205 2.3418 85.966 2.0742 84.5117 C1.3713 80.6765 0.6782 76.8397 0 73 C-0.1751 72.07 -0.3501 71.14 -0.5305 70.1818 C-1.0092 66.9374 -1.127 63.8774 -1.1294 60.5991 C-1.1325 59.3512 -1.1357 58.1032 -1.1389 56.8175 C-1.1372 55.4695 -1.1351 54.1214 -1.1328 52.7734 C-1.1335 51.3791 -1.1345 49.9848 -1.1357 48.5905 C-1.1372 45.6772 -1.1351 42.7639 -1.1304 39.8506 C-1.1247 36.1204 -1.128 32.3903 -1.1339 28.6602 C-1.1376 25.7846 -1.1364 22.909 -1.1338 20.0333 C-1.1331 18.6579 -1.134 17.2824 -1.1363 15.9069 C-1.1388 13.9853 -1.1343 12.0637 -1.1294 10.1421 C-1.1286 9.0499 -1.1278 7.9577 -1.127 6.8324 C-1.0169 4.3779 -0.7121 2.3394 0 0 Z " fill="#E8EFE1" transform="translate(1,246)"/>
<path d="M0 0 C1.69 1.643 3.3522 3.3147 5 5 C6.0989 5.8403 7.203 6.6738 8.3125 7.5 C11 10 11 10 11.375 12.8125 C11.2513 13.5344 11.1275 14.2563 11 15 C8.36 15 5.72 15 3 15 C3.33 15.99 3.66 16.98 4 18 C-0.9075 16.5129 -4.5115 13.6773 -8 10 C-9.4375 7.125 -9.4375 7.125 -10 5 C-9.34 5 -8.68 5 -8 5 C-8 4.34 -8 3.68 -8 3 C-7.34 3 -6.68 3 -6 3 C-6 2.34 -6 1.68 -6 1 C-3.9245 0.4465 -2.1563 0 0 0 Z " fill="#22262A" transform="translate(304,311)"/>
<path d="M0 0 C2.5 2.125 2.5 2.125 4 5 C3.9402 8.4676 3.6097 10.8883 1.9375 13.9375 C-1.2676 15.6951 -4.4943 15.6137 -8 15 C-10.5 13.5 -10.5 13.5 -12 11 C-12.6047 8.1894 -12.6538 5.8046 -12 3 C-8.3906 -1.4845 -5.362 -1.6574 0 0 Z " fill="#2C3232" transform="translate(213,276)"/>
<path d="M0 0 C2.5 1.5625 2.5 1.5625 4 4 C4.558 7.9061 4.5839 10.0511 2.5 13.4375 C-0.5304 15.3315 -2.5583 15.6433 -6.0898 15.4453 C-8 15 -8 15 -10.5625 12.9375 C-12.4363 9.1085 -12.1296 7.0667 -11 3 C-8.7171 -1.163 -4.227 -0.7484 0 0 Z " fill="#2D3234" transform="translate(326,276)"/>
<path d="M0 0 C2 1 2 1 3.9375 3.0625 C5.8928 5.3423 5.8928 5.3423 9 5 C9.6768 6.7252 10.341 8.4554 11 10.1875 C11.3712 11.1504 11.7425 12.1134 12.125 13.1055 C12.9764 15.9218 13.1707 18.0816 13 21 C12.34 21 11.68 21 11 21 C10.8969 21.6187 10.7937 22.2375 10.6875 22.875 C10 25 10 25 7 27 C5.4607 23.4243 3.9469 19.8384 2.4375 16.25 C1.9999 15.2342 1.5622 14.2184 1.1113 13.1719 C0.4974 11.7023 0.4974 11.7023 -0.1289 10.2031 C-0.5112 9.3024 -0.8935 8.4017 -1.2874 7.4736 C-2.0572 4.8013 -2.0014 3.5606 -1 1 C-0.67 0.67 -0.34 0.34 0 0 Z " fill="#26292D" transform="translate(409,255)"/>
<path d="M0 0 C0 0.66 0 1.32 0 2 C3.96 2 7.92 2 12 2 C12 2.99 12 3.98 12 5 C9.5028 5.6789 7.003 6.3432 4.5 7 C3.4559 7.2862 3.4559 7.2862 2.3906 7.5781 C-4.2034 9.2877 -10.3046 9.6739 -17 8 C-18.1447 7.7216 -18.1447 7.7216 -19.3125 7.4375 C-19.8694 7.2931 -20.4262 7.1488 -21 7 C-20.34 6.67 -19.68 6.34 -19 6 C-19 4.68 -19 3.36 -19 2 C-12.5699 0.2604 -6.6505 -0.2499 0 0 Z " fill="#2E3135" transform="translate(329,407)"/>
<path d="M0 0 C0 0.66 0 1.32 0 2 C-1.9987 2.4844 -3.9991 2.9623 -6 3.4375 C-7.1137 3.7043 -8.2275 3.9712 -9.375 4.2461 C-17.915 6.0222 -26.1857 6.1604 -34.8867 6.168 C-36.2342 6.1712 -37.5817 6.1746 -38.9292 6.1781 C-41.7457 6.184 -44.5621 6.1859 -47.3787 6.1853 C-50.951 6.1852 -54.5231 6.1988 -58.0954 6.2161 C-60.8779 6.2273 -63.6603 6.2292 -66.4428 6.2287 C-68.3884 6.2304 -70.3339 6.2412 -72.2795 6.2522 C-91.5934 6.2033 -91.5934 6.2033 -98 3 C-98 2.34 -98 1.68 -98 1 C-96.1128 1.1856 -96.1128 1.1856 -94.1875 1.375 C-92.7837 1.5084 -92.7837 1.5084 -91.3516 1.6445 C-89.0084 1.8931 -86.6696 2.1858 -84.3359 2.5117 C-58.7886 5.9354 -32.9969 4.7601 -7.6743 0.3672 C-5.0775 0.0106 -2.6172 -0.0666 0 0 Z " fill="#F5F8F1" transform="translate(317,552)"/>
<path d="M0 0 C4.3938 1.5962 8.29 3.7802 12.3125 6.125 C12.9577 6.4975 13.6029 6.8701 14.2676 7.2539 C15.8468 8.1663 17.4236 9.0828 19 10 C19 10.66 19 11.32 19 12 C16.69 12.33 14.38 12.66 12 13 C12 13.66 12 14.32 12 15 C7.7459 14.4266 4.9013 12.9457 1.3125 10.625 C0.3599 10.0191 -0.5927 9.4133 -1.5742 8.7891 C-4 7 -4 7 -6 4 C-5.1956 3.5256 -4.3913 3.0512 -3.5625 2.5625 C-1.1525 1.231 -1.1525 1.231 0 0 Z " fill="#21272B" transform="translate(143,384)"/>
<path d="M0 0 C6.0943 2.4829 9.9578 8.0339 14 13 C13.67 13.66 13.34 14.32 13 15 C11.68 15 10.36 15 9 15 C7.2103 17.4267 7.2103 17.4267 6 20 C2.0806 16.1959 -1.491 12.1842 -5 8 C-4.34 7.01 -3.68 6.02 -3 5 C-2.34 5 -1.68 5 -1 5 C-0.67 3.35 -0.34 1.7 0 0 Z " fill="#24282B" transform="translate(371,237)"/>
<path d="M0 0 C2 1 2 1 3 2 C3.2425 6.2204 3.2285 10.4465 3.2402 14.6731 C3.2499 16.7935 3.2809 18.913 3.3125 21.0332 C3.319 22.3828 3.3243 23.7324 3.3281 25.082 C3.3375 26.3116 3.3468 27.5411 3.3564 28.8079 C2.9692 32.2756 2.2205 33.4173 0 36 C-0.7205 39.1512 -0.7205 39.1512 -1 42 C-1.33 42 -1.66 42 -2 42 C-2 28.47 -2 14.94 -2 1 C-1.34 0.67 -0.68 0.34 0 0 Z " fill="#79A65F" transform="translate(271,120)"/>
<path d="M0 0 C5.2577 1.5815 10.0201 3.8519 14.9375 6.25 C26.0065 11.5597 36.8893 16.6176 49 19 C49.6097 19.312 50.2195 19.6239 50.8477 19.9453 C53.5787 21.2836 56.2948 21.9183 59.25 22.625 C60.3277 22.8854 61.4053 23.1458 62.5156 23.4141 C63.7454 23.7041 63.7454 23.7041 65 24 C65 24.66 65 25.32 65 26 C61.0986 27.3005 58.6682 26.1459 54.9375 24.875 C47.9986 22.5905 41.0221 20.5871 33.9412 18.7886 C29.9431 17.727 27.2058 16.5572 24 14 C21.2566 12.5633 18.4411 11.2871 15.625 10 C13.4219 8.9826 11.2197 7.9634 9.0205 6.9375 C7.1945 6.0903 5.3595 5.2627 3.5234 4.4375 C1 3 1 3 0 0 Z " fill="#F0F5EC" transform="translate(143,526)"/>
<path d="M0 0 C2.5871 3.8806 4.5118 8.0041 6.5625 12.1875 C7.9815 15.0971 7.9815 15.0971 10 18 C8.35 18.33 6.7 18.66 5 19 C5 19.66 5 20.32 5 21 C4.34 21 3.68 21 3 21 C3 21.66 3 22.32 3 23 C2.01 23.33 1.02 23.66 0 24 C-0.9834 22.5654 -1.9616 21.1272 -2.9375 19.6875 C-3.4828 18.887 -4.028 18.0865 -4.5898 17.2617 C-6 15 -6 15 -7 12 C-6.3761 11.7757 -5.7522 11.5514 -5.1094 11.3203 C-2.2767 9.5473 -2.0674 8.063 -1.25 4.875 C-1.0077 3.9649 -0.7653 3.0548 -0.5156 2.1172 C-0.3455 1.4185 -0.1753 0.7198 0 0 Z " fill="#303438" transform="translate(293,293)"/>
<path d="M0 0 C6.93 2.475 6.93 2.475 14 5 C14 5.99 14 6.98 14 8 C12.68 8.33 11.36 8.66 10 9 C10.33 9.99 10.66 10.98 11 12 C12.98 11.34 14.96 10.68 17 10 C17.99 10.99 18.98 11.98 20 13 C17 15 17 15 13.3125 14.5625 C5.8845 12.724 -1.071 9.1797 -8 6 C-7.67 5.01 -7.34 4.02 -7 3 C-3.535 2.505 -3.535 2.505 0 2 C0 1.34 0 0.68 0 0 Z " fill="#2E3437" transform="translate(162,394)"/>
<path d="M0 0 C2.31 0.33 4.62 0.66 7 1 C8.25 3.625 8.25 3.625 9 7 C7.3125 10.375 7.3125 10.375 5 13 C4.01 13 3.02 13 2 13 C1.9175 13.6187 1.835 14.2375 1.75 14.875 C1 17 1 17 -1.0625 18.25 C-1.7019 18.4975 -2.3413 18.745 -3 19 C-3.1237 18.0306 -3.2475 17.0612 -3.375 16.0625 C-3.5813 15.0519 -3.7875 14.0412 -4 13 C-4.66 12.67 -5.32 12.34 -6 12 C-5.543 6.9731 -3.0076 3.851 0 0 Z " fill="#202529" transform="translate(292,248)"/>
<path d="M0 0 C0.99 0.495 0.99 0.495 2 1 C-4.2879 6.7083 -10.4279 10.3651 -18.3047 13.5039 C-21.4303 14.7694 -24.4358 16.1338 -27.4651 17.6042 C-41.1006 24.2157 -57.6292 31.87 -73 31 C-70.1755 29.117 -68.5262 28.4897 -65.3125 27.6875 C-30.1798 18.6438 -30.1798 18.6438 0 0 Z " fill="#E8EFE2" transform="translate(396,520)"/>
<path d="M0 0 C1.1377 0.968 2.2828 1.9273 3.4375 2.875 C4.2831 3.5763 5.1287 4.2775 6 5 C2.6044 9.7296 2.6044 9.7296 0.1055 10.8477 C-2 11 -2 11 -3.9648 9.8125 C-8.2896 5.8388 -11.7855 1.9222 -15 -3 C-14.34 -3 -13.68 -3 -13 -3 C-12.67 -3.66 -12.34 -4.32 -12 -5 C-6.4844 -7.5956 -3.7792 -3.6135 0 0 Z " fill="#31383D" transform="translate(138,378)"/>
<path d="M0 0 C7.4961 1.5246 14.7136 3.6801 22 6 C18.9388 8.6239 18.2683 9 14 9 C14 9.66 14 10.32 14 11 C8.937 12.2385 5.5671 11.6011 0.625 10.0625 C-0.6202 9.6822 -1.8655 9.302 -3.1484 8.9102 C-4.0895 8.6098 -5.0305 8.3095 -6 8 C-5.34 7.67 -4.68 7.34 -4 7 C-3.67 6.01 -3.34 5.02 -3 4 C-0.9375 3.3125 -0.9375 3.3125 1 3 C0.67 2.01 0.34 1.02 0 0 Z " fill="#343A3E" transform="translate(217,409)"/>
<path d="M0 0 C2.9792 0.5958 4.6251 1.5123 6.4805 3.9258 C8.7186 7.6561 10.0163 10.0875 9.9375 14.5 C9 17 9 17 7 18 C6.505 15.525 6.505 15.525 6 13 C5.67 13.66 5.34 14.32 5 15 C4.34 15 3.68 15 3 15 C3 15.99 3 16.98 3 18 C2.01 18.33 1.02 18.66 0 19 C-5.3725 8.4929 -5.3725 8.4929 -4.4766 4.9023 C-3.375 3.3125 -3.375 3.3125 -1 1 C-0.67 0.67 -0.34 0.34 0 0 Z " fill="#313437" transform="translate(381,250)"/>
<path d="M0 0 C0.7709 0.1611 1.5417 0.3223 2.3359 0.4883 C4.2915 0.9324 6.2136 1.5185 8.125 2.125 C8.455 3.115 8.785 4.105 9.125 5.125 C8.0319 5.4137 6.9387 5.7025 5.8125 6 C2.0849 6.9439 2.0849 6.9439 -0.875 9.125 C-5.4692 8.8744 -8.4553 8.2711 -11.875 5.125 C-11.215 4.465 -10.555 3.805 -9.875 3.125 C-13.1648 2.0284 -14.588 2.3255 -17.875 3.125 C-18.535 1.805 -19.195 0.485 -19.875 -0.875 C-14.2168 -4.7226 -6.2434 -1.4101 0 0 Z " fill="#2A2E32" transform="translate(190.875,402.875)"/>
<path d="M0 0 C6.93 2.475 6.93 2.475 14 5 C14 6.32 14 7.64 14 9 C11.36 9 8.72 9 6 9 C5.67 10.65 5.34 12.3 5 14 C-4.8724 11.2155 -4.8724 11.2155 -8 7 C-8 6.34 -8 5.68 -8 5 C-5.36 5 -2.72 5 0 5 C0 3.35 0 1.7 0 0 Z " fill="#2F3537" transform="translate(315,321)"/>
<path d="M0 0 C2.1143 3.1715 3.0196 5.8643 4.125 9.5 C4.4782 10.6447 4.8314 11.7894 5.1953 12.9688 C6 16 6 16 6 19 C5.2163 19.2269 4.4325 19.4538 3.625 19.6875 C0.7812 20.7812 0.7812 20.7812 -0.3125 23.625 C-0.5394 24.4087 -0.7663 25.1925 -1 26 C-1.33 26 -1.66 26 -2 26 C-2.7506 23.0665 -3.4759 20.1305 -4.1875 17.1875 C-4.5114 15.9374 -4.5114 15.9374 -4.8418 14.6621 C-5.0319 13.8597 -5.2221 13.0572 -5.418 12.2305 C-5.6013 11.4921 -5.7845 10.7537 -5.9734 9.9929 C-6 8 -6 8 -4.5989 6.4231 C-4.0712 5.9535 -3.5436 5.4839 -3 5 C-2.67 4.01 -2.34 3.02 -2 2 C-1.34 2 -0.68 2 0 2 C0 1.34 0 0.68 0 0 Z " fill="#303638" transform="translate(422,274)"/>
<path d="M0 0 C5.61 0 11.22 0 17 0 C17 1.32 17 2.64 17 4 C17.99 4.33 18.98 4.66 20 5 C20 5.33 20 5.66 20 6 C-1.8259 8.4494 -1.8259 8.4494 -7 5 C-7 5.99 -7 6.98 -7 8 C-7.66 8 -8.32 8 -9 8 C-8.67 6.35 -8.34 4.7 -8 3 C-5.36 3 -2.72 3 0 3 C0 2.01 0 1.02 0 0 Z " fill="#1A1F23" transform="translate(329,327)"/>
<path d="M0 0 C3.9249 3.7006 7.0222 7.4907 10 12 C10 12.66 10 13.32 10 14 C7.03 14.66 4.06 15.32 1 16 C-0.0637 14.6209 -1.1003 13.2209 -2.125 11.8125 C-2.7051 11.0352 -3.2852 10.2579 -3.8828 9.457 C-5 7 -5 7 -4.3672 4.3242 C-3 2 -3 2 0 0 Z " fill="#23282C" transform="translate(121,359)"/>
<path d="M0 0 C0 3 0 3 -1.5 4.6875 C-1.995 5.1206 -2.49 5.5538 -3 6 C-2.1667 8.1667 -2.1667 8.1667 0 9 C0.7216 10.6436 1.3935 12.3105 2 14 C-0.3125 16.5 -0.3125 16.5 -3 19 C-3.99 19 -4.98 19 -6 19 C-6.33 17.68 -6.66 16.36 -7 15 C-9.31 14.67 -11.62 14.34 -14 14 C-10.1875 7.9738 -5.7766 4.1406 0 0 Z " fill="#292F32" transform="translate(306,234)"/>
<path d="M0 0 C0 0.99 0 1.98 0 3 C-0.99 3.66 -1.98 4.32 -3 5 C-4.1923 7.05 -4.1923 7.05 -5 9 C-5 6.36 -5 3.72 -5 1 C-20.51 1 -36.02 1 -52 1 C-49.6004 -1.3996 -49.0023 -1.2692 -45.7214 -1.3506 C-44.8368 -1.3769 -43.9521 -1.4032 -43.0407 -1.4304 C-41.6032 -1.4571 -41.6032 -1.4571 -40.1367 -1.4844 C-39.1526 -1.5085 -38.1685 -1.5326 -37.1545 -1.5574 C-35.069 -1.6058 -32.9834 -1.6492 -30.8977 -1.688 C-27.7106 -1.7496 -24.5245 -1.8327 -21.3379 -1.918 C-19.3125 -1.9622 -17.2871 -2.0053 -15.2617 -2.0469 C-14.3095 -2.0728 -13.3572 -2.0987 -12.3761 -2.1254 C-7.7992 -2.1956 -4.1456 -2.2239 0 0 Z " fill="#202529" transform="translate(295,346)"/>
<path d="M0 0 C1.5005 0.2475 1.5005 0.2475 3.0312 0.5 C6.8739 1.049 10.6165 1.0642 14.5 1 C19.4925 0.9175 24.0922 1.1905 29 2 C28.67 2.99 28.34 3.98 28 5 C23.7483 6.03 19.6027 6.1916 15.25 6.1875 C14.1914 6.1885 14.1914 6.1885 13.1113 6.1895 C7.7829 6.1356 3.1066 5.459 -2 4 C-1.34 3.67 -0.68 3.34 0 3 C0 2.01 0 1.02 0 0 Z " fill="#2E3336" transform="translate(322,332)"/>
<path d="M0 0 C2.375 0.375 2.375 0.375 4.375 2.375 C4.3125 4.75 4.3125 4.75 3.375 7.375 C0.8125 9.6875 0.8125 9.6875 -1.625 11.375 C-2.615 10.715 -3.605 10.055 -4.625 9.375 C-8.2644 9.6923 -8.2644 9.6923 -11.625 10.375 C-11.955 9.715 -12.285 9.055 -12.625 8.375 C-15.6543 7.7173 -15.6543 7.7173 -18.625 7.375 C-18.625 7.045 -18.625 6.715 -18.625 6.375 C-17.8052 6.277 -16.9853 6.1791 -16.1406 6.0781 C-15.063 5.9286 -13.9853 5.7791 -12.875 5.625 C-11.8077 5.4858 -10.7403 5.3466 -9.6406 5.2031 C-5.4853 4.062 -4.1063 0.5866 0 0 Z " fill="#333A3C" transform="translate(298.625,378.625)"/>
<path d="M0 0 C0 0.99 0 1.98 0 3 C3.3 3.99 6.6 4.98 10 6 C10 6.33 10 6.66 10 7 C7.5861 7.5584 5.1706 8.097 2.75 8.625 C2.0681 8.7848 1.3862 8.9447 0.6836 9.1094 C-4.4466 10.2052 -4.4466 10.2052 -7.2969 9.1484 C-7.8589 8.7695 -8.4209 8.3905 -9 8 C-11.6739 7.1087 -14.2372 6.5227 -17 6 C-14.1485 4.099 -11.7029 3.0373 -8.5 1.875 C-7.5409 1.5218 -6.5819 1.1686 -5.5938 0.8047 C-3 0 -3 0 0 0 Z " fill="#35383D" transform="translate(310,410)"/>
<path d="M0 0 C4.6906 0.5863 9.0897 2.3505 13 5 C13.33 5.99 13.66 6.98 14 8 C16.1808 9.7988 16.1808 9.7988 18.8125 11.5 C26.118 16.4207 26.118 16.4207 28 18 C28 18.66 28 19.32 28 20 C28.6394 20.2681 29.2788 20.5362 29.9375 20.8125 C32 22 32 22 33 25 C30.1658 23.676 27.7951 22.1858 25.3477 20.2422 C24.6592 19.7023 23.9708 19.1624 23.2615 18.6062 C22.5358 18.0349 21.8102 17.4636 21.0625 16.875 C13.9809 11.3669 6.7752 6.4758 -1 2 C-0.67 1.34 -0.34 0.68 0 0 Z " fill="#F3F8ED" transform="translate(397,36)"/>
<path d="M0 0 C10.7426 2.7062 10.7426 2.7062 14 7 C13.01 8.485 13.01 8.485 12 10 C11.01 10 10.02 10 9 10 C9 10.66 9 11.32 9 12 C9.66 12 10.32 12 11 12 C10.67 12.66 10.34 13.32 10 14 C5.3316 12.8549 5.3316 12.8549 3 11 C1.4723 7.4284 0.6802 3.8158 0 0 Z " fill="#23282A" transform="translate(326,164)"/>
<path d="M0 0 C0.8895 0.0032 1.7789 0.0064 2.6953 0.0098 C4.0759 0.0223 4.0759 0.0223 5.4844 0.0352 C6.4202 0.0397 7.3561 0.0442 8.3203 0.0488 C10.6251 0.0606 12.9297 0.077 15.2344 0.0977 C15.5644 1.0877 15.8944 2.0777 16.2344 3.0977 C12.4253 5.637 9.3309 5.3926 4.9219 5.3477 C4.1749 5.3554 3.4279 5.3631 2.6582 5.3711 C-1.8682 5.3552 -5.5046 4.8048 -9.7656 3.0977 C-8.7656 1.0977 -8.7656 1.0977 -7.001 0.4788 C-4.62 0.0728 -2.415 -0.0155 0 0 Z " fill="#373C3E" transform="translate(331.765625,315.90234375)"/>
<path d="M0 0 C3.96 0 7.92 0 12 0 C12 0.66 12 1.32 12 2 C13.2788 2.0619 14.5575 2.1237 15.875 2.1875 C21.5752 2.7856 26.0689 5.2102 31 8 C31 8.33 31 8.66 31 9 C25.9435 9.1932 21.8903 8.613 17.0625 7.125 C12.061 5.6197 7.078 4.2187 2 3 C2 2.34 2 1.68 2 1 C1.34 0.67 0.68 0.34 0 0 Z " fill="#F3F8ED" transform="translate(313,3)"/>
<path d="M0 0 C0 0.66 0 1.32 0 2 C0.99 2.33 1.98 2.66 3 3 C-1.9568 3.8026 -6.7137 4.1622 -11.75 4.1875 C-13.0442 4.2017 -14.3384 4.2159 -15.6719 4.2305 C-19 4 -19 4 -22 2 C-21.67 1.34 -21.34 0.68 -21 0 C-19.1094 -0.3789 -19.1094 -0.3789 -16.75 -0.5625 C-14.1684 -0.7824 -11.8877 -1.0294 -9.375 -1.6875 C-5.9479 -2.1384 -3.2369 -1.079 0 0 Z " fill="#373D3F" transform="translate(195,333)"/>
<path d="M0 0 C1.5043 0.0135 1.5043 0.0135 3.0391 0.0273 C3.8099 0.0389 4.5808 0.0505 5.375 0.0625 C4.385 0.5575 4.385 0.5575 3.375 1.0625 C4.035 2.0525 4.695 3.0425 5.375 4.0625 C6.035 4.0625 6.695 4.0625 7.375 4.0625 C7.375 5.3825 7.375 6.7025 7.375 8.0625 C4.0898 9.1576 1.6384 9.1621 -1.8125 9.125 C-3.4425 9.1115 -3.4425 9.1115 -5.1055 9.0977 C-5.9369 9.0861 -6.7684 9.0745 -7.625 9.0625 C-7.625 8.7325 -7.625 8.4025 -7.625 8.0625 C-5.645 8.0625 -3.665 8.0625 -1.625 8.0625 C-1.295 7.0725 -0.965 6.0825 -0.625 5.0625 C-3.265 4.7325 -5.905 4.4025 -8.625 4.0625 C-8.295 3.0725 -7.965 2.0825 -7.625 1.0625 C-4.9804 -0.2598 -2.9474 -0.0343 0 0 Z " fill="#2D3135" transform="translate(247.625,384.9375)"/>
<path d="M0 0 C0.66 0.66 1.32 1.32 2 2 C2.99 1.67 3.98 1.34 5 1 C5.33 2.98 5.66 4.96 6 7 C6.66 7 7.32 7 8 7 C7.01 9.97 6.02 12.94 5 16 C-0.1303 13.4348 -0.1303 13.4348 -2 10 C-1.8555 7.4219 -1.8555 7.4219 -1.1875 4.75 C-0.9748 3.858 -0.7621 2.9659 -0.543 2.0469 C-0.3638 1.3714 -0.1846 0.6959 0 0 Z " fill="#2F3436" transform="translate(420,330)"/>
<path d="M0 0 C0.33 0.66 0.66 1.32 1 2 C2.32 2 3.64 2 5 2 C4.5034 7.661 3.4549 11.8767 1 17 C0.34 16.67 -0.32 16.34 -1 16 C-1.5977 14.0391 -1.5977 14.0391 -2.0625 11.625 C-2.5841 8.9782 -3.1439 6.5682 -4 4 C-2.68 2.68 -1.36 1.36 0 0 Z " fill="#202529" transform="translate(114,265)"/>
<path d="M0 0 C-0.99 1.485 -0.99 1.485 -2 3 C-4.3984 3.3723 -4.3984 3.3723 -7.375 3.3633 C-8.4423 3.3626 -9.5097 3.362 -10.6094 3.3613 C-11.7283 3.3452 -12.8472 3.3291 -14 3.3125 C-15.6784 3.3173 -15.6784 3.3173 -17.3906 3.3223 C-25.7331 3.2669 -25.7331 3.2669 -28 1 C-18.6494 -1.4935 -9.5242 -1.7317 0 0 Z " fill="#353A3C" transform="translate(393,150)"/>
<path d="M0 0 C2.475 0.99 2.475 0.99 5 2 C5 4.64 5 7.28 5 10 C4.34 10 3.68 10 3 10 C1.2888 14.5215 0.6478 18.5562 0.375 23.375 C0.3002 24.6202 0.2255 25.8655 0.1484 27.1484 C0.0995 28.0895 0.0505 29.0305 0 30 C-0.33 30 -0.66 30 -1 30 C-1 22.41 -1 14.82 -1 7 C-1.99 7.495 -1.99 7.495 -3 8 C-2.4528 4.6254 -1.9451 2.9177 0 0 Z " fill="#181B1F" transform="translate(424,292)"/>
<path d="M0 0 C-10.3736 5.7403 -10.3736 5.7403 -16 5 C-15.01 4.34 -14.02 3.68 -13 3 C-14.0164 1.7608 -14.0164 1.7608 -16.1331 1.8865 C-17.5077 1.8943 -17.5077 1.8943 -18.9102 1.9023 C-20.3942 1.9072 -20.3942 1.9072 -21.9082 1.9121 C-23.4696 1.9247 -23.4696 1.9247 -25.0625 1.9375 C-26.6297 1.9443 -26.6297 1.9443 -28.2285 1.9512 C-30.8191 1.963 -33.4095 1.9795 -36 2 C-35.67 1.34 -35.34 0.68 -35 0 C-30.3371 -0.1675 -25.6741 -0.3281 -21.0107 -0.4822 C-19.4238 -0.5356 -17.8368 -0.5909 -16.25 -0.6482 C-13.9715 -0.7301 -11.6928 -0.8052 -9.4141 -0.8789 C-8.7026 -0.9059 -7.991 -0.933 -7.258 -0.9608 C-2.2277 -1.1139 -2.2277 -1.1139 0 0 Z " fill="#1F2427" transform="translate(360,315)"/>
<path d="M0 0 C2.3856 0.5758 4.6668 1.2223 7 2 C8.5612 2.0674 10.125 2.0851 11.6875 2.0625 C12.4957 2.0535 13.304 2.0445 14.1367 2.0352 C14.7516 2.0236 15.3665 2.012 16 2 C16 2.99 16 3.98 16 5 C14.1274 5.509 12.2518 6.0068 10.375 6.5 C9.3309 6.7784 8.2867 7.0569 7.2109 7.3438 C4.0431 7.9912 1.2226 8.1161 -2 8 C-2 7.34 -2 6.68 -2 6 C-1.34 6 -0.68 6 0 6 C-0.1856 5.3813 -0.3712 4.7625 -0.5625 4.125 C-1 2 -1 2 0 0 Z " fill="#1E2125" transform="translate(325,407)"/>
<path d="M0 0 C3.96 0 7.92 0 12 0 C12.33 0.66 12.66 1.32 13 2 C13.99 2.66 14.98 3.32 16 4 C9.6106 7.0718 9.6106 7.0718 6.875 6.75 C6.2563 6.5025 5.6375 6.255 5 6 C3.3348 5.6594 1.6684 5.3244 0 5 C-0.33 4.01 -0.66 3.02 -1 2 C-0.67 1.34 -0.34 0.68 0 0 Z " fill="#23282B" transform="translate(289,416)"/>
<path d="M0 0 C0 0.66 0 1.32 0 2 C-11.0608 4.9657 -22.6031 7.2968 -34 5 C-34 4.67 -34 4.34 -34 4 C-29.9621 3.4259 -25.9236 2.8564 -21.8845 2.291 C-20.512 2.0982 -19.1396 1.9042 -17.7673 1.709 C-15.7894 1.4277 -13.8107 1.1513 -11.832 0.875 C-10.6433 0.7074 -9.4545 0.5398 -8.2297 0.3672 C-5.4449 0.0506 -2.7977 -0.0738 0 0 Z " fill="#EAF1E2" transform="translate(317,552)"/>
<path d="M0 0 C0.33 0.66 0.66 1.32 1 2 C-4.94 2.495 -4.94 2.495 -11 3 C-11 3.33 -11 3.66 -11 4 C-15.8424 5.3358 -19.9344 6.2533 -25 6 C-25.33 5.01 -25.66 4.02 -26 3 C-17.1409 -0.0942 -9.2724 -0.3379 0 0 Z " fill="#393E40" transform="translate(158,149)"/>
<path d="M0 0 C2.31 0.33 4.62 0.66 7 1 C7 1.66 7 2.32 7 3 C2.4138 5.2931 -3.9645 4.2302 -9 4.25 C-10.9645 4.2809 -10.9645 4.2809 -12.9688 4.3125 C-14.2166 4.3177 -15.4644 4.3228 -16.75 4.3281 C-18.4748 4.3421 -18.4748 4.3421 -20.2344 4.3564 C-21.147 4.2388 -22.0597 4.1212 -23 4 C-23.66 3.01 -24.32 2.02 -25 1 C-16.75 1 -8.5 1 0 1 C0 0.67 0 0.34 0 0 Z " fill="#1D2325" transform="translate(390,151)"/>
<path d="M0 0 C0.8353 1.0209 0.8353 1.0209 1.6875 2.0625 C1.0275 2.0625 0.3675 2.0625 -0.3125 2.0625 C0.3475 3.7125 1.0075 5.3625 1.6875 7.0625 C0.3675 7.0625 -0.9525 7.0625 -2.3125 7.0625 C-2.3125 7.7225 -2.3125 8.3825 -2.3125 9.0625 C-5.6625 7.9458 -6.1059 7.3156 -8 4.5 C-8.437 3.8593 -8.874 3.2187 -9.3242 2.5586 C-9.6504 2.0649 -9.9765 1.5712 -10.3125 1.0625 C-9.6525 1.0625 -8.9925 1.0625 -8.3125 1.0625 C-7.9825 0.4025 -7.6525 -0.2575 -7.3125 -0.9375 C-3.8571 -2.245 -2.9024 -2.4317 0 0 Z " fill="#2C3236" transform="translate(133.3125,373.9375)"/>
<path d="M0 0 C3.0207 1.4618 5.8918 3.0886 8.7656 4.8203 C10.0998 5.6228 10.0998 5.6228 11.4609 6.4414 C12.8415 7.2748 12.8415 7.2748 14.25 8.125 C15.6538 8.97 15.6538 8.97 17.0859 9.832 C19.3914 11.22 21.6961 12.6094 24 14 C23.01 14.66 22.02 15.32 21 16 C20.1131 15.4019 19.2262 14.8038 18.3125 14.1875 C13.168 10.7119 13.168 10.7119 7.5625 8.125 C4.1249 6.6158 1.8101 4.4833 -1 2 C-0.67 1.34 -0.34 0.68 0 0 Z " fill="#F1F6EC" transform="translate(119,511)"/>
<path d="M0 0 C-0.33 0.66 -0.66 1.32 -1 2 C-0.3606 2.2887 0.2788 2.5775 0.9375 2.875 C3 4 3 4 4 6 C2.68 6.33 1.36 6.66 0 7 C0 6.01 0 5.02 0 4 C-0.6033 4.0838 -1.2066 4.1676 -1.8281 4.2539 C-2.6273 4.3557 -3.4266 4.4576 -4.25 4.5625 C-5.0389 4.6669 -5.8278 4.7713 -6.6406 4.8789 C-9.0748 5.0038 -10.7318 4.8869 -13 4 C-13.66 3.01 -14.32 2.02 -15 1 C-13.2522 0.6354 -11.5016 0.2837 -9.75 -0.0625 C-8.2882 -0.3583 -8.2882 -0.3583 -6.7969 -0.6602 C-4.1319 -0.984 -2.5113 -0.855 0 0 Z " fill="#282C30" transform="translate(341,405)"/>
<path d="M0 0 C0.33 0 0.66 0 1 0 C1.098 0.6639 1.1959 1.3277 1.2969 2.0117 C2.2077 7.3902 3.0213 11.0213 7 15 C7.5775 15.5981 8.155 16.1963 8.75 16.8125 C9.1625 17.2044 9.575 17.5962 10 18 C7.625 18.125 7.625 18.125 5 18 C4.34 17.34 3.68 16.68 3 16 C2.67 16.66 2.34 17.32 2 18 C1.01 18 0.02 18 -1 18 C-1.0995 11.8891 -1.0713 6.026 0 0 Z " fill="#1D2426" transform="translate(306,280)"/>
<path d="M0 0 C0.33 0 0.66 0 1 0 C1 7.26 1 14.52 1 22 C1.66 22 2.32 22 3 22 C2.7444 24.3431 2.4073 26.6784 2 29 C1.34 29.33 0.68 29.66 0 30 C-0.9953 24.2177 -1.1507 18.6104 -1.125 12.75 C-1.1289 11.8528 -1.1327 10.9556 -1.1367 10.0312 C-1.1354 9.1702 -1.1341 8.3091 -1.1328 7.4219 C-1.1317 6.6442 -1.1306 5.8666 -1.1294 5.0654 C-1 3 -1 3 0 0 Z " fill="#1F2329" transform="translate(235,256)"/>
<path d="M0 0 C0.33 1.32 0.66 2.64 1 4 C0.34 4 -0.32 4 -1 4 C-1.33 4.99 -1.66 5.98 -2 7 C-5.3 7.66 -8.6 8.32 -12 9 C-12.495 6.525 -12.495 6.525 -13 4 C-6.565 2.02 -6.565 2.02 0 0 Z " fill="#252B2E" transform="translate(358,322)"/>
<path d="M0 0 C0.66 0.33 1.32 0.66 2 1 C-5.0402 7.3914 -14.9955 15 -25 15 C-22.6572 12.3895 -20.2614 10.9284 -17.1484 9.3359 C-16.2152 8.8538 -15.2819 8.3717 -14.3203 7.875 C-13.3484 7.38 -12.3764 6.885 -11.375 6.375 C-9.4445 5.3844 -7.5148 4.3922 -5.5859 3.3984 C-4.7305 2.9619 -3.875 2.5254 -2.9937 2.0757 C-1.0595 1.1551 -1.0595 1.1551 0 0 Z " fill="#EDF2EA" transform="translate(396,520)"/>
<path d="M0 0 C1.2566 2.906 2 4.796 2 8 C3.98 7.67 5.96 7.34 8 7 C8.9307 9.6058 9.1492 10.642 8.0625 13.25 C7.7119 13.8275 7.3612 14.405 7 15 C2.386 11.743 -1.0036 7.7571 -4 3 C-4 2.34 -4 1.68 -4 1 C-2 0 -2 0 0 0 Z " fill="#23282D" transform="translate(378,203)"/>
<path d="M0 0 C2.3828 -0.293 2.3828 -0.293 5.125 -0.1875 C6.0351 -0.1604 6.9452 -0.1334 7.8828 -0.1055 C8.5815 -0.0707 9.2802 -0.0359 10 0 C9.67 0.66 9.34 1.32 9 2 C11.31 2.33 13.62 2.66 16 3 C15.67 3.66 15.34 4.32 15 5 C13.1045 5.0544 11.2085 5.093 9.3125 5.125 C8.2568 5.1482 7.201 5.1714 6.1133 5.1953 C2.9775 4.9986 0.8235 4.3306 -2 3 C-1.34 2.01 -0.68 1.02 0 0 Z " fill="#33393C" transform="translate(275,389)"/>
<path d="M0 0 C2.4936 1.2038 4.6814 2.4543 7 4 C6 7 6 7 3.6875 8.1875 C1 9 1 9 -3 9 C-3.33 8.01 -3.66 7.02 -4 6 C-3.34 5.67 -2.68 5.34 -2 5 C-1.2784 3.3564 -0.6065 1.6895 0 0 Z " fill="#272D30" transform="translate(359,398)"/>
<path d="M0 0 C1.4541 0.0309 1.4541 0.0309 2.9375 0.0625 C3.5625 2.375 3.5625 2.375 3.9375 5.0625 C2.9475 6.5475 2.9475 6.5475 1.9375 8.0625 C-2.9375 7.1875 -2.9375 7.1875 -4.0625 6.0625 C-4.1875 3.5625 -4.1875 3.5625 -4.0625 1.0625 C-3.0625 0.0625 -3.0625 0.0625 0 0 Z " fill="#EBF0E8" transform="translate(234.0625,143.9375)"/>
<path d="M0 0 C-0.99 0.33 -1.98 0.66 -3 1 C-3 1.66 -3 2.32 -3 3 C-4.4364 3.1957 -5.8742 3.3813 -7.3125 3.5625 C-8.113 3.6669 -8.9135 3.7713 -9.7383 3.8789 C-12 4 -12 4 -15 3 C-16.3336 2.856 -17.6722 2.7541 -19.0117 2.6836 C-20.1477 2.6208 -20.1477 2.6208 -21.3066 2.5566 C-22.4852 2.4977 -22.4852 2.4977 -23.6875 2.4375 C-24.4848 2.3943 -25.2821 2.3511 -26.1035 2.3066 C-28.0688 2.2007 -30.0344 2.0999 -32 2 C-32 1.67 -32 1.34 -32 1 C-28.1668 0.8305 -24.3334 0.6649 -20.5 0.5 C-18.8835 0.4285 -18.8835 0.4285 -17.2344 0.3555 C-11.4831 0.11 -5.7564 -0.0559 0 0 Z " fill="#8AAD76" transform="translate(289,525)"/>
<path d="M0 0 C3.8565 -0.2204 6.4922 0.3964 10 2 C10 4.64 10 7.28 10 10 C6.0198 7.8393 3.0275 5.3735 0 2 C0 1.34 0 0.68 0 0 Z " fill="#24272A" transform="translate(408,361)"/>
<path d="M0 0 C1.9995 -0.0425 4.0004 -0.0408 6 0 C7 1 7 1 7.125 3.5 C7 6 7 6 6 7 C3.5625 7.1875 3.5625 7.1875 1 7 C0.34 6.34 -0.32 5.68 -1 5 C-0.625 2.375 -0.625 2.375 0 0 Z " fill="#EEF3ED" transform="translate(294,144)"/>
<path d="M0 0 C0.33 0 0.66 0 1 0 C3.4648 9.6539 4.4085 18.0456 4 28 C3.67 28 3.34 28 3 28 C2.4911 25.0221 1.9927 22.0431 1.5 19.0625 C1.3569 18.2317 1.2138 17.4009 1.0664 16.5449 C0.1527 10.954 -0.1372 5.6651 0 0 Z " fill="#E7F1DF" transform="translate(33,299)"/>
<path d="M0 0 C0.33 0 0.66 0 1 0 C1.33 2.31 1.66 4.62 2 7 C2.66 6.67 3.32 6.34 4 6 C3.25 12.625 3.25 12.625 1 16 C0.34 16 -0.32 16 -1 16 C-1.0269 13.5208 -1.0468 11.0418 -1.0625 8.5625 C-1.0751 7.5019 -1.0751 7.5019 -1.0879 6.4199 C-1.0965 4.6131 -1.0522 2.8061 -1 1 C-0.67 0.67 -0.34 0.34 0 0 Z " fill="#26272F" transform="translate(427,211)"/>
<path d="M0 0 C0.66 0.33 1.32 0.66 2 1 C2 6.28 2 11.56 2 17 C1.01 16.67 0.02 16.34 -1 16 C-1.2213 13.7095 -1.4267 11.4176 -1.625 9.125 C-1.741 7.8488 -1.857 6.5727 -1.9766 5.2578 C-1.9882 3.6452 -1.9882 3.6452 -2 2 C-1.34 1.34 -0.68 0.68 0 0 Z " fill="#73A35C" transform="translate(260,145)"/>
<path d="M0 0 C0.99 0.33 1.98 0.66 3 1 C1.4062 3.6314 -0.2018 6.2539 -1.8125 8.875 C-2.2643 9.6214 -2.7161 10.3677 -3.1816 11.1367 C-3.8439 12.2099 -3.8439 12.2099 -4.5195 13.3047 C-4.9228 13.9645 -5.326 14.6244 -5.7415 15.3042 C-7 17 -7 17 -10 19 C-9.4787 14.0427 -7.148 10.7179 -4.4375 6.6875 C-4.0128 6.0423 -3.588 5.3971 -3.1504 4.7324 C-2.1073 3.1503 -1.0546 1.5745 0 0 Z " fill="#F1F5EB" transform="translate(490,426)"/>
<path d="M0 0 C3.7959 0.5643 5.5871 2.1825 8.25 4.875 C8.9564 5.5737 9.6628 6.2723 10.3906 6.9922 C12 9 12 9 12 12 C9.5064 10.7962 7.3186 9.5457 5 8 C5 7.34 5 6.68 5 6 C4.34 6 3.68 6 3 6 C0 2.5385 0 2.5385 0 0 Z " fill="#F7FCF3" transform="translate(74,474)"/>
<path d="M0 0 C0.33 0.99 0.66 1.98 1 3 C-0.375 4.5 -0.375 4.5 -2 6 C-2.66 6 -3.32 6 -4 6 C-4 6.66 -4 7.32 -4 8 C-3.34 8.33 -2.68 8.66 -2 9 C-4.31 9.33 -6.62 9.66 -9 10 C-9.33 9.34 -9.66 8.68 -10 8 C-13.0293 7.3423 -13.0293 7.3423 -16 7 C-16 6.67 -16 6.34 -16 6 C-15.1802 5.902 -14.3603 5.8041 -13.5156 5.7031 C-12.438 5.5536 -11.3603 5.4041 -10.25 5.25 C-9.1827 5.1108 -8.1153 4.9716 -7.0156 4.8281 C-3.6003 3.8902 -2.2449 2.6808 0 0 Z " fill="#3D4244" transform="translate(296,379)"/>
<path d="M0 0 C5.61 0 11.22 0 17 0 C13.0962 3.9038 11.3382 3.5624 6 4 C6 3.34 6 2.68 6 2 C4.35 2 2.7 2 1 2 C0.67 1.34 0.34 0.68 0 0 Z " fill="#1D2325" transform="translate(189,331)"/>
<path d="M0 0 C0.66 0.99 1.32 1.98 2 3 C-1.5268 5.3512 -3.0288 5.2144 -7.1875 5.125 C-8.2742 5.107 -9.3609 5.0889 -10.4805 5.0703 C-11.7276 5.0355 -11.7276 5.0355 -13 5 C-12.3516 3.0469 -12.3516 3.0469 -11 1 C-8.3984 0.3906 -8.3984 0.3906 -5.375 0.25 C-4.3721 0.1933 -3.3692 0.1366 -2.3359 0.0781 C-1.1796 0.0395 -1.1796 0.0395 0 0 Z " fill="#2C3133" transform="translate(346,316)"/>
<path d="M0 0 C0.4022 0.5092 0.8044 1.0184 1.2188 1.543 C-0.6562 3.168 -0.6562 3.168 -3.7812 4.543 C-7.2064 4.2135 -10.4632 3.4385 -13.7812 2.543 C-11.0503 0.7223 -9.3899 -0.0079 -6.2812 -0.7695 C-5.5078 -0.9719 -4.7344 -1.1743 -3.9375 -1.3828 C-1.7812 -1.457 -1.7812 -1.457 0 0 Z " fill="#2B3033" transform="translate(295.78125,388.45703125)"/>
<path d="M0 0 C2.4582 4.3092 2.5983 8.1335 2 13 C0.625 15.5625 0.625 15.5625 -1 17 C-1.66 17 -2.32 17 -3 17 C-2.6919 14.541 -2.3787 12.0829 -2.0625 9.625 C-1.9755 8.9263 -1.8885 8.2277 -1.7988 7.5078 C-1.1133 2.2266 -1.1133 2.2266 0 0 Z " fill="#1A2023" transform="translate(291,285)"/>
<path d="M0 0 C3.7388 2.6565 5.6498 4.5811 7 9 C5.68 8.67 4.36 8.34 3 8 C1.68 9.98 0.36 11.96 -1 14 C-1.66 13.67 -2.32 13.34 -3 13 C-2.6906 12.2781 -2.3813 11.5563 -2.0625 10.8125 C-0.6724 7.1329 0 3.932 0 0 Z " fill="#1C2023" transform="translate(378,243)"/>
<path d="M0 0 C2.31 0 4.62 0 7 0 C7 1.32 7 2.64 7 4 C3.7148 5.0951 1.2634 5.0996 -2.1875 5.0625 C-3.8175 5.049 -3.8175 5.049 -5.4805 5.0352 C-6.3119 5.0236 -7.1434 5.012 -8 5 C-8 4.67 -8 4.34 -8 4 C-6.02 4 -4.04 4 -2 4 C-1.34 2.68 -0.68 1.36 0 0 Z " fill="#3C4043" transform="translate(248,389)"/>
<path d="M0 0 C0.66 0.99 1.32 1.98 2 3 C3.32 2.67 4.64 2.34 6 2 C1.375 6.875 1.375 6.875 -2 8 C-4.6875 6.5625 -4.6875 6.5625 -7 5 C-4.7028 3.2573 -2.4013 1.6009 0 0 Z " fill="#E9E9EA" transform="translate(362,313)"/>
<path d="M0 0 C0.66 0 1.32 0 2 0 C2 0.66 2 1.32 2 2 C0.35 2.66 -1.3 3.32 -3 4 C-3 4.66 -3 5.32 -3 6 C-4.65 6.66 -6.3 7.32 -8 8 C-8 8.66 -8 9.32 -8 10 C-11.2279 12.1519 -12.284 12.2009 -16 12 C-13.3357 9.0376 -10.198 7.045 -6.875 4.875 C-3.262 2.6641 -3.262 2.6641 0 0 Z " fill="#EBF1E9" transform="translate(416,507)"/>
<path d="M0 0 C0.33 0.99 0.66 1.98 1 3 C-5.435 8.94 -5.435 8.94 -12 15 C-12.99 14.67 -13.98 14.34 -15 14 C-10.05 9.38 -5.1 4.76 0 0 Z " fill="#F3F7F3" transform="translate(446,482)"/>
<path d="M0 0 C1.3025 3.5986 0.6993 5.581 -0.75 9.0625 C-1.0955 9.9197 -1.4409 10.777 -1.7969 11.6602 C-2.9626 13.9274 -4.0965 15.3317 -6 17 C-5.5195 11.3538 -4.1726 4.1726 0 0 Z " fill="#EDF2E5" transform="translate(517,369)"/>
<path d="M0 0 C2.6257 -0.3861 4.3844 -0.3849 6.668 1.043 C8.3125 2.375 8.3125 2.375 11 5 C11 5.66 11 6.32 11 7 C11.6394 7.2681 12.2788 7.5363 12.9375 7.8125 C15 9 15 9 16 12 C12.2175 10.3199 9.0308 7.9216 5.75 5.4375 C5.1957 5.0256 4.6414 4.6138 4.0703 4.1895 C2.693 3.1531 1.3437 2.0796 0 1 C0 0.67 0 0.34 0 0 Z " fill="#EDF3E5" transform="translate(414,49)"/>
<path d="M0 0 C4 2 4 2 5 3 C5.0408 4.9996 5.0425 7.0005 5 9 C4.34 8.67 3.68 8.34 3 8 C2.67 8.99 2.34 9.98 2 11 C1.34 11 0.68 11 0 11 C0 7.37 0 3.74 0 0 Z " fill="#1F2429" transform="translate(426,356)"/>
<path d="M0 0 C6.3388 0.622 12.6709 1.2854 19 2 C19 2.33 19 2.66 19 3 C12.1016 3.9384 6.6607 4.1365 0 2 C0 1.34 0 0.68 0 0 Z " fill="#EEF4E9" transform="translate(219,553)"/>
<path d="M0 0 C0.66 0.66 1.32 1.32 2 2 C2.66 1.67 3.32 1.34 4 1 C4 3.97 4 6.94 4 10 C1.03 9.505 1.03 9.505 -2 9 C-1.34 6.03 -0.68 3.06 0 0 Z " fill="#383E41" transform="translate(420,330)"/>
<path d="M0 0 C1.32 0 2.64 0 4 0 C4.054 1.4579 4.0928 2.9164 4.125 4.375 C4.1482 5.1871 4.1714 5.9992 4.1953 6.8359 C4 9 4 9 2 11 C-1.0769 4.6 -1.0769 4.6 -0.6875 1.5625 C-0.4606 1.0469 -0.2337 0.5312 0 0 Z " fill="#202226" transform="translate(412,265)"/>
<path d="M0 0 C0.66 0 1.32 0 2 0 C0.4038 4.3938 -1.7802 8.29 -4.125 12.3125 C-4.4975 12.9577 -4.8701 13.6029 -5.2539 14.2676 C-6.1663 15.8468 -7.0828 17.4236 -8 19 C-8.7422 17.4492 -8.7422 17.4492 -9 15 C-7.8003 12.4645 -6.5803 10.1902 -5.125 7.8125 C-4.5585 6.8505 -4.5585 6.8505 -3.9805 5.8691 C-1.2235 1.2235 -1.2235 1.2235 0 0 Z " fill="#E8F0E3" transform="translate(43,125)"/>
<path d="M0 0 C0.33 0.99 0.66 1.98 1 3 C-2.4936 6.5963 -6.111 9.8345 -10 13 C-10.33 12.01 -10.66 11.02 -11 10 C-5.555 5.05 -5.555 5.05 0 0 Z " fill="#86A874" transform="translate(96,65)"/>
<path d="M0 0 C2.5625 0.375 2.5625 0.375 4.375 2.375 C4.7669 3.035 5.1587 3.695 5.5625 4.375 C4.2425 4.375 2.9225 4.375 1.5625 4.375 C-1.512 5.1514 -1.512 5.1514 -3.4375 7.375 C-4.0625 5 -4.0625 5 -4.4375 2.375 C-2.4375 0.375 -2.4375 0.375 0 0 Z " fill="#373B3E" transform="translate(232.4375,378.625)"/>
<path d="M0 0 C1.32 0.66 2.64 1.32 4 2 C3.25 5.375 3.25 5.375 2 9 C0.02 9.99 0.02 9.99 -2 11 C-1.34 7.37 -0.68 3.74 0 0 Z " fill="#88AC72" transform="translate(212,147)"/>
<path d="M0 0 C2.0625 0.4375 2.0625 0.4375 4 1 C5.0327 3.7882 5.0451 4.8677 4.0625 7.75 C3.7119 8.4925 3.3612 9.235 3 10 C0 8 0 8 -0.75 4.4375 C-0.8325 3.3031 -0.915 2.1687 -1 1 C-0.67 0.67 -0.34 0.34 0 0 Z " fill="#1F2125" transform="translate(102,219)"/>
<path d="M0 0 C4.875 4.625 4.875 4.625 6 8 C3.69 8 1.38 8 -1 8 C-1.33 7.34 -1.66 6.68 -2 6 C-1.67 5.67 -1.34 5.34 -1 5 C-1.66 4.34 -2.32 3.68 -3 3 C-2.01 2.01 -1.02 1.02 0 0 Z " fill="#FDFEFA" transform="translate(506,94)"/>
<path d="M0 0 C0 0.66 0 1.32 0 2 C-6.3823 4.0093 -11.4061 3.9999 -18 3 C-18 2.67 -18 2.34 -18 2 C-15.9383 1.6619 -13.8756 1.3297 -11.8125 1 C-10.6639 0.8144 -9.5154 0.6287 -8.332 0.4375 C-5.4958 0.0651 -2.8528 -0.086 0 0 Z " fill="#E2E9DA" transform="translate(317,552)"/>
<path d="M0 0 C-13.4487 5.7403 -13.4487 5.7403 -21 5 C-18.0226 3.0151 -15.9247 2.3167 -12.5 1.4375 C-3.1682 -0.9832 -3.1682 -0.9832 0 0 Z " fill="#E0E8DB" transform="translate(344,546)"/>
<path d="M0 0 C0.7792 0.009 1.5585 0.018 2.3613 0.0273 C4.2619 0.0507 6.1622 0.0865 8.0625 0.125 C8.0625 0.455 8.0625 0.785 8.0625 1.125 C7.2285 1.174 6.3945 1.223 5.5352 1.2734 C0.2017 1.6278 -4.9325 1.9974 -10.125 3.3125 C-11.3831 3.5806 -12.6413 3.8487 -13.9375 4.125 C-14.5975 3.465 -15.2575 2.805 -15.9375 2.125 C-10.4669 0.2797 -5.7493 -0.1281 0 0 Z " fill="#4D4F51" transform="translate(336.9375,224.875)"/>
<path d="M0 0 C2.97 0.495 2.97 0.495 6 1 C6 1.66 6 2.32 6 3 C7.32 3.33 8.64 3.66 10 4 C10 4.66 10 5.32 10 6 C10.6394 6.2475 11.2788 6.495 11.9375 6.75 C14 8 14 8 14.6289 10.0781 C14.8126 11.0295 14.8126 11.0295 15 12 C14.5875 11.6249 14.175 11.2498 13.75 10.8633 C9.8838 7.4372 5.9608 4.5937 1.5039 1.9805 C1.0076 1.6569 0.5113 1.3334 0 1 C0 0.67 0 0.34 0 0 Z " fill="#ECEFE7" transform="translate(297,124)"/>
<path d="M0 0 C0.66 0 1.32 0 2 0 C2 0.66 2 1.32 2 2 C3.98 1.34 5.96 0.68 8 0 C8.99 0.99 9.98 1.98 11 3 C8 5 8 5 5.7383 4.7578 C4.9378 4.549 4.1373 4.3402 3.3125 4.125 C2.5043 3.9213 1.696 3.7177 0.8633 3.5078 C0.2484 3.3402 -0.3665 3.1727 -1 3 C-0.67 2.01 -0.34 1.02 0 0 Z " fill="#3B3F43" transform="translate(171,404)"/>
<path d="M0 0 C0.66 0.33 1.32 0.66 2 1 C0.8494 6.398 -0.4242 11.7099 -2 17 C-2.33 17 -2.66 17 -3 17 C-3.4021 10.8338 -1.9682 5.8225 0 0 Z " fill="#F1F2EC" transform="translate(526,332)"/>
<path d="M0 0 C0.33 0 0.66 0 1 0 C0.67 6.93 0.34 13.86 0 21 C-0.33 21 -0.66 21 -1 21 C-1.2254 17.876 -1.4274 14.7509 -1.625 11.625 C-1.6895 10.7355 -1.7539 9.8461 -1.8203 8.9297 C-1.8719 8.0789 -1.9234 7.2281 -1.9766 6.3516 C-2.0551 5.1733 -2.0551 5.1733 -2.1353 3.9712 C-2 2 -2 2 0 0 Z " fill="#404244" transform="translate(423,298)"/>
<path d="M0 0 C0.99 0.33 1.98 0.66 3 1 C2.1875 3.4375 2.1875 3.4375 1 6 C-2.1335 7.0445 -2.9897 6.9342 -6 6 C-6 5.01 -6 4.02 -6 3 C-5.1956 2.6906 -4.3913 2.3813 -3.5625 2.0625 C-1.1092 1.2366 -1.1092 1.2366 0 0 Z " fill="#383D3F" transform="translate(327,284)"/>
<path d="M0 0 C1.5625 1.1875 1.5625 1.1875 3 3 C2.6875 5.6875 2.6875 5.6875 2 8 C1.67 7.34 1.34 6.68 1 6 C0.34 6 -0.32 6 -1 6 C-1.33 6.99 -1.66 7.98 -2 9 C-2.495 6.525 -2.495 6.525 -3 4 C-3.66 4 -4.32 4 -5 4 C-3.7446 1.4892 -2.4994 1.1287 0 0 Z " fill="#212628" transform="translate(213,277)"/>
<path d="M0 0 C-2.256 2.256 -4.046 2.9657 -7 4.125 C-7.8869 4.4782 -8.7738 4.8314 -9.6875 5.1953 C-12 6 -12 6 -14 6 C-14 5.01 -14 4.02 -14 3 C-9.0301 0.5657 -5.6539 -0.3462 0 0 Z " fill="#EBF4E6" transform="translate(181,15)"/>
<path d="M0 0 C0.33 0 0.66 0 1 0 C0.5077 6.4 0.5077 6.4 -2.0625 9.4375 C-3.0216 10.2109 -3.0216 10.2109 -4 11 C-5 8 -5 8 -4.25 5.375 C-3 3 -3 3 0 2 C0 1.34 0 0.68 0 0 Z " fill="#31353A" transform="translate(295,347)"/>
<path d="M0 0 C0.66 0.33 1.32 0.66 2 1 C1.6875 4.375 1.6875 4.375 1 8 C0.01 8.66 -0.98 9.32 -2 10 C-3.0625 8.1875 -3.0625 8.1875 -4 6 C-3.67 5.01 -3.34 4.02 -3 3 C-2.34 3 -1.68 3 -1 3 C-0.67 2.01 -0.34 1.02 0 0 Z " fill="#313838" transform="translate(215,280)"/>
<path d="M0 0 C1.991 2.9865 2.9412 5.5969 4 9 C3.01 9.33 2.02 9.66 1 10 C-3 5.25 -3 5.25 -3 3 C-1.5 1.375 -1.5 1.375 0 0 Z " fill="#303338" transform="translate(413,251)"/>
<path d="M0 0 C1.3613 0.1238 1.3613 0.1238 2.75 0.25 C2.09 1.9 1.43 3.55 0.75 5.25 C-1.89 4.92 -4.53 4.59 -7.25 4.25 C-4.8392 1.2829 -3.9032 0.3002 0 0 Z " fill="#1C2025" transform="translate(196.25,167.75)"/>
<path d="M0 0 C6.1578 -0.1955 12.1349 -0.1209 18 2 C18.33 2.66 18.66 3.32 19 4 C12.5603 3.3768 6.3243 2.3599 0 1 C0 0.67 0 0.34 0 0 Z " fill="#EBF0E1" transform="translate(211,519)"/>
<path d="M0 0 C11.5216 0.9636 11.5216 0.9636 17 2 C15 4 15 4 13.0469 4.0469 C8.4801 3.4566 4.3281 2.6646 0 1 C0 0.67 0 0.34 0 0 Z " fill="#EEF2E9" transform="translate(291,34)"/>
<path d="M0 0 C11.5216 1.9271 11.5216 1.9271 17 4 C17 4.33 17 4.66 17 5 C15.3754 5.054 13.7502 5.0928 12.125 5.125 C10.7676 5.1598 10.7676 5.1598 9.3828 5.1953 C7 5 7 5 5 3 C2.4294 2.3523 2.4294 2.3523 0 2 C0 1.34 0 0.68 0 0 Z " fill="#89A97A" transform="translate(324,8)"/>
<path d="M0 0 C4.2482 0.472 6.1999 2.9666 9 6 C5.5218 7.1594 3.541 6.7082 0 6 C0.1856 5.3813 0.3712 4.7625 0.5625 4.125 C1.2369 1.9584 1.2369 1.9584 0 0 Z " fill="#33383B" transform="translate(269,379)"/>
<path d="M0 0 C1.32 0.66 2.64 1.32 4 2 C1.7475 5.3788 1.6508 5.2698 -2 6 C-3.6744 6.6469 -5.343 7.3096 -7 8 C-6.0213 6.8537 -5.0421 5.708 -4.0625 4.5625 C-3.5172 3.9244 -2.972 3.2863 -2.4102 2.6289 C-1.632 1.7301 -0.8406 0.8406 0 0 Z " fill="#34383B" transform="translate(313,249)"/>
<path d="M0 0 C-0.33 0.66 -0.66 1.32 -1 2 C-2.958 2.0539 -4.9165 2.0927 -6.875 2.125 C-7.9655 2.1482 -9.0561 2.1714 -10.1797 2.1953 C-13 2 -13 2 -15 0 C-9.9627 -1.5112 -5.1183 -0.646 0 0 Z " fill="#2D3235" transform="translate(380,151)"/>
<path d="M0 0 C0 0.66 0 1.32 0 2 C-5.0089 1.3849 -10.0063 0.7282 -15 0 C-15 -0.33 -15 -0.66 -15 -1 C-10.0924 -2.3803 -4.6294 -2.3147 0 0 Z " fill="#E3EDDB" transform="translate(315,4)"/>
<path d="M0 0 C1.98 0 3.96 0 6 0 C5 3 5 3 2 5 C0.8077 7.05 0.8077 7.05 0 9 C0 7.68 0 6.36 0 5 C-0.66 5 -1.32 5 -2 5 C-1.34 3.35 -0.68 1.7 0 0 Z " fill="#323639" transform="translate(269,365)"/>
<path d="M0 0 C0.66 0 1.32 0 2 0 C3.0011 3.3107 3.1036 6.3008 3.0625 9.75 C3.0535 10.7348 3.0445 11.7197 3.0352 12.7344 C3.0236 13.482 3.012 14.2297 3 15 C0.7305 11.5957 0.6345 9.8348 0.375 5.8125 C0.3002 4.7258 0.2255 3.6391 0.1484 2.5195 C0.0995 1.6881 0.0505 0.8566 0 0 Z " fill="#F4F7F0" transform="translate(0,307)"/>
<path d="M0 0 C4.29 0.33 8.58 0.66 13 1 C13 1.66 13 2.32 13 3 C11.5834 3.0272 10.1667 3.0465 8.75 3.0625 C7.5666 3.0799 7.5666 3.0799 6.3594 3.0977 C4.0931 3.0039 2.1711 2.6324 0 2 C0 1.34 0 0.68 0 0 Z " fill="#F7FBF1" transform="translate(292,0)"/>
<path d="M0 0 C1.8479 3.3102 2.7454 6.5717 3.625 10.25 C3.8854 11.3277 4.1458 12.4053 4.4141 13.5156 C4.6074 14.3355 4.8008 15.1553 5 16 C3.0469 14.918 3.0469 14.918 1 13 C0.3906 9.8633 0.3906 9.8633 0.25 6.3125 C0.1933 5.133 0.1366 3.9535 0.0781 2.7383 C0.0395 1.3828 0.0395 1.3828 0 0 Z " fill="#E1EADB" transform="translate(10,353)"/>
<path d="M0 0 C0 0.66 0 1.32 0 2 C-2.5924 3.8598 -5.1441 5.5721 -8 7 C-7.125 2.25 -7.125 2.25 -6 0 C-3 -1 -3 -1 0 0 Z " fill="#1D2023" transform="translate(317,268)"/>
<path d="M0 0 C0.33 0 0.66 0 1 0 C1 1.98 1 3.96 1 6 C0.34 6 -0.32 6 -1 6 C-1 6.66 -1 7.32 -1 8 C-2.32 8.33 -3.64 8.66 -5 9 C-5 8.01 -5 7.02 -5 6 C-4.34 6 -3.68 6 -3 6 C-3 5.01 -3 4.02 -3 3 C-2.34 3 -1.68 3 -1 3 C-0.67 2.01 -0.34 1.02 0 0 Z " fill="#202327" transform="translate(387,262)"/>
<path d="M0 0 C0.33 0.99 0.66 1.98 1 3 C-0.2148 4.8242 -0.2148 4.8242 -1.9375 6.6875 C-2.5034 7.3101 -3.0693 7.9327 -3.6523 8.5742 C-4.0971 9.0447 -4.5418 9.5152 -5 10 C-5.6133 8.168 -5.6133 8.168 -6 6 C-4.2148 3.353 -2.8798 1.4399 0 0 Z " fill="#22262A" transform="translate(124,243)"/>
<path d="M0 0 C0.33 0 0.66 0 1 0 C1 1.98 1 3.96 1 6 C-4.28 6 -9.56 6 -15 6 C-15 5.67 -15 5.34 -15 5 C-14.2523 4.9394 -13.5047 4.8788 -12.7344 4.8164 C-11.7495 4.7326 -10.7647 4.6488 -9.75 4.5625 C-8.7755 4.4813 -7.8009 4.4001 -6.7969 4.3164 C-4.4354 4.0493 -2.281 3.6463 0 3 C0 2.01 0 1.02 0 0 Z " fill="#88AF73" transform="translate(321,156)"/>
<path d="M0 0 C2.0625 0.4375 2.0625 0.4375 4 1 C4 1.99 4 2.98 4 4 C3.01 4.66 2.02 5.32 1 6 C-0.1923 8.05 -0.1923 8.05 -1 10 C-1.0269 8.5209 -1.0463 7.0417 -1.0625 5.5625 C-1.0741 4.7388 -1.0857 3.9151 -1.0977 3.0664 C-1 1 -1 1 0 0 Z " fill="#171C20" transform="translate(291,345)"/>
<path d="M0 0 C0 0.66 0 1.32 0 2 C-0.99 2.33 -1.98 2.66 -3 3 C-3.6806 3.8044 -3.6806 3.8044 -4.375 4.625 C-4.9112 5.0788 -5.4475 5.5325 -6 6 C-8.6875 5.6875 -8.6875 5.6875 -11 5 C-7.7271 2.3332 -4.3513 0 0 0 Z " fill="#313538" transform="translate(206,244)"/>
<path d="M0 0 C2.3431 0.2556 4.6784 0.5927 7 1 C7.33 1.66 7.66 2.32 8 3 C4.7 3.33 1.4 3.66 -2 4 C-1.34 2.68 -0.68 1.36 0 0 Z " fill="#1B2122" transform="translate(161,151)"/>
<path d="M0 0 C2.0205 1.6417 4.0204 3.3091 6 5 C6 5.33 6 5.66 6 6 C4.02 6 2.04 6 0 6 C-0.3822 4.3439 -0.714 2.6754 -1 1 C-0.67 0.67 -0.34 0.34 0 0 Z " fill="#1F2527" transform="translate(411,341)"/>
<path d="M0 0 C0.33 0 0.66 0 1 0 C1 4.62 1 9.24 1 14 C0.01 14.33 -0.98 14.66 -2 15 C-1.4746 9.9698 -0.8941 4.9811 0 0 Z " fill="#81AD6D" transform="translate(495,323)"/>
<path d="M0 0 C3.1612 1.3698 3.9927 1.9891 6 5 C4.35 5.33 2.7 5.66 1 6 C0.34 4.35 -0.32 2.7 -1 1 C-0.67 0.67 -0.34 0.34 0 0 Z " fill="#1B2023" transform="translate(402,333)"/>
<path d="M0 0 C-1.5625 1.5625 -1.5625 1.5625 -4 3 C-7.75 2.6875 -7.75 2.6875 -11 2 C-7.0004 -0.0687 -4.4356 -1.3766 0 0 Z " fill="#87AB77" transform="translate(204,10)"/>
<path d="M0 0 C0.66 0 1.32 0 2 0 C2.1856 0.9591 2.1856 0.9591 2.375 1.9375 C2.5813 2.6181 2.7875 3.2987 3 4 C3.66 4.33 4.32 4.66 5 5 C5 5.99 5 6.98 5 8 C4.01 8.33 3.02 8.66 2 9 C0.1422 5.865 -0.2014 3.6253 0 0 Z " fill="#373B3E" transform="translate(235,347)"/>
<path d="M0 0 C0.33 1.32 0.66 2.64 1 4 C0.34 4 -0.32 4 -1 4 C-1.33 4.99 -1.66 5.98 -2 7 C-2.33 6.34 -2.66 5.68 -3 5 C-3.99 4.67 -4.98 4.34 -6 4 C-6 3.34 -6 2.68 -6 2 C-4.02 1.34 -2.04 0.68 0 0 Z " fill="#383E41" transform="translate(358,322)"/>
<path d="M0 0 C0.66 0.33 1.32 0.66 2 1 C-0.97 4.96 -0.97 4.96 -4 9 C-4.66 8.67 -5.32 8.34 -6 8 C-5.1875 6.0625 -5.1875 6.0625 -4 4 C-3.01 3.67 -2.02 3.34 -1 3 C-0.67 2.01 -0.34 1.02 0 0 Z " fill="#323638" transform="translate(426,227)"/>
<path d="M0 0 C0 0.66 0 1.32 0 2 C-8.262 6.5923 -8.262 6.5923 -13 6 C-9.4046 2.9799 -4.8137 0 0 0 Z " fill="#E3EDE0" transform="translate(182,49)"/>
<path d="M0 0 C0.66 0.66 1.32 1.32 2 2 C1.01 2.33 0.02 2.66 -1 3 C-1.6837 4.3247 -2.3496 5.6586 -3 7 C-3.99 7.66 -4.98 8.32 -6 9 C-6 6 -6 6 -4.6875 4.3945 C-4.1306 3.8725 -3.5738 3.3504 -3 2.8125 C-2.4431 2.2827 -1.8863 1.7529 -1.3125 1.207 C-0.6628 0.6096 -0.6628 0.6096 0 0 Z " fill="#F0F6F0" transform="translate(456,472)"/>
<path d="M0 0 C0.66 0.33 1.32 0.66 2 1 C-0.31 3.97 -2.62 6.94 -5 10 C-5.33 9.01 -5.66 8.02 -6 7 C-4.7852 5.1758 -4.7852 5.1758 -3.0625 3.3125 C-2.4966 2.6899 -1.9307 2.0673 -1.3477 1.4258 C-0.9029 0.9553 -0.4582 0.4848 0 0 Z " fill="#EDF3E8" transform="translate(446,433)"/>
<path d="M0 0 C0.66 0 1.32 0 2 0 C1.34 3.96 0.68 7.92 0 12 C-0.33 12 -0.66 12 -1 12 C-1.0269 10.1876 -1.0463 8.375 -1.0625 6.5625 C-1.0741 5.5532 -1.0857 4.5438 -1.0977 3.5039 C-1 1 -1 1 0 0 Z " fill="#1D2022" transform="translate(371,284)"/>
<path d="M0 0 C1.65 0 3.3 0 5 0 C4.67 1.65 4.34 3.3 4 5 C3.01 5 2.02 5 1 5 C0.505 2.525 0.505 2.525 0 0 Z " fill="#202426" transform="translate(320,276)"/>
<path d="M0 0 C0.66 0.33 1.32 0.66 2 1 C1.67 2.65 1.34 4.3 1 6 C0.34 6 -0.32 6 -1 6 C-1 7.98 -1 9.96 -1 12 C-1.33 12 -1.66 12 -2 12 C-2.054 10.3754 -2.0928 8.7502 -2.125 7.125 C-2.1482 6.2201 -2.1714 5.3152 -2.1953 4.3828 C-2 2 -2 2 0 0 Z " fill="#3B4044" transform="translate(225,274)"/>
<path d="M0 0 C2 1 2 1 2 1 Z M-2 1 C-1.01 1.33 -0.02 1.66 1 2 C1 3.98 1 5.96 1 8 C-0.32 7.34 -1.64 6.68 -3 6 C-3 3 -3 3 -2 1 Z " fill="#171B1D" transform="translate(370,241)"/>
<path d="M0 0 C1.65 0 3.3 0 5 0 C4.34 1.98 3.68 3.96 3 6 C2.01 5.67 1.02 5.34 0 5 C0 3.35 0 1.7 0 0 Z " fill="#212529" transform="translate(130,235)"/>
<path d="M0 0 C1.125 1.75 1.125 1.75 2 4 C1.125 6.25 1.125 6.25 0 8 C-0.99 7.34 -1.98 6.68 -3 6 C-2.67 4.68 -2.34 3.36 -2 2 C-1.34 2 -0.68 2 0 2 C0 1.34 0 0.68 0 0 Z " fill="#171C20" transform="translate(385,210)"/>
<path d="M0 0 C1.32 0.33 2.64 0.66 4 1 C4 1.66 4 2.32 4 3 C3.01 3.495 3.01 3.495 2 4 C2.33 4.66 2.66 5.32 3 6 C1.35 6 -0.3 6 -2 6 C-1.494 3.8313 -1.0002 2.0003 0 0 Z " fill="#739E5E" transform="translate(240,178)"/>
<path d="M0 0 C0.66 0.33 1.32 0.66 2 1 C1.0445 2.4602 0.0855 3.9181 -0.875 5.375 C-1.4087 6.1871 -1.9423 6.9992 -2.4922 7.8359 C-4 10 -4 10 -6 12 C-5.5979 6.3708 -3.7107 3.9961 0 0 Z " fill="#E7EEE3" transform="translate(218,135)"/>
<path d="M0 0 C3.96 0 7.92 0 12 0 C12 0.66 12 1.32 12 2 C8.7 2.33 5.4 2.66 2 3 C2 2.34 2 1.68 2 1 C1.34 0.67 0.68 0.34 0 0 Z " fill="#FAFDF6" transform="translate(313,3)"/>
<path d="M0 0 C0.66 0.33 1.32 0.66 2 1 C0.02 4.3 -1.96 7.6 -4 11 C-5 7 -5 7 -4.0039 5.0781 C-3.5282 4.4748 -3.0526 3.8716 -2.5625 3.25 C-2.0894 2.6364 -1.6163 2.0228 -1.1289 1.3906 C-0.7564 0.9317 -0.3838 0.4728 0 0 Z " fill="#E9F0E2" transform="translate(461,411)"/>
<path d="M0 0 C1.32 0.33 2.64 0.66 4 1 C3.67 2.65 3.34 4.3 3 6 C2.01 6.33 1.02 6.66 0 7 C0 4.69 0 2.38 0 0 Z " fill="#1E2126" transform="translate(426,220)"/>
<path d="M0 0 C0.66 0.66 1.32 1.32 2 2 C1.01 2.99 0.02 3.98 -1 5 C-1.99 4.67 -2.98 4.34 -4 4 C-2.68 2.68 -1.36 1.36 0 0 Z M-5 5 C-4.67 5.99 -4.34 6.98 -4 8 C-5.32 8.33 -6.64 8.66 -8 9 C-7.01 7.68 -6.02 6.36 -5 5 Z " fill="#81A76E" transform="translate(226,129)"/>
<path d="M0 0 C2.97 0 5.94 0 9 0 C9 0.99 9 1.98 9 3 C5.7 2.67 2.4 2.34 -1 2 C-0.67 1.34 -0.34 0.68 0 0 Z " fill="#8AAC77" transform="translate(235,2)"/>
<path d="M0 0 C3.3 0.33 6.6 0.66 10 1 C10 1.66 10 2.32 10 3 C5.8241 4.392 3.8653 2.8232 0 1 C0 0.67 0 0.34 0 0 Z " fill="#F5F7F2" transform="translate(198,549)"/>
<path d="M0 0 C-1.293 2.8844 -2.6594 4.8722 -5 7 C-5.99 6.67 -6.98 6.34 -8 6 C-7.0479 4.994 -6.0881 3.9954 -5.125 3 C-4.5913 2.4431 -4.0577 1.8863 -3.5078 1.3125 C-2 0 -2 0 0 0 Z " fill="#EBF0EA" transform="translate(439,490)"/>
<path d="M0 0 C0.99 0.33 1.98 0.66 3 1 C-1.455 3.97 -1.455 3.97 -6 7 C-6 6.01 -6 5.02 -6 4 C-3.1875 1.75 -3.1875 1.75 0 0 Z " fill="#EAF1E4" transform="translate(394,483)"/>
<path d="M0 0 C0.66 0 1.32 0 2 0 C2.7308 1.9775 3.3942 3.9807 4 6 C3.67 6.66 3.34 7.32 3 8 C2.01 8 1.02 8 0 8 C0 5.36 0 2.72 0 0 Z " fill="#1E2126" transform="translate(218,307)"/>
<path d="M0 0 C2.7987 2.5279 4.4577 4.2041 5 8 C4.34 8 3.68 8 3 8 C2.67 6.68 2.34 5.36 2 4 C1.01 4.33 0.02 4.66 -1 5 C-0.67 3.35 -0.34 1.7 0 0 Z " fill="#242829" transform="translate(371,280)"/>
<path d="M0 0 C0.66 0.99 1.32 1.98 2 3 C1.125 5.6875 1.125 5.6875 0 8 C-0.33 7.34 -0.66 6.68 -1 6 C-1.66 5.67 -2.32 5.34 -3 5 C-2.67 4.01 -2.34 3.02 -2 2 C-1.34 2 -0.68 2 0 2 C0 1.34 0 0.68 0 0 Z " fill="#404647" transform="translate(422,274)"/>
<path d="M0 0 C0.99 0.33 1.98 0.66 3 1 C2.67 2.32 2.34 3.64 2 5 C0.35 5 -1.3 5 -3 5 C-1.125 1.125 -1.125 1.125 0 0 Z " fill="#1C2023" transform="translate(176,262)"/>
<path d="M0 0 C1.32 0.66 2.64 1.32 4 2 C2.75 3.5625 2.75 3.5625 1 5 C-1.1875 4.6875 -1.1875 4.6875 -3 4 C-3 3.34 -3 2.68 -3 2 C-2.01 1.34 -1.02 0.68 0 0 Z " fill="#313537" transform="translate(328,245)"/>
<path d="M0 0 C4.75 0.75 4.75 0.75 7 3 C6.34 4.32 5.68 5.64 5 7 C4.67 5.68 4.34 4.36 4 3 C2.68 3 1.36 3 0 3 C0 2.01 0 1.02 0 0 Z " fill="#192022" transform="translate(302,240)"/>
<path d="M0 0 C-0.66 1.32 -1.32 2.64 -2 4 C-3.32 3.01 -4.64 2.02 -6 1 C-3 0 -3 0 0 0 Z M-5 4 C-4.34 4 -3.68 4 -3 4 C-3 4.66 -3 5.32 -3 6 C-3.99 6.33 -4.98 6.66 -6 7 C-5.67 6.01 -5.34 5.02 -5 4 Z " fill="#404347" transform="translate(350,401)"/>
<path d="M0 0 C0.33 0.99 0.66 1.98 1 3 C-0.375 4.5 -0.375 4.5 -2 6 C-2.66 6 -3.32 6 -4 6 C-4.33 6.66 -4.66 7.32 -5 8 C-5 7.34 -5 6.68 -5 6 C-5.66 5.67 -6.32 5.34 -7 5 C-6.2163 4.5462 -5.4325 4.0925 -4.625 3.625 C-1.963 2.1157 -1.963 2.1157 0 0 Z " fill="#44494B" transform="translate(296,379)"/>
<path d="M0 0 C0.66 0 1.32 0 2 0 C2 2.31 2 4.62 2 7 C1.67 6.34 1.34 5.68 1 5 C0.34 5 -0.32 5 -1 5 C-1.33 5.66 -1.66 6.32 -2 7 C-1.125 2.25 -1.125 2.25 0 0 Z " fill="#212327" transform="translate(427,294)"/>
<path d="M0 0 C-0.66 1.65 -1.32 3.3 -2 5 C-2.99 5 -3.98 5 -5 5 C-5.66 4.34 -6.32 3.68 -7 3 C-2.25 0 -2.25 0 0 0 Z " fill="#31383B" transform="translate(359,155)"/>
<path d="M0 0 C-2.8548 1.9032 -4.4194 2.4619 -7.6875 3.125 C-8.4957 3.2926 -9.304 3.4602 -10.1367 3.6328 C-10.7516 3.754 -11.3665 3.8752 -12 4 C-8.2169 0.2169 -5.3034 -0.2411 0 0 Z " fill="#F5F7F3" transform="translate(351,544)"/>
<path d="M0 0 C3.8374 0.9593 4.5966 1.2361 7 4 C6.67 4.99 6.34 5.98 6 7 C4.02 4.69 2.04 2.38 0 0 Z " fill="#EDF2E4" transform="translate(99,452)"/>
<path d="M0 0 C1.9375 0.3125 1.9375 0.3125 4 1 C4.33 1.99 4.66 2.98 5 4 C2.69 3.67 0.38 3.34 -2 3 C-1.34 2.67 -0.68 2.34 0 2 C0 1.34 0 0.68 0 0 Z " fill="#2C3235" transform="translate(350,325)"/>
<path d="M0 0 C0.66 0 1.32 0 2 0 C2.66 2.97 3.32 5.94 4 9 C0.0615 5.6769 0.0615 5.6769 -0.25 2.25 C-0.1675 1.5075 -0.085 0.765 0 0 Z " fill="#3E4343" transform="translate(314,281)"/>
<path d="M0 0 C-1.6237 3.2473 -4.7539 3.7016 -8 5 C-8.66 4.34 -9.32 3.68 -10 3 C-3.375 0 -3.375 0 0 0 Z " fill="#3D4045" transform="translate(205,164)"/>
<path d="M0 0 C0.99 0 1.98 0 3 0 C3 0.66 3 1.32 3 2 C3.66 2.33 4.32 2.66 5 3 C5 4.98 5 6.96 5 9 C2.6753 6.1469 1.2492 3.4593 0 0 Z " fill="#E6EFDE" transform="translate(498,147)"/>
<path d="M0 0 C2.9375 0.8125 2.9375 0.8125 6 2 C6.33 2.99 6.66 3.98 7 5 C1.25 3.25 1.25 3.25 -1 1 C-0.67 0.67 -0.34 0.34 0 0 Z " fill="#E6ECDE" transform="translate(290,119)"/>
<path d="M0 0 C-2.3857 1.8921 -4.0718 3.0239 -7 4 C-6.6875 2.0625 -6.6875 2.0625 -6 0 C-3 -1 -3 -1 0 0 Z " fill="#85AF70" transform="translate(386,526)"/>
<path d="M0 0 C3.356 0.5993 5.378 1.8462 8 4 C7.67 4.66 7.34 5.32 7 6 C5.8305 5.1915 4.6645 4.3781 3.5 3.5625 C2.8503 3.11 2.2006 2.6576 1.5312 2.1914 C1.0259 1.7982 0.5206 1.4051 0 1 C0 0.67 0 0.34 0 0 Z " fill="#EFF3E7" transform="translate(132,481)"/>
<path d="M0 0 C4 4.625 4 4.625 4 8 C2 6.8125 2 6.8125 0 5 C-0.25 2.3125 -0.25 2.3125 0 0 Z " fill="#E8EFE4" transform="translate(46,435)"/>
<path d="M0 0 C0.99 0.99 1.98 1.98 3 3 C2.34 3.66 1.68 4.32 1 5 C0.01 5 -0.98 5 -2 5 C-2.33 3.68 -2.66 2.36 -3 1 C-2.01 0.67 -1.02 0.34 0 0 Z " fill="#242A2D" transform="translate(294,387)"/>
<path d="M0 0 C0.66 0 1.32 0 2 0 C3.8578 3.135 4.2014 5.3747 4 9 C1.497 6.0617 0.5307 3.821 0 0 Z " fill="#EBF0E6" transform="translate(49,371)"/>
<path d="M0 0 C0.99 0.33 1.98 0.66 3 1 C3.6875 3.0625 3.6875 3.0625 4 5 C1.69 4.34 -0.62 3.68 -3 3 C-2.01 2.67 -1.02 2.34 0 2 C0 1.34 0 0.68 0 0 Z " fill="#393D40" transform="translate(259,365)"/>
<path d="M0 0 C0.33 0 0.66 0 1 0 C1.33 2.64 1.66 5.28 2 8 C1.01 8 0.02 8 -1 8 C-1.125 2.25 -1.125 2.25 0 0 Z " fill="#1C2125" transform="translate(153,307)"/>
<path d="M0 0 C0.33 0 0.66 0 1 0 C1.25 2.3125 1.25 2.3125 1 5 C-1 6.8125 -1 6.8125 -3 8 C-2.4528 4.6254 -1.9451 2.9177 0 0 Z " fill="#1E2224" transform="translate(424,292)"/>
<path d="M0 0 C0.66 0 1.32 0 2 0 C2 0.66 2 1.32 2 2 C2.66 2.33 3.32 2.66 4 3 C2.625 4.5 2.625 4.5 1 6 C0.34 6 -0.32 6 -1 6 C-0.67 4.02 -0.34 2.04 0 0 Z " fill="#3E4143" transform="translate(299,268)"/>
<path d="M0 0 C0.66 0 1.32 0 2 0 C2.33 2.31 2.66 4.62 3 7 C2.34 7 1.68 7 1 7 C0.34 5.02 -0.32 3.04 -1 1 C-0.67 0.67 -0.34 0.34 0 0 Z " fill="#1A1D21" transform="translate(303,261)"/>
<path d="M0 0 C0.99 0.66 1.98 1.32 3 2 C1.68 3.32 0.36 4.64 -1 6 C-1.66 5.67 -2.32 5.34 -3 5 C-1.125 1.125 -1.125 1.125 0 0 Z " fill="#84AA6F" transform="translate(103,59)"/>
<path d="M0 0 C1.98 0 3.96 0 6 0 C6 0.33 6 0.66 6 1 C4.02 1 2.04 1 0 1 C0 0.67 0 0.34 0 0 Z " fill="#FEFFFA" transform="translate(505,103)"/>
<path d="M0 0 C1.32 0.33 2.64 0.66 4 1 C3.01 1.33 2.02 1.66 1 2 C0.67 1.34 0.34 0.68 0 0 Z " fill="#FCFDF9" transform="translate(83,28)"/>
<path d="M0 0 C0.99 0.495 0.99 0.495 2 1 C1.67 1.66 1.34 2.32 1 3 C0.67 2.01 0.34 1.02 0 0 Z " fill="#FCFEFA" transform="translate(454,29)"/>
<path d="M0 0 C0.99 0.495 0.99 0.495 2 1 C1.01 1.495 1.01 1.495 0 2 C0 1.34 0 0.68 0 0 Z " fill="#FDFEFA" transform="translate(408,3)"/>
<path d="" fill="#FEF8FD" transform="translate(0,0)"/>
<path d="" fill="#FFF8FF" transform="translate(0,0)"/>
<path d="" fill="#FCFFFB" transform="translate(0,0)"/>
<path d="" fill="#FEFFFB" transform="translate(0,0)"/>
<path d="" fill="#FCFEFA" transform="translate(0,0)"/>
<path d="" fill="#FCFEFA" transform="translate(0,0)"/>
<path d="" fill="#FCFDF9" transform="translate(0,0)"/>
<path d="" fill="#FAFAF9" transform="translate(0,0)"/>
<path d="" fill="#FDFFFB" transform="translate(0,0)"/>
<path d="" fill="#FFF9FE" transform="translate(0,0)"/>
<path d="" fill="#FFF9FF" transform="translate(0,0)"/>
<path d="" fill="#FFF9FF" transform="translate(0,0)"/>
<path d="" fill="#FFF9FF" transform="translate(0,0)"/>
<path d="" fill="#FFF9FF" transform="translate(0,0)"/>
<path d="" fill="#FFF8FE" transform="translate(0,0)"/>
<path d="" fill="#FFF9FF" transform="translate(0,0)"/>
<path d="" fill="#FBFFFB" transform="translate(0,0)"/>
<path d="" fill="#FCFFFB" transform="translate(0,0)"/>
<path d="" fill="#FFF9FE" transform="translate(0,0)"/>
<path d="" fill="#FDFFFB" transform="translate(0,0)"/>
<path d="" fill="#FEF8FE" transform="translate(0,0)"/>
<path d="" fill="#FCFFFB" transform="translate(0,0)"/>
<path d="" fill="#FDFFFB" transform="translate(0,0)"/>
<path d="" fill="#FDFFFB" transform="translate(0,0)"/>
<path d="" fill="#FFF9FF" transform="translate(0,0)"/>
<path d="" fill="#FFF9FF" transform="translate(0,0)"/>
<path d="" fill="#FCFFFB" transform="translate(0,0)"/>
<path d="" fill="#FFF9FE" transform="translate(0,0)"/>
<path d="" fill="#FEFFFB" transform="translate(0,0)"/>
<path d="" fill="#FCFBF9" transform="translate(0,0)"/>
<path d="" fill="#FDFFFB" transform="translate(0,0)"/>
<path d="" fill="#FDFFFB" transform="translate(0,0)"/>
<path d="" fill="#FCFCF9" transform="translate(0,0)"/>
<path d="" fill="#FDFFFB" transform="translate(0,0)"/>
<path d="" fill="#FFFFFB" transform="translate(0,0)"/>
<path d="" fill="#FFF9FE" transform="translate(0,0)"/>
<path d="" fill="#FCFEFA" transform="translate(0,0)"/>
<path d="" fill="#FDFFFB" transform="translate(0,0)"/>
<path d="" fill="#FDFEFA" transform="translate(0,0)"/>
<path d="" fill="#FDFFFB" transform="translate(0,0)"/>
<path d="" fill="#FDFFFB" transform="translate(0,0)"/>
<path d="" fill="#FDFFFB" transform="translate(0,0)"/>
<path d="" fill="#FDFEFA" transform="translate(0,0)"/>
<path d="" fill="#FDFFFB" transform="translate(0,0)"/>
<path d="" fill="#FDFFFB" transform="translate(0,0)"/>
<path d="" fill="#FCFEFA" transform="translate(0,0)"/>
</svg>
