<?xml version="1.0" encoding="utf-8"?>
<svg xmlns="http://www.w3.org/2000/svg" width="1518" height="587" viewBox="0 0 1518 587" role="img" aria-label="China Starter Guide">
  <defs>
    <style>
      .logo-title {
        font-family: "Atkinson", "Helvetica Neue", Arial, sans-serif;
        font-weight: 700;
        font-size: 90px;
        fill: #2c3235;
      }
      .logo-tagline {
        font-family: "Atkinson", "Helvetica Neue", Arial, sans-serif;
        font-weight: 700;
        font-size: 44px;
        fill: #87a871;
      }
    </style>
  </defs>
  <svg x="0" y="14.5" width="558" height="558" viewBox="0 0 531 558" aria-hidden="true" overflow="visible">
    <path d="M0 0 C1.27991 -0.00961 2.55983 -0.01922 3.87852 -0.02911 C5.28824 -0.03397 6.69795 -0.03825 8.10767 -0.04199 C9.17812 -0.04623 9.17812 -0.04623 10.27019 -0.05056 C14.06571 -0.06559 17.86119 -0.07479 21.65674 -0.0791 C24.76298 -0.08345 27.86894 -0.09718 30.9751 -0.12012 C62.33861 -0.3477 62.33861 -0.3477 76.29932 2.51367 C79.92134 3.16065 83.25345 3.27412 86.92407 3.16113 C86.92407 3.82113 86.92407 4.48113 86.92407 5.16113 C88.74938 5.22301 88.74938 5.22301 90.61157 5.28613 C96.12391 5.8881 100.47293 8.13956 105.40845 10.55566 C108.99033 12.19139 112.54493 13.41663 116.29907 14.59863 C129.43101 18.78585 141.44474 25.40466 153.57251 31.85645 C161.73044 36.21086 161.73044 36.21086 170.11548 40.09863 C171.92407 41.16113 171.92407 41.16113 172.92407 44.16113 C175.10486 45.95991 175.10486 45.95991 177.73657 47.66113 C185.04202 52.58179 185.04202 52.58179 186.92407 54.16113 C186.92407 54.82113 186.92407 55.48113 186.92407 56.16113 C187.56345 56.42926 188.20282 56.69738 188.86157 56.97363 C190.92407 58.16113 190.92407 58.16113 191.92407 61.16113 C192.48868 61.28359 193.05329 61.40605 193.63501 61.53223 C197.02743 62.46427 199.08808 64.83173 201.54907 67.22363 C204.72025 70.78246 204.72025 70.78246 208.92407 72.16113 C210.47485 73.73535 210.47485 73.73535 212.23657 75.84863 C214.20478 78.19721 216.18199 80.4174 218.35767 82.5791 C220.96608 85.2034 223.32685 87.92694 225.67407 90.78613 C226.45267 91.72715 227.23126 92.66816 228.03345 93.6377 C229.92407 96.16113 229.92407 96.16113 230.92407 99.16113 C231.58407 99.16113 232.24407 99.16113 232.92407 99.16113 C235.92407 103.54575 235.92407 103.54575 235.92407 106.16113 C236.58407 106.16113 237.24407 106.16113 237.92407 106.16113 C237.92407 106.82113 237.92407 107.48113 237.92407 108.16113 C238.58407 108.16113 239.24407 108.16113 239.92407 108.16113 C241.21313 109.62207 241.21313 109.62207 242.54907 111.53613 C242.99509 112.16262 243.4411 112.7891 243.90063 113.43457 C244.92407 115.16113 244.92407 115.16113 244.92407 117.16113 C245.58407 117.16113 246.24407 117.16113 246.92407 117.16113 C247.33915 118.18594 247.75423 119.21074 248.18188 120.2666 C249.73796 123.89592 251.66791 127.1442 253.79907 130.47363 C262.92407 145.05343 262.92407 145.05343 262.92407 149.16113 C263.58407 149.49113 264.24407 149.82113 264.92407 150.16113 C265.97388 152.33154 265.97388 152.33154 267.09595 155.2002 C267.72243 156.78574 267.72243 156.78574 268.36157 158.40332 C268.7947 159.51965 269.22782 160.63598 269.67407 161.78613 C270.52295 163.94502 271.37191 166.10387 272.22095 168.2627 C272.65641 169.38418 273.09187 170.50566 273.54053 171.66113 C274.47953 174.03656 275.44657 176.40105 276.43848 178.75488 C280.0238 187.27956 282.639 195.78379 284.73975 204.7876 C285.24042 206.92759 285.76165 209.06184 286.2854 211.19629 C287.89898 217.89109 289.20023 224.4187 289.61394 231.31181 C289.94479 234.35144 290.64136 237.11907 291.42773 240.07251 C293.15315 247.39373 293.35792 254.37995 293.32251 261.87598 C293.32454 263.26201 293.32746 264.64804 293.33121 266.03407 C293.33559 268.92427 293.32933 271.81418 293.31519 274.70435 C293.29824 278.33821 293.30814 281.97141 293.32552 285.60525 C293.42075 309.13291 291.80768 331.79217 284.73657 354.36816 C283.89996 357.24403 283.18877 360.13993 282.49219 363.05249 C280.43032 371.65141 277.82579 379.55747 273.73657 387.41113 C272.07004 390.62655 271.28753 393.52656 270.92407 397.16113 C270.26407 397.16113 269.60407 397.16113 268.92407 397.16113 C268.67013 397.99516 268.41618 398.82918 268.15454 399.68848 C266.78795 403.5453 265.09243 407.08453 263.23657 410.72363 C262.70483 411.77309 262.70483 411.77309 262.16235 412.84375 C261.08914 414.9528 260.0079 417.05753 258.92407 419.16113 C258.32981 420.32 257.73556 421.47887 257.12329 422.67285 C252.2501 431.95993 246.85655 441.2383 239.92407 449.16113 C239.26407 449.16113 238.60407 449.16113 237.92407 449.16113 C237.67271 449.8727 237.42134 450.58426 237.16235 451.31738 C234.10706 458.33396 228.00396 467.62119 220.92407 471.16113 C219.79057 473.17783 219.79057 473.17783 218.92407 475.16113 C218.26407 475.16113 217.60407 475.16113 216.92407 475.16113 C216.58376 476.02738 216.58376 476.02738 216.23657 476.91113 C214.5832 479.74548 212.49443 481.12875 209.92407 483.16113 C208.73687 484.60503 207.55036 486.04956 206.3772 487.50488 C202.51668 491.90504 198.68427 495.81089 192.92407 497.16113 C192.59407 497.82113 192.26407 498.48113 191.92407 499.16113 C187.33584 503.16113 187.33584 503.16113 184.92407 503.16113 C184.92407 503.82113 184.92407 504.48113 184.92407 505.16113 C183.27407 505.82113 181.62407 506.48113 179.92407 507.16113 C179.92407 507.82113 179.92407 508.48113 179.92407 509.16113 C178.27407 509.82113 176.62407 510.48113 174.92407 511.16113 C174.92407 511.82113 174.92407 512.48113 174.92407 513.16113 C173.27407 513.82113 171.62407 514.48113 169.92407 515.16113 C169.92407 515.82113 169.92407 516.48113 169.92407 517.16113 C166.92407 519.16113 166.92407 519.16113 163.86157 519.78613 C160.2781 520.7268 158.14659 522.50173 155.36157 524.91113 C150.46243 529.01842 145.53053 531.30952 139.61938 533.66504 C136.49376 534.93049 133.4883 536.29492 130.45898 537.76538 C121.84631 541.94139 113.02004 545.20135 103.92407 548.16113 C102.42554 548.65807 102.42554 548.65807 100.89673 549.16504 C93.66289 551.36387 86.45402 551.84235 78.92407 552.16113 C78.92407 552.82113 78.92407 553.48113 78.92407 554.16113 C76.92534 554.64558 74.92501 555.12341 72.92407 555.59863 C71.25345 555.99889 71.25345 555.99889 69.54907 556.40723 C61.0091 558.18332 52.73836 558.3215 44.03735 558.3291 C42.68987 558.33232 41.3424 558.33569 39.99492 558.33919 C37.17841 558.34515 34.36193 558.34703 31.54541 558.34644 C27.97308 558.34633 24.40095 558.35996 20.82867 558.37721 C18.04619 558.38844 15.26375 558.39035 12.48125 558.38983 C10.53569 558.39155 8.59014 558.40232 6.64461 558.41338 C-3.63645 558.38733 -13.90668 558.20422 -23.07593 553.16113 C-25.74302 552.99363 -25.74302 552.99363 -28.07593 553.16113 C-28.73593 552.83113 -29.39593 552.50113 -30.07593 552.16113 C-31.06593 552.49113 -32.05593 552.82113 -33.07593 553.16113 C-35.48893 552.53477 -37.78428 551.83809 -40.13843 551.03613 C-47.0773 548.75162 -54.05387 546.7482 -61.13477 544.94971 C-65.13286 543.88815 -67.8701 542.71831 -71.07593 540.16113 C-73.81937 538.72448 -76.63481 537.44823 -79.45093 536.16113 C-93.91594 529.48111 -93.91594 529.48111 -95.07593 527.16113 C-95.7978 527.05801 -96.51968 526.95488 -97.26343 526.84863 C-100.47079 526.06461 -102.00324 524.581 -104.41968 522.41113 C-106.21983 521.05253 -107.74668 520.46605 -109.88843 519.78613 C-114.28207 518.31598 -117.40236 515.7904 -120.95483 512.87207 C-122.79607 511.38687 -124.63662 510.10153 -126.63843 508.84863 C-127.84499 508.01332 -127.84499 508.01332 -129.07593 507.16113 C-129.07593 506.50113 -129.07593 505.84113 -129.07593 505.16113 C-129.6328 505.07863 -130.18968 504.99613 -130.76343 504.91113 C-133.81271 503.92218 -135.72783 502.31356 -138.07593 500.16113 C-138.07593 499.50113 -138.07593 498.84113 -138.07593 498.16113 C-138.73593 498.16113 -139.39593 498.16113 -140.07593 498.16113 C-140.07593 497.50113 -140.07593 496.84113 -140.07593 496.16113 C-141.09687 495.85176 -141.09687 495.85176 -142.13843 495.53613 C-145.99232 493.73218 -149.15381 491.2601 -152.07593 488.16113 C-152.07593 487.50113 -152.07593 486.84113 -152.07593 486.16113 C-152.97312 485.72801 -152.97312 485.72801 -153.88843 485.28613 C-156.07593 484.16113 -156.07593 484.16113 -159.07593 482.16113 C-159.07593 481.50113 -159.07593 480.84113 -159.07593 480.16113 C-159.73593 480.16113 -160.39593 480.16113 -161.07593 480.16113 C-164.07593 476.69959 -164.07593 476.69959 -164.07593 474.16113 C-164.73593 474.16113 -165.39593 474.16113 -166.07593 474.16113 C-166.40593 472.84113 -166.73593 471.52113 -167.07593 470.16113 C-167.73593 470.16113 -168.39593 470.16113 -169.07593 470.16113 C-170.70733 468.23526 -172.21316 466.31787 -173.70093 464.28613 C-174.12116 463.73055 -174.5414 463.17496 -174.97437 462.60254 C-178.07593 458.42349 -178.07593 458.42349 -178.07593 456.16113 C-178.73593 456.16113 -179.39593 456.16113 -180.07593 456.16113 C-187.0667 448.61929 -200.07593 433.85614 -200.07593 423.16113 C-201.06593 422.83113 -202.05593 422.50113 -203.07593 422.16113 C-203.07593 421.50113 -203.07593 420.84113 -203.07593 420.16113 C-203.73593 420.16113 -204.39593 420.16113 -205.07593 420.16113 C-205.30667 419.55527 -205.53741 418.94941 -205.77515 418.3252 C-207.53223 413.81095 -209.38979 409.45399 -211.63843 405.16113 C-214.12612 400.32395 -215.70174 395.41209 -217.07593 390.16113 C-217.73593 390.16113 -218.39593 390.16113 -219.07593 390.16113 C-220.21131 386.87296 -221.33225 383.58002 -222.45093 380.28613 C-222.76804 379.36832 -223.08515 378.45051 -223.41187 377.50488 C-225.21077 372.18313 -226.5639 366.98796 -227.57104 361.46484 C-228.17445 358.71159 -229.23926 356.211 -230.28198 353.59961 C-232.23455 347.6026 -233.09105 341.23563 -234.20093 335.03613 C-234.46719 333.58158 -234.73411 332.12716 -235.00171 330.67285 C-235.70459 326.83761 -236.39776 323.00084 -237.07593 319.16113 C-237.33605 317.74993 -237.33605 317.74993 -237.60143 316.31023 C-238.06111 313.25948 -238.23544 310.36654 -238.28467 307.28394 C-238.31321 305.5699 -238.31321 305.5699 -238.34233 303.82124 C-238.35625 302.59149 -238.37018 301.36174 -238.38452 300.09473 C-238.40728 298.15856 -238.40728 298.15856 -238.4305 296.18327 C-238.47362 291.98844 -238.49669 287.79364 -238.51343 283.59863 C-238.51658 282.88787 -238.51974 282.17711 -238.52299 281.44482 C-238.61071 258.17696 -237.31257 235.92077 -232.07593 213.16113 C-231.75629 211.71334 -231.43722 210.26542 -231.11865 208.81738 C-229.28933 200.63358 -227.14938 192.75363 -224.13843 184.91113 C-223.61249 183.50795 -223.61249 183.50795 -223.07593 182.07642 C-222.38788 180.24505 -221.69556 178.41528 -220.99829 176.5874 C-220.22538 174.55427 -219.4742 172.51291 -218.72827 170.46973 C-213.39703 156.03019 -206.57029 142.88438 -198.22925 129.98193 C-196.52965 127.2987 -194.96026 124.54565 -193.38843 121.78613 C-190.67165 117.05596 -187.68087 112.61945 -184.45874 108.21973 C-182.91275 106.11574 -182.91275 106.11574 -182.07593 103.16113 C-180.07593 101.16113 -180.07593 101.16113 -178.07593 100.16113 C-177.58093 98.67613 -177.58093 98.67613 -177.07593 97.16113 C-175.44889 95.4324 -173.79135 93.79932 -172.07593 92.16113 C-167.75652 87.9307 -163.48427 83.71594 -159.57593 79.09863 C-156.38459 75.37293 -152.8579 72.18951 -149.15015 68.98535 C-147.43404 67.47609 -145.83823 65.93847 -144.26343 64.28613 C-142.22451 62.30547 -140.57006 61.4082 -138.07593 60.16113 C-137.74593 59.17113 -137.41593 58.18113 -137.07593 57.16113 C-134.51343 55.97363 -134.51343 55.97363 -132.07593 55.16113 C-132.07593 54.50113 -132.07593 53.84113 -132.07593 53.16113 C-130.12671 51.75098 -130.12671 51.75098 -127.38843 50.09863 C-123.07181 47.43801 -118.89783 44.65936 -114.76343 41.72363 C-106.10701 35.64559 -97.03111 30.22758 -87.25562 26.14551 C-84.74081 25.00979 -82.40467 23.66269 -80.01343 22.28613 C-70.72351 17.13231 -60.52757 13.73738 -50.32593 10.86816 C-48.01932 10.14335 -45.90496 9.21468 -43.70093 8.22363 C-38.62579 6.12913 -33.43963 5.04687 -28.07593 3.97363 C-27.24529 3.80678 -26.41465 3.63993 -25.55884 3.46802 C-20.41894 2.48502 -15.32403 1.82912 -10.10718 1.41382 C-6.5126 0.96666 -3.8255 0.02315 0 0 Z " fill="#FCFCFC" transform="translate(238.075927734375,-0.1611328125)"/>
    <ellipse cx="265.5" cy="279" rx="241.5" ry="255" fill="none" stroke="#7BAA61" stroke-width="48"/>
    <path d="M0 0 C13.06634 8.69682 21.7292 22.43406 25.41797 37.60938 C27.01516 52.74687 24.57227 66.17006 16.6875 79.30469 C14.98406 82.29674 14.98406 82.29674 14.41797 85.60938 C15.95596 88.02519 15.95596 88.02519 18.29297 90.23438 C19.03289 91.01039 19.77281 91.78641 20.53516 92.58594 C23.39789 94.59528 24.38127 94.87324 27.67188 95.33984 C33.94378 96.50478 37.30092 100.76392 41.48047 105.29688 C42.98973 106.88645 44.50142 108.47372 46.01562 110.05859 C46.74475 110.82591 47.47388 111.59322 48.2251 112.38379 C52.18437 116.40213 56.4058 120.10025 60.91797 123.48438 C63.0175 126.45872 62.96946 128.90539 62.81641 132.48438 C62.24332 135.54083 60.91673 136.84554 58.41797 138.60938 C55.54309 140.04681 53.6091 139.95142 50.41797 139.60938 C47.80469 137.76562 47.80469 137.76562 45.10547 135.10938 C44.06921 134.10787 43.03274 133.10658 41.99609 132.10547 C41.15208 131.27572 41.15208 131.27572 40.29102 130.4292 C38.21006 128.40737 36.09184 126.43035 33.96484 124.45703 C32.4283 123.02874 30.89184 121.60036 29.35547 120.17188 C28.61708 119.48609 27.87869 118.80031 27.11792 118.09375 C26.42158 117.4402 25.72525 116.78664 25.00781 116.11328 C24.38769 115.53393 23.76757 114.95458 23.12866 114.35767 C20.28704 111.45359 18.5851 109.46176 17.79297 105.42188 C16.43966 99.86364 11.49552 96.30937 7.41797 92.60938 C3.71447 94.00743 0.3134 95.68563 -3.14453 97.60938 C-16.03156 104.7589 -30.64689 107.02585 -45.20703 103.54688 C-61.72282 98.2409 -73.76004 89.14802 -82.125 73.77344 C-88.28393 60.87761 -90.27395 45.01243 -86.01953 31.17188 C-80.12982 16.28051 -70.84445 4.29552 -56.37891 -3.00781 C-37.4604 -11.04105 -17.96363 -10.7198 0 0 Z " fill="#2A2E31" transform="translate(368.58203125,233.390625)"/>
    <path d="M0 0 C3.24711 3.15066 6.18176 6.46296 9 10 C12.30659 8.92734 15.53069 7.83199 18.6875 6.375 C22 5 22 5 25 5 C24.46913 13.64319 24.46913 13.64319 21.23096 16.63379 C18.89085 17.9649 16.53747 19.06578 14.0625 20.125 C12.32249 20.9533 10.58548 21.78794 8.85156 22.62891 C8.01271 23.02868 7.17385 23.42845 6.30957 23.84033 C-1.63417 27.82899 -8.24853 33.91335 -14.71094 39.92188 C-17 42 -17 42 -19.52344 43.95703 C-45.71321 65.56153 -64.02673 110.67456 -70 143 C-70.37476 147.01259 -70.43195 150.9722 -70.375 155 C-70.36412 156.05453 -70.35325 157.10907 -70.34204 158.19556 C-70.19161 165.52451 -69.61206 172.09934 -67 179 C-66.76894 179.63954 -66.53787 180.27907 -66.2998 180.93799 C-57.73426 204.4205 -42.57485 222.75352 -19.9375 233.6875 C-4.46121 240.83782 11.31445 244.71244 28.02734 247.82422 C36.79736 249.49302 45.37485 251.64635 53.8125 254.5625 C78.62914 263.1007 99.58795 260.21803 123.97241 252.04492 C131.76801 249.51293 139.48331 247.83898 147.5625 246.5 C170.37022 242.64134 193.22164 235.34296 211 220 C211.86625 219.36063 212.7325 218.72125 213.625 218.0625 C216.55938 215.51422 218.91498 212.63029 221.35156 209.60938 C223 208 223 208 226 208 C228.1875 210.5 228.1875 210.5 230 213 C208.2106 242.20707 175.26464 250.96923 140.8877 257.65186 C131.49986 259.53618 122.50747 262.13382 113.46899 265.28491 C91.54244 272.83562 71.83099 270.61171 50.29614 263.46899 C48.94299 263.02028 48.94299 263.02028 47.5625 262.5625 C46.18711 262.10508 46.18711 262.10508 44.78394 261.63843 C37.62164 259.33413 30.46475 257.81396 23.0625 256.5 C-1.75493 252.02238 -26.43987 244.53297 -46 228 C-47.05187 227.21625 -48.10375 226.4325 -49.1875 225.625 C-64.3215 211.49993 -75.10498 191.31403 -79 171 C-79.17918 170.0693 -79.35836 169.13859 -79.54297 168.17969 C-83.37486 141.52024 -73.78833 113.54982 -61.71484 90.05859 C-60.82977 87.50976 -60.87927 86.45067 -62 84 C-63.83622 82.31529 -63.83622 82.31529 -66.125 80.8125 C-75.60518 73.66475 -80.87168 64.70052 -83 53 C-85.04299 35.31004 -80.48142 22.02443 -69.66797 7.96875 C-51.34936 -12.41506 -22.1149 -16.04589 0 0 Z " fill="#2A2F33" transform="translate(180,159)"/>
    <path d="M0 0 C10.34676 7.94296 18.29306 20.24532 21.03125 33.09375 C22.80409 47.86742 20.75607 61.60771 11.67969 73.59375 C8.00201 78.01356 4.18301 81.38149 -0.6875 84.4375 C-1.3475 84.4375 -2.0075 84.4375 -2.6875 84.4375 C-2.20281 85.32566 -1.71812 86.21383 -1.21875 87.12891 C7.68326 103.9087 13.53183 121.85453 17.3125 140.4375 C17.50457 141.25477 17.69664 142.07203 17.89453 142.91406 C19.4494 152.30143 18.62407 162.24373 17 171.5625 C16.88237 172.24796 16.76475 172.93342 16.64355 173.63965 C15.75799 178.26227 14.27837 182.19739 12.3125 186.4375 C8.94085 185.04234 7.12613 183.62793 5.3125 180.4375 C5.67578 178.01172 5.67578 178.01172 6.625 175.125 C10.63742 159.63356 9.11035 143.52548 4.3125 128.4375 C3.96188 127.18453 3.61125 125.93156 3.25 124.64062 C-7.89122 85.39854 -31.17734 43.91279 -67.6875 23.4375 C-69.87191 22.40206 -72.07808 21.42878 -74.29004 20.45386 C-83.04712 16.56414 -83.04712 16.56414 -85.35938 12.49609 C-86.1014 9.75549 -86.56257 7.26927 -86.6875 4.4375 C-85.08153 4.88946 -83.47777 5.34932 -81.875 5.8125 C-80.53502 6.19535 -80.53502 6.19535 -79.16797 6.58594 C-76.6875 7.4375 -76.6875 7.4375 -73.6875 9.4375 C-71.01907 9.24353 -69.96163 8.71697 -68.08203 6.80078 C-67.55996 6.12402 -67.03789 5.44727 -66.5 4.75 C-49.28517 -15.86347 -20.73915 -13.95179 0 0 Z " fill="#292E31" transform="translate(412.6875,159.5625)"/>
    <path d="M0 0 C5.94829 4.81789 9.44202 9.23132 10.30469 16.94141 C11.04408 39.26181 -0.8739 57.86228 -13.07031 75.58984 C-13.76125 76.61852 -14.45219 77.64719 -15.16406 78.70703 C-20.43233 85.98328 -26.5926 89.61462 -35.44922 91.19141 C-48.36528 92.61259 -57.2592 91.90575 -67.82031 84.33984 C-73.74137 79.51413 -77.07103 73.9381 -79.07031 66.58984 C-80.04931 53.60856 -79.37427 43.66904 -70.68359 33.45312 C-56.04257 17.41147 -24.33043 -16.57224 0 0 Z " fill="#2A2E32" transform="translate(230.0703125,245.41015625)"/>
    <path d="M0 0 C13.06634 8.69682 21.7292 22.43406 25.41797 37.60938 C27.01516 52.74687 24.57227 66.17006 16.6875 79.30469 C14.98406 82.29674 14.98406 82.29674 14.41797 85.60938 C15.95596 88.02519 15.95596 88.02519 18.29297 90.23438 C19.03289 91.01039 19.77281 91.78641 20.53516 92.58594 C23.39789 94.59528 24.38127 94.87324 27.67188 95.33984 C33.94378 96.50478 37.30092 100.76392 41.48047 105.29688 C42.98973 106.88645 44.50142 108.47372 46.01562 110.05859 C46.74475 110.82591 47.47388 111.59322 48.2251 112.38379 C52.18437 116.40213 56.4058 120.10025 60.91797 123.48438 C63.0175 126.45872 62.96946 128.90539 62.81641 132.48438 C62.24332 135.54083 60.91673 136.84554 58.41797 138.60938 C55.54309 140.04681 53.6091 139.95142 50.41797 139.60938 C47.80469 137.76562 47.80469 137.76562 45.10547 135.10938 C44.06921 134.10787 43.03274 133.10658 41.99609 132.10547 C41.15208 131.27572 41.15208 131.27572 40.29102 130.4292 C38.21006 128.40737 36.09184 126.43035 33.96484 124.45703 C32.4283 123.02874 30.89184 121.60036 29.35547 120.17188 C28.61708 119.48609 27.87869 118.80031 27.11792 118.09375 C26.42158 117.4402 25.72525 116.78664 25.00781 116.11328 C24.38769 115.53393 23.76757 114.95458 23.12866 114.35767 C20.28704 111.45359 18.5851 109.46176 17.79297 105.42188 C16.43966 99.86364 11.49552 96.30937 7.41797 92.60938 C3.71447 94.00743 0.3134 95.68563 -3.14453 97.60938 C-16.03156 104.7589 -30.64689 107.02585 -45.20703 103.54688 C-61.72282 98.2409 -73.76004 89.14802 -82.125 73.77344 C-88.28393 60.87761 -90.27395 45.01243 -86.01953 31.17188 C-80.12982 16.28051 -70.84445 4.29552 -56.37891 -3.00781 C-37.4604 -11.04105 -17.96363 -10.7198 0 0 Z M-65.58203 17.60938 C-74.76564 29.14863 -77.99228 41.10397 -76.58203 55.60938 C-74.92137 63.67013 -71.4987 70.08533 -66.58203 76.60938 C-66.00453 77.47562 -65.42703 78.34188 -64.83203 79.23438 C-56.88891 87.61878 -45.81772 93.57725 -34.20166 93.9021 C-19.96489 94.03896 -9.0134 90.31676 1.60156 80.61328 C11.90306 70.0002 14.83255 57.56662 14.69531 43.17188 C13.84946 32.30682 8.03678 21.70771 0.16797 14.29688 C-4.34553 10.52928 -9.15282 7.8363 -14.58203 5.60938 C-15.45215 5.24457 -16.32227 4.87977 -17.21875 4.50391 C-35.26453 -0.29573 -52.59453 4.41702 -65.58203 17.60938 Z " fill="#292E31" transform="translate(368.58203125,233.390625)"/>
    <path d="M0 0 C2.63995 0.07187 3.79303 0.14408 6.0625 1.5625 C7.0625 3.3125 7.0625 3.3125 7.0625 7.3125 C7.65676 7.33828 8.25102 7.36406 8.86328 7.39062 C24.01766 8.42763 36.64392 15.49784 47.0625 26.3125 C53.86438 34.32673 57.0625 41.784 57.0625 52.3125 C39.2425 52.3125 21.4225 52.3125 3.0625 52.3125 C3.0625 37.4625 3.0625 22.6125 3.0625 7.3125 C1.0825 7.3125 -0.8975 7.3125 -2.9375 7.3125 C-2.9375 22.1625 -2.9375 37.0125 -2.9375 52.3125 C-20.0975 52.3125 -37.2575 52.3125 -54.9375 52.3125 C-54.9375 40.12114 -51.00918 31.58047 -42.75 22.6875 C-33.95227 14.3903 -22.45996 8.12788 -10.125 8.0625 C-9.07313 8.145 -8.02125 8.2275 -6.9375 8.3125 C-6.75187 6.88938 -6.75187 6.88938 -6.5625 5.4375 C-5.61979 0.72393 -4.81392 0.38206 0 0 Z " fill="#7BA963" transform="translate(264.9375,109.6875)"/>
    <path d="M0 0 C9.58289 6.8632 17.33622 17.66346 19.46484 29.42578 C20.26156 44.30398 17.68295 56.81686 8.61328 68.89062 C0.07316 78.04577 -11.9653 83.30715 -24.37988 83.82812 C-36.34318 84.0291 -45.0142 80.46974 -54.53516 73.42578 C-55.40141 72.84828 -56.26766 72.27078 -57.16016 71.67578 C-65.8414 63.45145 -71.49805 51.92596 -71.82788 39.94409 C-71.94748 27.35962 -68.4729 17.3996 -60.53516 7.42578 C-44.28043 -9.08533 -19.82497 -12.31042 0 0 Z M-53.99609 8.66797 C-62.63118 17.64731 -66.88088 27.47148 -66.67969 39.89062 C-66.02896 51.30468 -60.23799 61.81335 -51.97656 69.51562 C-41.70047 77.55564 -31.10362 78.24054 -18.53516 77.42578 C-7.61318 75.74108 1.24003 69.87107 7.76562 61.08203 C10.93411 56.12899 13.34747 51.30153 13.58984 45.36328 C6.42003 26.64211 -13.51326 12.56125 -30.21875 2.85156 C-40.20807 -1.44302 -46.30735 1.66267 -53.99609 8.66797 Z " fill="#F8F8F8" transform="translate(363.53515625,243.57421875)"/>
    <path d="M0 0 C1.06867 -0.0062 2.13735 -0.0124 3.2384 -0.01878 C5.49438 -0.02588 7.7504 -0.02272 10.00635 -0.01001 C13.45703 0.00386 16.90501 -0.03023 20.35547 -0.06836 C22.54948 -0.06931 24.74349 -0.06745 26.9375 -0.0625 C27.96782 -0.07576 28.99815 -0.08902 30.05969 -0.10268 C37.24186 -0.00935 37.24186 -0.00935 41.0957 3.04321 C41.71381 3.87587 42.33191 4.70852 42.96875 5.56641 C43.46375 6.06141 43.46375 6.06141 43.96875 6.56641 C43.81142 10.65688 43.53814 12.91124 40.81641 16.04297 C37.86551 18.65789 34.90887 20.66245 31.53125 22.69141 C29.8935 23.68527 29.8935 23.68527 28.22266 24.69922 C25.18606 26.4417 22.11726 28.03727 18.96875 29.56641 C18.9902 34.48988 19.26179 37.65479 22.34375 41.62891 C26.71555 44.68811 31.88384 44.29504 36.96875 43.56641 C40.04949 42.18322 41.60721 40.92795 43.96875 38.56641 C46.46875 38.31641 46.46875 38.31641 48.96875 38.56641 C50.96875 40.56641 50.96875 40.56641 51.03125 42.81641 C49.17958 47.60897 45.14257 50.50994 40.59766 52.71875 C34.46211 54.69707 27.37699 54.63926 21.53125 51.81641 C18.44842 50.01434 15.65804 47.91953 12.96875 45.56641 C12.12313 46.32953 11.2775 47.09266 10.40625 47.87891 C4.26074 52.89798 -1.14052 54.24252 -9.01953 54.05469 C-14.80365 53.11692 -19.04921 49.89124 -22.79297 45.5 C-24.03125 43.56641 -24.03125 43.56641 -23.78125 41.37891 C-23.03125 39.56641 -23.03125 39.56641 -22.03125 38.56641 C-19.84375 38.19141 -19.84375 38.19141 -17.03125 38.56641 C-16.165 39.39141 -15.29875 40.21641 -14.40625 41.06641 C-11.54983 43.66382 -9.36387 44.00946 -5.53125 44.12891 C-0.67049 43.89744 2.30924 42.94442 5.96875 39.56641 C8.36073 36.26319 8.5091 32.55007 8.96875 28.56641 C8.26492 28.46844 7.56109 28.37047 6.83594 28.26953 C-0.92028 26.36746 -11.47272 20.01456 -16.53125 13.69141 C-17.32401 10.32217 -16.92268 7.89441 -16.03125 4.56641 C-11.57958 -0.63361 -6.34708 -0.03055 0 0 Z " fill="#272C2F" transform="translate(252.03125,340.43359375)"/>
    <path d="M0 0 C0.93246 -0.00571 1.86491 -0.01142 2.82562 -0.0173 C3.85682 -0.01842 4.88801 -0.01954 5.95045 -0.02069 C7.03003 -0.02566 8.10961 -0.03062 9.22191 -0.03574 C12.81055 -0.0504 16.39914 -0.05717 19.98781 -0.06268 C22.47024 -0.06843 24.95266 -0.07419 27.43509 -0.07996 C32.64643 -0.09048 37.85776 -0.09631 43.06911 -0.09979 C48.43245 -0.10356 53.79566 -0.11766 59.15895 -0.14081 C65.61806 -0.16826 72.07703 -0.1812 78.5362 -0.18313 C81.00467 -0.18617 83.47313 -0.19423 85.94157 -0.20731 C89.3874 -0.22427 92.83273 -0.22252 96.27858 -0.216 C97.82234 -0.22983 97.82234 -0.22983 99.39728 -0.24393 C100.33255 -0.23836 101.26783 -0.23279 102.23145 -0.22705 C103.04686 -0.22852 103.86226 -0.22998 104.70238 -0.23149 C105.35474 -0.10876 106.00709 0.01398 106.67921 0.14044 C108.83116 3.36836 108.88008 4.42445 108.67921 8.14044 C98.95548 14.97211 88.19197 16.39853 76.67921 18.14044 C75.6072 18.31624 74.53518 18.49203 73.43068 18.67316 C69.18595 19.20188 65.03776 19.33798 60.76515 19.37872 C59.92112 19.38847 59.07709 19.39822 58.20749 19.40826 C13.22993 19.82133 13.22993 19.82133 -4.32079 10.14044 C-4.98079 9.48044 -5.64079 8.82044 -6.32079 8.14044 C-5.60851 0.02047 -5.60851 0.02047 0 0 Z " fill="#80AA68" transform="translate(214.32078552246094,166.85955810546875)"/>
    <path d="M0 0 C1.27991 -0.00961 2.55983 -0.01922 3.87852 -0.02911 C5.28824 -0.03397 6.69795 -0.03825 8.10767 -0.04199 C9.17812 -0.04623 9.17812 -0.04623 10.27019 -0.05056 C14.06571 -0.06559 17.86119 -0.07479 21.65674 -0.0791 C24.76298 -0.08345 27.86894 -0.09718 30.9751 -0.12012 C62.33861 -0.3477 62.33861 -0.3477 76.29932 2.51367 C79.92134 3.16065 83.25345 3.27412 86.92407 3.16113 C86.92407 3.82113 86.92407 4.48113 86.92407 5.16113 C88.74938 5.22301 88.74938 5.22301 90.61157 5.28613 C96.12391 5.8881 100.47293 8.13956 105.40845 10.55566 C108.99033 12.19139 112.54493 13.41663 116.29907 14.59863 C130.9602 19.27344 144.40707 26.91949 157.92407 34.16113 C157.92407 35.15113 157.92407 36.14113 157.92407 37.16113 C156.57442 36.46891 156.57442 36.46891 155.19751 35.7627 C147.06435 31.62617 138.85411 27.69129 130.54907 23.91113 C129.64721 23.49944 128.74535 23.08774 127.81616 22.66357 C108.71701 14.0254 89.45993 9.13752 68.92407 5.16113 C67.56234 4.88729 67.56234 4.88729 66.1731 4.60791 C53.19482 2.08991 40.22209 1.92324 27.04907 1.91113 C26.18646 1.90979 25.32384 1.90845 24.43509 1.90707 C11.05161 1.91157 -1.91169 2.57519 -15.07593 5.16113 C-16.93604 5.50338 -16.93604 5.50338 -18.83374 5.85254 C-22.27391 6.53822 -25.66939 7.32457 -29.07593 8.16113 C-29.77718 8.32839 -30.47843 8.49564 -31.20093 8.66797 C-64.7425 16.72311 -96.48826 31.44168 -124.07593 52.16113 C-125.24766 53.0246 -126.41953 53.88789 -127.59155 54.75098 C-137.10309 61.83711 -145.72715 69.7463 -154.07593 78.16113 C-156.45431 80.55419 -158.83213 82.93278 -161.29468 85.23926 C-177.6102 100.77253 -189.92652 120.72113 -201.07593 140.16113 C-201.44041 140.79148 -201.80489 141.42184 -202.18042 142.07129 C-212.40071 159.93199 -219.83574 179.28874 -225.07593 199.16113 C-225.43393 200.4662 -225.7933 201.77089 -226.15405 203.0752 C-227.16059 206.76333 -228.15499 210.45082 -229.07593 214.16113 C-229.30933 215.09917 -229.54273 216.0372 -229.7832 217.00366 C-234.78378 237.80334 -236.4622 258.76778 -236.45093 280.09863 C-236.45265 280.92723 -236.45437 281.75582 -236.45615 282.60953 C-236.45347 293.93137 -235.6272 304.94977 -234.07593 316.16113 C-233.96104 317.05437 -233.84615 317.94761 -233.72778 318.86792 C-227.05224 369.78151 -206.46245 422.80754 -171.73218 461.20801 C-169.24794 463.96989 -166.93786 466.80769 -164.63843 469.72363 C-151.63455 485.69042 -135.38454 497.79968 -119.07593 510.16113 C-119.73593 510.82113 -120.39593 511.48113 -121.07593 512.16113 C-122.41448 511.37832 -123.74666 510.58461 -125.07593 509.78613 C-125.81843 509.34527 -126.56093 508.90441 -127.32593 508.4502 C-127.90343 508.0248 -128.48093 507.59941 -129.07593 507.16113 C-129.07593 506.50113 -129.07593 505.84113 -129.07593 505.16113 C-129.6328 505.07863 -130.18968 504.99613 -130.76343 504.91113 C-133.81271 503.92218 -135.72783 502.31356 -138.07593 500.16113 C-138.07593 499.50113 -138.07593 498.84113 -138.07593 498.16113 C-138.73593 498.16113 -139.39593 498.16113 -140.07593 498.16113 C-140.07593 497.50113 -140.07593 496.84113 -140.07593 496.16113 C-141.09687 495.85176 -141.09687 495.85176 -142.13843 495.53613 C-145.99232 493.73218 -149.15381 491.2601 -152.07593 488.16113 C-152.07593 487.50113 -152.07593 486.84113 -152.07593 486.16113 C-152.97312 485.72801 -152.97312 485.72801 -153.88843 485.28613 C-156.07593 484.16113 -156.07593 484.16113 -159.07593 482.16113 C-159.07593 481.50113 -159.07593 480.84113 -159.07593 480.16113 C-159.73593 480.16113 -160.39593 480.16113 -161.07593 480.16113 C-164.07593 476.69959 -164.07593 476.69959 -164.07593 474.16113 C-164.73593 474.16113 -165.39593 474.16113 -166.07593 474.16113 C-166.40593 472.84113 -166.73593 471.52113 -167.07593 470.16113 C-167.73593 470.16113 -168.39593 470.16113 -169.07593 470.16113 C-170.70733 468.23526 -172.21316 466.31787 -173.70093 464.28613 C-174.12116 463.73055 -174.5414 463.17496 -174.97437 462.60254 C-178.07593 458.42349 -178.07593 458.42349 -178.07593 456.16113 C-178.73593 456.16113 -179.39593 456.16113 -180.07593 456.16113 C-187.0667 448.61929 -200.07593 433.85614 -200.07593 423.16113 C-201.06593 422.83113 -202.05593 422.50113 -203.07593 422.16113 C-203.07593 421.50113 -203.07593 420.84113 -203.07593 420.16113 C-203.73593 420.16113 -204.39593 420.16113 -205.07593 420.16113 C-205.30667 419.55527 -205.53741 418.94941 -205.77515 418.3252 C-207.53223 413.81095 -209.38979 409.45399 -211.63843 405.16113 C-214.12612 400.32395 -215.70174 395.41209 -217.07593 390.16113 C-217.73593 390.16113 -218.39593 390.16113 -219.07593 390.16113 C-220.21131 386.87296 -221.33225 383.58002 -222.45093 380.28613 C-222.76804 379.36832 -223.08515 378.45051 -223.41187 377.50488 C-225.21077 372.18313 -226.5639 366.98796 -227.57104 361.46484 C-228.17445 358.71159 -229.23926 356.211 -230.28198 353.59961 C-232.23455 347.6026 -233.09105 341.23563 -234.20093 335.03613 C-234.46719 333.58158 -234.73411 332.12716 -235.00171 330.67285 C-235.70459 326.83761 -236.39776 323.00084 -237.07593 319.16113 C-237.33605 317.74993 -237.33605 317.74993 -237.60143 316.31023 C-238.06111 313.25948 -238.23544 310.36654 -238.28467 307.28394 C-238.31321 305.5699 -238.31321 305.5699 -238.34233 303.82124 C-238.35625 302.59149 -238.37018 301.36174 -238.38452 300.09473 C-238.40728 298.15856 -238.40728 298.15856 -238.4305 296.18327 C-238.47362 291.98844 -238.49669 287.79364 -238.51343 283.59863 C-238.51658 282.88787 -238.51974 282.17711 -238.52299 281.44482 C-238.61071 258.17696 -237.31257 235.92077 -232.07593 213.16113 C-231.75629 211.71334 -231.43722 210.26542 -231.11865 208.81738 C-229.28933 200.63358 -227.14938 192.75363 -224.13843 184.91113 C-223.61249 183.50795 -223.61249 183.50795 -223.07593 182.07642 C-222.38788 180.24505 -221.69556 178.41528 -220.99829 176.5874 C-220.22538 174.55427 -219.4742 172.51291 -218.72827 170.46973 C-213.39703 156.03019 -206.57029 142.88438 -198.22925 129.98193 C-196.52965 127.2987 -194.96026 124.54565 -193.38843 121.78613 C-190.67165 117.05596 -187.68087 112.61945 -184.45874 108.21973 C-182.91275 106.11574 -182.91275 106.11574 -182.07593 103.16113 C-180.07593 101.16113 -180.07593 101.16113 -178.07593 100.16113 C-177.58093 98.67613 -177.58093 98.67613 -177.07593 97.16113 C-175.44889 95.4324 -173.79135 93.79932 -172.07593 92.16113 C-167.75652 87.9307 -163.48427 83.71594 -159.57593 79.09863 C-156.38459 75.37293 -152.8579 72.18951 -149.15015 68.98535 C-147.43404 67.47609 -145.83823 65.93847 -144.26343 64.28613 C-142.22451 62.30547 -140.57006 61.4082 -138.07593 60.16113 C-137.74593 59.17113 -137.41593 58.18113 -137.07593 57.16113 C-134.51343 55.97363 -134.51343 55.97363 -132.07593 55.16113 C-132.07593 54.50113 -132.07593 53.84113 -132.07593 53.16113 C-130.12671 51.75098 -130.12671 51.75098 -127.38843 50.09863 C-123.07181 47.43801 -118.89783 44.65936 -114.76343 41.72363 C-106.10701 35.64559 -97.03111 30.22758 -87.25562 26.14551 C-84.74081 25.00979 -82.40467 23.66269 -80.01343 22.28613 C-70.72351 17.13231 -60.52757 13.73738 -50.32593 10.86816 C-48.01932 10.14335 -45.90496 9.21468 -43.70093 8.22363 C-38.62579 6.12913 -33.43963 5.04687 -28.07593 3.97363 C-27.24529 3.80678 -26.41465 3.63993 -25.55884 3.46802 C-20.41894 2.48502 -15.32403 1.82912 -10.10718 1.41382 C-6.5126 0.96666 -3.8255 0.02315 0 0 Z " fill="#EEF5EA" transform="translate(238.075927734375,-0.1611328125)"/>
    <path d="M0 0 C0.66 0.33 1.32 0.66 2 1 C2 1.66 2 2.32 2 3 C3.32 3 4.64 3 6 3 C4.05991 4.4712 2.11878 5.91918 0.10547 7.28906 C-8.94983 13.59642 -14.52281 21.94914 -17.75 32.4375 C-19.0179 45.43344 -16.24541 56.86488 -8.17969 67.37109 C-1.77213 74.23263 6.3399 78.69405 15.75781 79.20312 C27.63337 79.41536 36.45662 77.66219 47 72 C47.33 72.99 47.66 73.98 48 75 C49.32 74.67 50.64 74.34 52 74 C48.13838 78.34433 44.35978 80.7802 39 83 C38.28199 83.30164 37.56398 83.60328 36.82422 83.91406 C26.57663 87.59975 14.49486 87.52677 4.46484 83.27344 C0.39181 81.16914 -3.31872 78.72355 -7 76 C-7.86625 75.4225 -8.7325 74.845 -9.625 74.25 C-18.30624 66.02566 -23.96289 54.50018 -24.29272 42.51831 C-24.41188 29.98037 -20.98066 19.903 -13 10 C-9.04042 6.28106 -4.89112 2.44556 0 0 Z " fill="#F0F0F0" transform="translate(316,241)"/>
    <path d="M0 0 C4.83832 2.32956 7.60062 5.20124 10 10 C10.94839 15.32803 9.99731 19.45235 7 24 C2.07686 28.44283 -0.9542 29.36719 -7.46094 29.27344 C-11.26606 28.86365 -13.21568 27.58544 -16 25 C-18.65004 21.65432 -19.87145 18.78561 -20.5625 14.5625 C-19.66618 8.88578 -17.02826 4.85441 -12.8125 1 C-8.50641 -0.53105 -4.51255 -0.64465 0 0 Z " fill="#F2F3F3" transform="translate(327,269)"/>
    <path d="M0 0 C4.42978 2.13579 7.19614 4.39013 9 9 C9.70946 14.88258 9.62347 20.09078 6 25 C1.43314 28.47082 -2.11565 29.66442 -7.85547 29.39062 C-12.20748 28.59791 -14.969 26.1732 -17.8125 22.9375 C-20.30672 18.86799 -20.63549 14.65144 -20 10 C-15.33279 1.01131 -9.80376 -1.42522 0 0 Z " fill="#F6F6F6" transform="translate(214,269)"/>
    <path d="M0 0 C5.37936 5.37936 4.24844 16.48431 4.30354 23.59224 C4.30263 24.88825 4.30172 26.18425 4.30078 27.51953 C4.30469 28.90842 4.30902 30.29731 4.31377 31.6862 C4.32118 34.58829 4.32097 37.49025 4.31567 40.39233 C4.31107 43.31957 4.31786 46.2464 4.33618 49.17358 C4.4871 73.48277 3.12642 96.85581 -4.1875 120.20703 C-5.02412 123.0829 -5.73531 125.9788 -6.43188 128.89136 C-8.49375 137.49028 -11.09828 145.39634 -15.1875 153.25 C-16.85403 156.46542 -17.63654 159.36543 -18 163 C-18.66 163 -19.32 163 -20 163 C-20.25395 163.83402 -20.50789 164.66805 -20.76953 165.52734 C-22.13612 169.38417 -23.83165 172.9234 -25.6875 176.5625 C-26.21924 177.61196 -26.21924 177.61196 -26.76172 178.68262 C-27.83493 180.79166 -28.91617 182.89639 -30 185 C-30.59426 186.15887 -31.18852 187.31773 -31.80078 188.51172 C-36.67397 197.79879 -42.06753 207.07717 -49 215 C-49.66 215 -50.32 215 -51 215 C-51.25137 215.71156 -51.50273 216.42313 -51.76172 217.15625 C-54.81701 224.17283 -60.92011 233.46006 -68 237 C-68.495 237.99 -68.495 237.99 -69 239 C-69.33 238.34 -69.66 237.68 -70 237 C-69.44313 236.32195 -68.88625 235.64391 -68.3125 234.94531 C-66.702 232.98115 -65.09412 231.01484 -63.48828 229.04688 C-62.01254 227.23985 -60.53246 225.43634 -59.04297 223.64062 C-41.68485 202.44545 -27.69036 178.63853 -18 153 C-17.66952 152.15196 -17.33903 151.30392 -16.99854 150.43018 C-9.49438 131.14734 -4.38619 111.80623 -1.1875 91.375 C-1.08209 90.7039 -0.97668 90.0328 -0.86807 89.34137 C1.38539 74.79882 2.20169 60.49823 2.1875 45.8125 C2.18823 45.04197 2.18895 44.27145 2.1897 43.47757 C2.18865 33.36459 1.85679 23.46937 0.44531 13.44141 C-0.14054 8.91387 -0.147 4.55687 0 0 Z " fill="#E8EEE1" transform="translate(527,234)"/>
    <path d="M0 0 C4.27354 0.47596 6.68314 3.20323 9.625 6.0625 C12.79618 9.62132 12.79618 9.62132 17 11 C18.55078 12.57422 18.55078 12.57422 20.3125 14.6875 C22.28071 17.03608 24.25792 19.25627 26.43359 21.41797 C29.04201 24.04227 31.40278 26.7658 33.75 29.625 C34.52859 30.56602 35.30719 31.50703 36.10938 32.47656 C38 35 38 35 39 38 C39.66 38 40.32 38 41 38 C44 42.38462 44 42.38462 44 45 C44.66 45 45.32 45 46 45 C46 45.66 46 46.32 46 47 C46.66 47 47.32 47 48 47 C49.28906 48.46094 49.28906 48.46094 50.625 50.375 C51.07102 51.00148 51.51703 51.62797 51.97656 52.27344 C53 54 53 54 53 56 C53.66 56 54.32 56 55 56 C55.41508 57.0248 55.83016 58.04961 56.25781 59.10547 C57.81389 62.73479 59.74383 65.98307 61.875 69.3125 C71 83.8923 71 83.8923 71 88 C71.66 88.33 72.32 88.66 73 89 C74.0498 91.17041 74.0498 91.17041 75.17188 94.03906 C75.58953 95.09609 76.00719 96.15312 76.4375 97.24219 C76.87063 98.35852 77.30375 99.47484 77.75 100.625 C78.59888 102.78388 79.44784 104.94274 80.29688 107.10156 C80.73234 108.22313 81.1678 109.34469 81.61646 110.50024 C82.55524 112.87495 83.52228 115.23864 84.5144 117.59155 C88.10922 126.13433 90.71612 134.65672 92.81567 143.6814 C93.31708 145.83216 93.83791 147.97755 94.36133 150.12305 C96.10821 157.39676 97.49431 164.51726 98 172 C97.34 172.33 96.68 172.66 96 173 C95.88519 172.36836 95.77039 171.73672 95.6521 171.08594 C87.47742 126.7422 71.36274 84.19777 44 48 C43.56043 47.41622 43.12086 46.83243 42.66797 46.23096 C30.86407 30.64692 17.4597 15.77433 2.39062 3.26953 C1 2 1 2 0 0 Z " fill="#EEF3E9" transform="translate(430,61)"/>
    <path d="M0 0 C4.7818 1.07346 4.7818 1.07346 7.0625 1.6875 C6.8975 2.28563 6.7325 2.88375 6.5625 3.5 C5.95109 5.80094 5.95109 5.80094 6.0625 8.6875 C4.26953 10.15234 4.26953 10.15234 1.875 11.625 C1.04871 12.1548 0.22242 12.68461 -0.62891 13.23047 C-1.39074 13.71129 -2.15258 14.19211 -2.9375 14.6875 C-7.68219 17.85063 -10.25964 21.89772 -13.28906 26.64062 C-13.83305 27.31609 -14.37703 27.99156 -14.9375 28.6875 C-15.9275 28.6875 -16.9175 28.6875 -17.9375 28.6875 C-18.02 29.30625 -18.1025 29.925 -18.1875 30.5625 C-18.9375 32.6875 -18.9375 32.6875 -21 33.9375 C-21.63937 34.185 -22.27875 34.4325 -22.9375 34.6875 C-23.06125 33.71812 -23.185 32.74875 -23.3125 31.75 C-23.62187 30.23406 -23.62187 30.23406 -23.9375 28.6875 C-24.5975 28.3575 -25.2575 28.0275 -25.9375 27.6875 C-24.85461 18.70787 -17.397 10.47964 -10.5625 5 C-3.33823 -0.35513 -3.33823 -0.35513 0 0 Z " fill="#242A2E" transform="translate(311.9375,232.3125)"/>
    <path d="M0 0 C0.96473 -0.01606 1.92945 -0.03213 2.92342 -0.04868 C7.33745 -0.09309 11.75133 -0.13419 16.16553 -0.15723 C18.49441 -0.17379 20.82323 -0.20109 23.15186 -0.23926 C26.50735 -0.29399 29.86165 -0.3159 33.21753 -0.33057 C34.77713 -0.36457 34.77713 -0.36457 36.36824 -0.39926 C43.57603 -0.37817 43.57603 -0.37817 47.55029 2.53809 C49.35425 5.19287 49.35425 5.19287 49.35425 8.19287 C48.36425 8.85287 47.37425 9.51287 46.35425 10.19287 C45.16192 12.24291 45.16192 12.24291 44.35425 14.19287 C44.35425 11.55287 44.35425 8.91287 44.35425 6.19287 C28.51425 6.19287 12.67425 6.19287 -3.64575 6.19287 C-3.64575 8.83287 -3.64575 11.47287 -3.64575 14.19287 C-2.98575 14.52287 -2.32575 14.85287 -1.64575 15.19287 C-1.97575 16.18287 -2.30575 17.17287 -2.64575 18.19287 C-5.53036 16.89977 -7.77427 15.77729 -9.64575 13.19287 C-10.58325 9.81787 -10.58325 9.81787 -10.64575 6.19287 C-7.60726 1.3732 -5.53683 0.08368 0 0 Z " fill="#262B2E" transform="translate(245.645751953125,340.80712890625)"/>
    <path d="M0 0 C3.97097 3.36173 4.06494 7.037 5 12 C5.33 8.7 5.66 5.4 6 2 C6.33 2 6.66 2 7 2 C7.04898 2.9552 7.09797 3.91039 7.14844 4.89453 C7.55561 11.93583 8.12182 18.71683 9.59766 25.63281 C10.02219 28.13057 10.06749 30.47128 10 33 C9.34 33 8.68 33 8 33 C8 33.99 8 34.98 8 36 C7.34 36 6.68 36 6 36 C5.67 36.99 5.34 37.98 5 39 C4.34 38.67 3.68 38.34 3 38 C2.18359 35.48828 2.18359 35.48828 1.4375 32.3125 C1.18871 31.27738 0.93992 30.24227 0.68359 29.17578 C-0.70258 22.73602 -1.15484 16.75647 -1.125 10.1875 C-1.12887 9.31674 -1.13273 8.44598 -1.13672 7.54883 C-1.13543 6.72189 -1.13414 5.89496 -1.13281 5.04297 C-1.13168 4.2904 -1.13056 3.53783 -1.12939 2.76245 C-1 1 -1 1 0 0 Z " fill="#262B2F" transform="translate(101,304)"/>
    <path d="M0 0 C0.66 0 1.32 0 2 0 C1.92999 0.70931 1.85998 1.41861 1.78784 2.14941 C0.96055 11.48594 0.81382 20.76852 0.8147 30.13672 C0.81252 32.73194 0.7943 35.32673 0.77539 37.92188 C0.73895 48.76796 1.47806 59.26488 3 70 C3.11513 70.89171 3.23026 71.78342 3.34888 72.70215 C5.0532 85.76053 8.13725 98.45544 11.3208 111.21973 C12.27692 115.13355 13.14467 119.06302 14 123 C12.0625 121.9375 12.0625 121.9375 10 120 C9.59038 117.67884 9.26871 115.34165 9 113 C8.56043 111.93395 8.12086 110.86789 7.66797 109.76953 C5.07849 103.08783 4.13294 95.90153 2.875 88.875 C2.60874 87.42045 2.34182 85.96602 2.07422 84.51172 C1.37133 80.67648 0.67816 76.8397 0 73 C-0.17505 72.07 -0.3501 71.14 -0.53046 70.18182 C-1.00924 66.93737 -1.12701 63.87736 -1.12939 60.59912 C-1.13255 59.35118 -1.1357 58.10323 -1.13895 56.81747 C-1.13716 55.46946 -1.13511 54.12145 -1.13281 52.77344 C-1.13349 51.37912 -1.13446 49.9848 -1.13571 48.59048 C-1.13718 45.67717 -1.13506 42.76389 -1.13037 39.85059 C-1.12466 36.12043 -1.12796 32.39035 -1.13394 28.66019 C-1.13756 25.78457 -1.13641 22.90897 -1.13382 20.03334 C-1.13315 18.65785 -1.13396 17.28236 -1.1363 15.90687 C-1.13884 13.98528 -1.13427 12.06368 -1.12939 10.14209 C-1.1286 9.04988 -1.1278 7.95767 -1.12698 6.83237 C-1.01694 4.37792 -0.71206 2.3394 0 0 Z " fill="#E8EFE1" transform="translate(1,246)"/>
    <path d="M0 0 C1.68997 1.64303 3.35216 3.31471 5 5 C6.09887 5.84031 7.203 6.67378 8.3125 7.5 C11 10 11 10 11.375 12.8125 C11.25125 13.53438 11.1275 14.25625 11 15 C8.36 15 5.72 15 3 15 C3.33 15.99 3.66 16.98 4 18 C-0.90745 16.51289 -4.51154 13.67727 -8 10 C-9.4375 7.125 -9.4375 7.125 -10 5 C-9.34 5 -8.68 5 -8 5 C-8 4.34 -8 3.68 -8 3 C-7.34 3 -6.68 3 -6 3 C-6 2.34 -6 1.68 -6 1 C-3.92446 0.44652 -2.15634 0 0 0 Z " fill="#22262A" transform="translate(304,311)"/>
    <path d="M0 0 C2.5 2.125 2.5 2.125 4 5 C3.94021 8.46759 3.60966 10.88827 1.9375 13.9375 C-1.26761 15.69514 -4.49434 15.61367 -8 15 C-10.5 13.5 -10.5 13.5 -12 11 C-12.60473 8.18943 -12.65384 5.80464 -12 3 C-8.39055 -1.48447 -5.36203 -1.65735 0 0 Z " fill="#2C3232" transform="translate(213,276)"/>
    <path d="M0 0 C2.5 1.5625 2.5 1.5625 4 4 C4.55802 7.90615 4.58393 10.05112 2.5 13.4375 C-0.53037 15.33148 -2.55831 15.64334 -6.08984 15.44531 C-8 15 -8 15 -10.5625 12.9375 C-12.43626 9.10852 -12.12963 7.06666 -11 3 C-8.71707 -1.16299 -4.22696 -0.74844 0 0 Z " fill="#2D3234" transform="translate(326,276)"/>
    <path d="M0 0 C2 1 2 1 3.9375 3.0625 C5.89279 5.34234 5.89279 5.34234 9 5 C9.6768 6.72523 10.34102 8.45539 11 10.1875 C11.37125 11.15043 11.7425 12.11336 12.125 13.10547 C12.97637 15.92182 13.17073 18.08164 13 21 C12.34 21 11.68 21 11 21 C10.89688 21.61875 10.79375 22.2375 10.6875 22.875 C10 25 10 25 7 27 C5.46074 23.42431 3.94687 19.8384 2.4375 16.25 C1.99986 15.23422 1.56223 14.21844 1.11133 13.17188 C0.49741 11.70234 0.49741 11.70234 -0.12891 10.20312 C-0.51119 9.30239 -0.89348 8.40166 -1.28735 7.47363 C-2.05724 4.80132 -2.00144 3.56063 -1 1 C-0.67 0.67 -0.34 0.34 0 0 Z " fill="#26292D" transform="translate(409,255)"/>
    <path d="M0 0 C0 0.66 0 1.32 0 2 C3.96 2 7.92 2 12 2 C12 2.99 12 3.98 12 5 C9.50277 5.67886 7.00304 6.34317 4.5 7 C3.45586 7.28617 3.45586 7.28617 2.39062 7.57812 C-4.2034 9.28769 -10.30456 9.67386 -17 8 C-18.14469 7.72156 -18.14469 7.72156 -19.3125 7.4375 C-19.86937 7.29312 -20.42625 7.14875 -21 7 C-20.34 6.67 -19.68 6.34 -19 6 C-19 4.68 -19 3.36 -19 2 C-12.56987 0.26045 -6.6505 -0.24991 0 0 Z " fill="#2E3135" transform="translate(329,407)"/>
    <path d="M0 0 C0 0.66 0 1.32 0 2 C-1.99873 2.48445 -3.99906 2.96228 -6 3.4375 C-7.11375 3.70434 -8.2275 3.97117 -9.375 4.24609 C-17.91497 6.02219 -26.18572 6.16037 -34.88672 6.16797 C-36.2342 6.17119 -37.58168 6.17456 -38.92915 6.17805 C-41.74566 6.18402 -44.56215 6.1859 -47.37866 6.1853 C-50.95099 6.1852 -54.52312 6.19883 -58.0954 6.21607 C-60.87788 6.22731 -63.66032 6.22922 -66.44282 6.22869 C-68.38838 6.23041 -70.33393 6.24118 -72.27946 6.25224 C-91.59337 6.20332 -91.59337 6.20332 -98 3 C-98 2.34 -98 1.68 -98 1 C-96.11281 1.18562 -96.11281 1.18562 -94.1875 1.375 C-92.78371 1.50842 -92.78371 1.50842 -91.35156 1.64453 C-89.00837 1.89305 -86.66963 2.1858 -84.33594 2.51172 C-58.78856 5.93544 -32.99694 4.7601 -7.67432 0.36719 C-5.07747 0.01064 -2.61723 -0.06658 0 0 Z " fill="#F5F8F1" transform="translate(317,552)"/>
    <path d="M0 0 C4.39384 1.59623 8.28996 3.78024 12.3125 6.125 C12.95768 6.49754 13.60285 6.87008 14.26758 7.25391 C15.84676 8.16632 17.42362 9.08276 19 10 C19 10.66 19 11.32 19 12 C16.69 12.33 14.38 12.66 12 13 C12 13.66 12 14.32 12 15 C7.74585 14.42658 4.90132 12.94574 1.3125 10.625 C0.35988 10.01914 -0.59273 9.41328 -1.57422 8.78906 C-4 7 -4 7 -6 4 C-5.19563 3.52562 -4.39125 3.05125 -3.5625 2.5625 C-1.15247 1.231 -1.15247 1.231 0 0 Z " fill="#21272B" transform="translate(143,384)"/>
    <path d="M0 0 C6.09433 2.48288 9.95784 8.03391 14 13 C13.67 13.66 13.34 14.32 13 15 C11.68 15 10.36 15 9 15 C7.21031 17.42673 7.21031 17.42673 6 20 C2.08061 16.19588 -1.49103 12.18424 -5 8 C-4.34 7.01 -3.68 6.02 -3 5 C-2.34 5 -1.68 5 -1 5 C-0.67 3.35 -0.34 1.7 0 0 Z " fill="#24282B" transform="translate(371,237)"/>
    <path d="M0 0 C2 1 2 1 3 2 C3.24253 6.22036 3.22853 10.44654 3.24023 14.6731 C3.24991 16.79353 3.28091 18.91299 3.3125 21.0332 C3.31903 22.38281 3.32428 23.73242 3.32812 25.08203 C3.33747 26.31156 3.34682 27.54108 3.35645 28.80786 C2.96922 32.27562 2.22054 33.41733 0 36 C-0.72045 39.15118 -0.72045 39.15118 -1 42 C-1.33 42 -1.66 42 -2 42 C-2 28.47 -2 14.94 -2 1 C-1.34 0.67 -0.68 0.34 0 0 Z " fill="#79A65F" transform="translate(271,120)"/>
    <path d="M0 0 C5.25774 1.58153 10.02008 3.85193 14.9375 6.25 C26.00649 11.55973 36.88928 16.61756 49 19 C49.60973 19.31195 50.21945 19.62391 50.84766 19.94531 C53.57873 21.28359 56.29484 21.91833 59.25 22.625 C60.32766 22.88539 61.40531 23.14578 62.51562 23.41406 C63.74539 23.7041 63.74539 23.7041 65 24 C65 24.66 65 25.32 65 26 C61.0986 27.30047 58.66822 26.1459 54.9375 24.875 C47.99863 22.59048 41.02206 20.58706 33.94116 18.78857 C29.94307 17.72702 27.20583 16.55718 24 14 C21.25655 12.56335 18.44112 11.28709 15.625 10 C13.42188 8.98259 11.21967 7.96344 9.02051 6.9375 C7.19454 6.09026 5.35948 5.26269 3.52344 4.4375 C1 3 1 3 0 0 Z " fill="#F0F5EC" transform="translate(143,526)"/>
    <path d="M0 0 C2.58709 3.88064 4.51182 8.00411 6.5625 12.1875 C7.98148 15.09707 7.98148 15.09707 10 18 C8.35 18.33 6.7 18.66 5 19 C5 19.66 5 20.32 5 21 C4.34 21 3.68 21 3 21 C3 21.66 3 22.32 3 23 C2.01 23.33 1.02 23.66 0 24 C-0.98345 22.56543 -1.96161 21.12723 -2.9375 19.6875 C-3.48277 18.88699 -4.02805 18.08648 -4.58984 17.26172 C-6 15 -6 15 -7 12 C-6.37609 11.7757 -5.75219 11.55141 -5.10938 11.32031 C-2.27669 9.54726 -2.06745 8.06304 -1.25 4.875 C-1.00766 3.96492 -0.76531 3.05484 -0.51562 2.11719 C-0.34547 1.41852 -0.17531 0.71984 0 0 Z " fill="#303438" transform="translate(293,293)"/>
    <path d="M0 0 C6.93 2.475 6.93 2.475 14 5 C14 5.99 14 6.98 14 8 C12.68 8.33 11.36 8.66 10 9 C10.33 9.99 10.66 10.98 11 12 C12.98 11.34 14.96 10.68 17 10 C17.99 10.99 18.98 11.98 20 13 C17 15 17 15 13.3125 14.5625 C5.88454 12.72402 -1.07099 9.17969 -8 6 C-7.67 5.01 -7.34 4.02 -7 3 C-3.535 2.505 -3.535 2.505 0 2 C0 1.34 0 0.68 0 0 Z " fill="#2E3437" transform="translate(162,394)"/>
    <path d="M0 0 C2.31 0.33 4.62 0.66 7 1 C8.25 3.625 8.25 3.625 9 7 C7.3125 10.375 7.3125 10.375 5 13 C4.01 13 3.02 13 2 13 C1.9175 13.61875 1.835 14.2375 1.75 14.875 C1 17 1 17 -1.0625 18.25 C-1.70187 18.4975 -2.34125 18.745 -3 19 C-3.12375 18.03062 -3.2475 17.06125 -3.375 16.0625 C-3.58125 15.05187 -3.7875 14.04125 -4 13 C-4.66 12.67 -5.32 12.34 -6 12 C-5.54301 6.97308 -3.00758 3.85104 0 0 Z " fill="#202529" transform="translate(292,248)"/>
    <path d="M0 0 C0.99 0.495 0.99 0.495 2 1 C-4.28786 6.70833 -10.42786 10.36508 -18.30469 13.50391 C-21.43032 14.76936 -24.43578 16.13379 -27.46509 17.60425 C-41.10064 24.2157 -57.62919 31.87005 -73 31 C-70.17551 29.11701 -68.52619 28.48969 -65.3125 27.6875 C-30.17978 18.64381 -30.17978 18.64381 0 0 Z " fill="#E8EFE2" transform="translate(396,520)"/>
    <path d="M0 0 C1.13767 0.96801 2.28285 1.92731 3.4375 2.875 C4.28312 3.57625 5.12875 4.2775 6 5 C2.60441 9.72957 2.60441 9.72957 0.10547 10.84766 C-2 11 -2 11 -3.96484 9.8125 C-8.28962 5.83884 -11.78548 1.92224 -15 -3 C-14.34 -3 -13.68 -3 -13 -3 C-12.67 -3.66 -12.34 -4.32 -12 -5 C-6.48445 -7.59555 -3.77923 -3.61348 0 0 Z " fill="#31383D" transform="translate(138,378)"/>
    <path d="M0 0 C7.49613 1.52464 14.71359 3.68006 22 6 C18.93882 8.62386 18.26827 9 14 9 C14 9.66 14 10.32 14 11 C8.93705 12.23848 5.56708 11.60107 0.625 10.0625 C-0.62023 9.68223 -1.86547 9.30195 -3.14844 8.91016 C-4.08945 8.6098 -5.03047 8.30945 -6 8 C-5.34 7.67 -4.68 7.34 -4 7 C-3.67 6.01 -3.34 5.02 -3 4 C-0.9375 3.3125 -0.9375 3.3125 1 3 C0.67 2.01 0.34 1.02 0 0 Z " fill="#343A3E" transform="translate(217,409)"/>
    <path d="M0 0 C2.97915 0.59583 4.62508 1.51231 6.48047 3.92578 C8.71864 7.65607 10.0163 10.08745 9.9375 14.5 C9 17 9 17 7 18 C6.505 15.525 6.505 15.525 6 13 C5.67 13.66 5.34 14.32 5 15 C4.34 15 3.68 15 3 15 C3 15.99 3 16.98 3 18 C2.01 18.33 1.02 18.66 0 19 C-5.37254 8.49294 -5.37254 8.49294 -4.47656 4.90234 C-3.375 3.3125 -3.375 3.3125 -1 1 C-0.67 0.67 -0.34 0.34 0 0 Z " fill="#313437" transform="translate(381,250)"/>
    <path d="M0 0 C0.77086 0.16113 1.54172 0.32227 2.33594 0.48828 C4.29147 0.93241 6.21358 1.51853 8.125 2.125 C8.455 3.115 8.785 4.105 9.125 5.125 C8.03188 5.41375 6.93875 5.7025 5.8125 6 C2.08486 6.94393 2.08486 6.94393 -0.875 9.125 C-5.46922 8.87441 -8.45535 8.27108 -11.875 5.125 C-11.215 4.465 -10.555 3.805 -9.875 3.125 C-13.16477 2.02841 -14.58804 2.32547 -17.875 3.125 C-18.535 1.805 -19.195 0.485 -19.875 -0.875 C-14.21677 -4.7226 -6.24335 -1.41014 0 0 Z " fill="#2A2E32" transform="translate(190.875,402.875)"/>
    <path d="M0 0 C6.93 2.475 6.93 2.475 14 5 C14 6.32 14 7.64 14 9 C11.36 9 8.72 9 6 9 C5.67 10.65 5.34 12.3 5 14 C-4.87238 11.21548 -4.87238 11.21548 -8 7 C-8 6.34 -8 5.68 -8 5 C-5.36 5 -2.72 5 0 5 C0 3.35 0 1.7 0 0 Z " fill="#2F3537" transform="translate(315,321)"/>
    <path d="M0 0 C2.11434 3.17151 3.01956 5.86433 4.125 9.5 C4.4782 10.64469 4.83141 11.78938 5.19531 12.96875 C6 16 6 16 6 19 C5.21625 19.22688 4.4325 19.45375 3.625 19.6875 C0.78125 20.78125 0.78125 20.78125 -0.3125 23.625 C-0.53938 24.40875 -0.76625 25.1925 -1 26 C-1.33 26 -1.66 26 -2 26 C-2.75057 23.06648 -3.47589 20.13047 -4.1875 17.1875 C-4.51138 15.93743 -4.51138 15.93743 -4.8418 14.66211 C-5.03193 13.85967 -5.22207 13.05723 -5.41797 12.23047 C-5.60126 11.49208 -5.78455 10.75369 -5.97339 9.99292 C-6 8 -6 8 -4.59888 6.4231 C-4.07125 5.95347 -3.54362 5.48385 -3 5 C-2.67 4.01 -2.34 3.02 -2 2 C-1.34 2 -0.68 2 0 2 C0 1.34 0 0.68 0 0 Z " fill="#303638" transform="translate(422,274)"/>
    <path d="M0 0 C5.61 0 11.22 0 17 0 C17 1.32 17 2.64 17 4 C17.99 4.33 18.98 4.66 20 5 C20 5.33 20 5.66 20 6 C-1.8259 8.4494 -1.8259 8.4494 -7 5 C-7 5.99 -7 6.98 -7 8 C-7.66 8 -8.32 8 -9 8 C-8.67 6.35 -8.34 4.7 -8 3 C-5.36 3 -2.72 3 0 3 C0 2.01 0 1.02 0 0 Z " fill="#1A1F23" transform="translate(329,327)"/>
    <path d="M0 0 C3.92488 3.7006 7.02216 7.49069 10 12 C10 12.66 10 13.32 10 14 C7.03 14.66 4.06 15.32 1 16 C-0.06366 14.62085 -1.10032 13.22085 -2.125 11.8125 C-2.70508 11.0352 -3.28516 10.25789 -3.88281 9.45703 C-5 7 -5 7 -4.36719 4.32422 C-3 2 -3 2 0 0 Z " fill="#23282C" transform="translate(121,359)"/>
    <path d="M0 0 C0 3 0 3 -1.5 4.6875 C-1.995 5.12062 -2.49 5.55375 -3 6 C-2.16667 8.16667 -2.16667 8.16667 0 9 C0.72159 10.64363 1.39351 12.3105 2 14 C-0.3125 16.5 -0.3125 16.5 -3 19 C-3.99 19 -4.98 19 -6 19 C-6.33 17.68 -6.66 16.36 -7 15 C-9.31 14.67 -11.62 14.34 -14 14 C-10.18749 7.97378 -5.77665 4.14056 0 0 Z " fill="#292F32" transform="translate(306,234)"/>
    <path d="M0 0 C0 0.99 0 1.98 0 3 C-0.99 3.66 -1.98 4.32 -3 5 C-4.19233 7.05004 -4.19233 7.05004 -5 9 C-5 6.36 -5 3.72 -5 1 C-20.51 1 -36.02 1 -52 1 C-49.60042 -1.39958 -49.00226 -1.26916 -45.72144 -1.35059 C-44.83679 -1.37691 -43.95215 -1.40324 -43.0407 -1.43036 C-41.60323 -1.4571 -41.60323 -1.4571 -40.13672 -1.48438 C-39.15258 -1.50848 -38.16845 -1.53259 -37.1545 -1.55743 C-35.06901 -1.60579 -32.98339 -1.64917 -30.89771 -1.68799 C-27.71056 -1.74955 -24.52448 -1.83266 -21.33789 -1.91797 C-19.31253 -1.96224 -17.28714 -2.00525 -15.26172 -2.04688 C-14.30948 -2.0728 -13.35724 -2.09872 -12.37614 -2.12543 C-7.79917 -2.19564 -4.14556 -2.22389 0 0 Z " fill="#202529" transform="translate(295,346)"/>
    <path d="M0 0 C1.50047 0.2475 1.50047 0.2475 3.03125 0.5 C6.87394 1.04896 10.61646 1.06419 14.5 1 C19.49246 0.91748 24.09219 1.19046 29 2 C28.67 2.99 28.34 3.98 28 5 C23.74831 6.02996 19.60273 6.19159 15.25 6.1875 C14.19136 6.18847 14.19136 6.18847 13.11133 6.18945 C7.78287 6.13563 3.10657 5.45902 -2 4 C-1.34 3.67 -0.68 3.34 0 3 C0 2.01 0 1.02 0 0 Z " fill="#2E3336" transform="translate(322,332)"/>
    <path d="M0 0 C2.375 0.375 2.375 0.375 4.375 2.375 C4.3125 4.75 4.3125 4.75 3.375 7.375 C0.8125 9.6875 0.8125 9.6875 -1.625 11.375 C-2.615 10.715 -3.605 10.055 -4.625 9.375 C-8.2644 9.69231 -8.2644 9.69231 -11.625 10.375 C-11.955 9.715 -12.285 9.055 -12.625 8.375 C-15.65434 7.71728 -15.65434 7.71728 -18.625 7.375 C-18.625 7.045 -18.625 6.715 -18.625 6.375 C-17.80516 6.27703 -16.98531 6.17906 -16.14062 6.07812 C-15.06297 5.92859 -13.98531 5.77906 -12.875 5.625 C-11.80766 5.48578 -10.74031 5.34656 -9.64062 5.20312 C-5.48532 4.06203 -4.1063 0.58661 0 0 Z " fill="#333A3C" transform="translate(298.625,378.625)"/>
    <path d="M0 0 C0 0.99 0 1.98 0 3 C3.3 3.99 6.6 4.98 10 6 C10 6.33 10 6.66 10 7 C7.58612 7.55843 5.17056 8.09704 2.75 8.625 C2.06809 8.78484 1.38617 8.94469 0.68359 9.10938 C-4.44665 10.20515 -4.44665 10.20515 -7.29688 9.14844 C-7.85891 8.76945 -8.42094 8.39047 -9 8 C-11.67391 7.1087 -14.23724 6.52268 -17 6 C-14.14854 4.09902 -11.7029 3.03734 -8.5 1.875 C-7.54094 1.5218 -6.58188 1.16859 -5.59375 0.80469 C-3 0 -3 0 0 0 Z " fill="#35383D" transform="translate(310,410)"/>
    <path d="M0 0 C4.69057 0.58632 9.08969 2.35049 13 5 C13.33 5.99 13.66 6.98 14 8 C16.18078 9.79878 16.18078 9.79878 18.8125 11.5 C26.11795 16.42066 26.11795 16.42066 28 18 C28 18.66 28 19.32 28 20 C28.63937 20.26812 29.27875 20.53625 29.9375 20.8125 C32 22 32 22 33 25 C30.16576 23.67602 27.79514 22.18578 25.34766 20.24219 C24.65922 19.70231 23.97078 19.16244 23.26147 18.6062 C22.53581 18.0349 21.81015 17.46361 21.0625 16.875 C13.98092 11.36693 6.7752 6.47581 -1 2 C-0.67 1.34 -0.34 0.68 0 0 Z " fill="#F3F8ED" transform="translate(397,36)"/>
    <path d="M0 0 C10.7426 2.70615 10.7426 2.70615 14 7 C13.01 8.485 13.01 8.485 12 10 C11.01 10 10.02 10 9 10 C9 10.66 9 11.32 9 12 C9.66 12 10.32 12 11 12 C10.67 12.66 10.34 13.32 10 14 C5.33161 12.85492 5.33161 12.85492 3 11 C1.47234 7.42844 0.68024 3.8158 0 0 Z " fill="#23282A" transform="translate(326,164)"/>
    <path d="M0 0 C0.88945 0.00322 1.77891 0.00645 2.69531 0.00977 C4.0759 0.02233 4.0759 0.02233 5.48438 0.03516 C6.42023 0.03967 7.35609 0.04418 8.32031 0.04883 C10.62507 0.06059 12.92969 0.07702 15.23438 0.09766 C15.56437 1.08766 15.89438 2.07766 16.23438 3.09766 C12.42533 5.63702 9.33091 5.39261 4.92188 5.34766 C4.17486 5.35539 3.42785 5.36313 2.6582 5.37109 C-1.86822 5.3552 -5.50461 4.80477 -9.76562 3.09766 C-8.76562 1.09766 -8.76562 1.09766 -7.00098 0.47876 C-4.61997 0.07282 -2.41498 -0.01548 0 0 Z " fill="#373C3E" transform="translate(331.765625,315.90234375)"/>
    <path d="M0 0 C3.96 0 7.92 0 12 0 C12 0.66 12 1.32 12 2 C13.27875 2.06188 14.5575 2.12375 15.875 2.1875 C21.57524 2.78562 26.06889 5.21016 31 8 C31 8.33 31 8.66 31 9 C25.94353 9.19324 21.89035 8.613 17.0625 7.125 C12.06101 5.61975 7.07804 4.21873 2 3 C2 2.34 2 1.68 2 1 C1.34 0.67 0.68 0.34 0 0 Z " fill="#F3F8ED" transform="translate(313,3)"/>
    <path d="M0 0 C0 0.66 0 1.32 0 2 C0.99 2.33 1.98 2.66 3 3 C-1.95676 3.80258 -6.71365 4.16222 -11.75 4.1875 C-13.04422 4.20168 -14.33844 4.21586 -15.67188 4.23047 C-19 4 -19 4 -22 2 C-21.67 1.34 -21.34 0.68 -21 0 C-19.10938 -0.37891 -19.10938 -0.37891 -16.75 -0.5625 C-14.16839 -0.78239 -11.88771 -1.02941 -9.375 -1.6875 C-5.94786 -2.13844 -3.23695 -1.07898 0 0 Z " fill="#373D3F" transform="translate(195,333)"/>
    <path d="M0 0 C1.50434 0.01354 1.50434 0.01354 3.03906 0.02734 C3.80992 0.03895 4.58078 0.05055 5.375 0.0625 C4.385 0.5575 4.385 0.5575 3.375 1.0625 C4.035 2.0525 4.695 3.0425 5.375 4.0625 C6.035 4.0625 6.695 4.0625 7.375 4.0625 C7.375 5.3825 7.375 6.7025 7.375 8.0625 C4.08981 9.15756 1.63837 9.16211 -1.8125 9.125 C-3.44252 9.11146 -3.44252 9.11146 -5.10547 9.09766 C-5.93691 9.08605 -6.76836 9.07445 -7.625 9.0625 C-7.625 8.7325 -7.625 8.4025 -7.625 8.0625 C-5.645 8.0625 -3.665 8.0625 -1.625 8.0625 C-1.295 7.0725 -0.965 6.0825 -0.625 5.0625 C-3.265 4.7325 -5.905 4.4025 -8.625 4.0625 C-8.295 3.0725 -7.965 2.0825 -7.625 1.0625 C-4.98042 -0.25979 -2.94739 -0.03427 0 0 Z " fill="#2D3135" transform="translate(247.625,384.9375)"/>
    <path d="M0 0 C0.66 0.66 1.32 1.32 2 2 C2.99 1.67 3.98 1.34 5 1 C5.33 2.98 5.66 4.96 6 7 C6.66 7 7.32 7 8 7 C7.01 9.97 6.02 12.94 5 16 C-0.13033 13.43484 -0.13033 13.43484 -2 10 C-1.85547 7.42188 -1.85547 7.42188 -1.1875 4.75 C-0.9748 3.85797 -0.76211 2.96594 -0.54297 2.04688 C-0.36379 1.37141 -0.18461 0.69594 0 0 Z " fill="#2F3436" transform="translate(420,330)"/>
    <path d="M0 0 C0.33 0.66 0.66 1.32 1 2 C2.32 2 3.64 2 5 2 C4.50342 7.66105 3.45489 11.87674 1 17 C0.34 16.67 -0.32 16.34 -1 16 C-1.59766 14.03906 -1.59766 14.03906 -2.0625 11.625 C-2.58411 8.97817 -3.14392 6.56824 -4 4 C-2.68 2.68 -1.36 1.36 0 0 Z " fill="#202529" transform="translate(114,265)"/>
    <path d="M0 0 C-0.99 1.485 -0.99 1.485 -2 3 C-4.39844 3.37231 -4.39844 3.37231 -7.375 3.36328 C-8.44234 3.36264 -9.50969 3.36199 -10.60938 3.36133 C-11.72828 3.34521 -12.84719 3.3291 -14 3.3125 C-15.67836 3.31733 -15.67836 3.31733 -17.39062 3.32227 C-25.73315 3.26685 -25.73315 3.26685 -28 1 C-18.64941 -1.49349 -9.52416 -1.73166 0 0 Z " fill="#353A3C" transform="translate(393,150)"/>
    <path d="M0 0 C2.475 0.99 2.475 0.99 5 2 C5 4.64 5 7.28 5 10 C4.34 10 3.68 10 3 10 C1.28878 14.52151 0.64776 18.55617 0.375 23.375 C0.30023 24.62023 0.22547 25.86547 0.14844 27.14844 C0.09945 28.08945 0.05047 29.03047 0 30 C-0.33 30 -0.66 30 -1 30 C-1 22.41 -1 14.82 -1 7 C-1.99 7.495 -1.99 7.495 -3 8 C-2.45276 4.62537 -1.9451 2.91765 0 0 Z " fill="#181B1F" transform="translate(424,292)"/>
    <path d="M0 0 C-10.37358 5.74032 -10.37358 5.74032 -16 5 C-15.01 4.34 -14.02 3.68 -13 3 C-14.01637 1.76079 -14.01637 1.76079 -16.13306 1.88647 C-17.50772 1.89433 -17.50772 1.89433 -18.91016 1.90234 C-20.39419 1.90718 -20.39419 1.90718 -21.9082 1.91211 C-23.46958 1.92468 -23.46958 1.92468 -25.0625 1.9375 C-26.62968 1.94427 -26.62968 1.94427 -28.22852 1.95117 C-30.81907 1.963 -33.40951 1.97948 -36 2 C-35.67 1.34 -35.34 0.68 -35 0 C-30.33712 -0.16748 -25.67408 -0.32805 -21.01074 -0.48218 C-19.42376 -0.53561 -17.83685 -0.59094 -16.25 -0.64819 C-13.97149 -0.73008 -11.69285 -0.80517 -9.41406 -0.87891 C-8.70255 -0.90594 -7.99104 -0.93298 -7.25797 -0.96083 C-2.22774 -1.11387 -2.22774 -1.11387 0 0 Z " fill="#1F2427" transform="translate(360,315)"/>
    <path d="M0 0 C2.38564 0.57584 4.66683 1.22228 7 2 C8.56118 2.06741 10.12503 2.08514 11.6875 2.0625 C12.49574 2.05348 13.30398 2.04445 14.13672 2.03516 C14.7516 2.02355 15.36648 2.01195 16 2 C16 2.99 16 3.98 16 5 C14.12744 5.50905 12.25181 6.00682 10.375 6.5 C9.33086 6.77844 8.28672 7.05687 7.21094 7.34375 C4.04313 7.99119 1.22259 8.11613 -2 8 C-2 7.34 -2 6.68 -2 6 C-1.34 6 -0.68 6 0 6 C-0.18563 5.38125 -0.37125 4.7625 -0.5625 4.125 C-1 2 -1 2 0 0 Z " fill="#1E2125" transform="translate(325,407)"/>
    <path d="M0 0 C3.96 0 7.92 0 12 0 C12.33 0.66 12.66 1.32 13 2 C13.99 2.66 14.98 3.32 16 4 C9.61059 7.07183 9.61059 7.07183 6.875 6.75 C6.25625 6.5025 5.6375 6.255 5 6 C3.3348 5.65939 1.66843 5.32442 0 5 C-0.33 4.01 -0.66 3.02 -1 2 C-0.67 1.34 -0.34 0.68 0 0 Z " fill="#23282B" transform="translate(289,416)"/>
    <path d="M0 0 C0 0.66 0 1.32 0 2 C-11.0608 4.96571 -22.60308 7.29678 -34 5 C-34 4.67 -34 4.34 -34 4 C-29.96212 3.42594 -25.92362 2.85642 -21.88452 2.29102 C-20.51195 2.09824 -19.13955 1.90424 -17.76733 1.70898 C-15.78936 1.42775 -13.8107 1.15132 -11.83203 0.875 C-10.64327 0.70742 -9.45452 0.53984 -8.22974 0.36719 C-5.44493 0.05058 -2.79771 -0.07381 0 0 Z " fill="#EAF1E2" transform="translate(317,552)"/>
    <path d="M0 0 C0.33 0.66 0.66 1.32 1 2 C-4.94 2.495 -4.94 2.495 -11 3 C-11 3.33 -11 3.66 -11 4 C-15.84242 5.33584 -19.93438 6.25328 -25 6 C-25.33 5.01 -25.66 4.02 -26 3 C-17.14088 -0.09425 -9.27245 -0.33786 0 0 Z " fill="#393E40" transform="translate(158,149)"/>
    <path d="M0 0 C2.31 0.33 4.62 0.66 7 1 C7 1.66 7 2.32 7 3 C2.41378 5.29311 -3.96454 4.23018 -9 4.25 C-10.96453 4.28094 -10.96453 4.28094 -12.96875 4.3125 C-14.21656 4.31766 -15.46438 4.32281 -16.75 4.32812 C-18.47477 4.34214 -18.47477 4.34214 -20.23438 4.35645 C-21.14703 4.23882 -22.05969 4.12119 -23 4 C-23.66 3.01 -24.32 2.02 -25 1 C-16.75 1 -8.5 1 0 1 C0 0.67 0 0.34 0 0 Z " fill="#1D2325" transform="translate(390,151)"/>
    <path d="M0 0 C0.83531 1.02094 0.83531 1.02094 1.6875 2.0625 C1.0275 2.0625 0.3675 2.0625 -0.3125 2.0625 C0.3475 3.7125 1.0075 5.3625 1.6875 7.0625 C0.3675 7.0625 -0.9525 7.0625 -2.3125 7.0625 C-2.3125 7.7225 -2.3125 8.3825 -2.3125 9.0625 C-5.66249 7.94584 -6.1059 7.31555 -8 4.5 C-8.43699 3.85934 -8.87398 3.21867 -9.32422 2.55859 C-9.65035 2.06488 -9.97648 1.57117 -10.3125 1.0625 C-9.6525 1.0625 -8.9925 1.0625 -8.3125 1.0625 C-7.9825 0.4025 -7.6525 -0.2575 -7.3125 -0.9375 C-3.85705 -2.24497 -2.90236 -2.43171 0 0 Z " fill="#2C3236" transform="translate(133.3125,373.9375)"/>
    <path d="M0 0 C3.02066 1.46181 5.89176 3.08862 8.76562 4.82031 C10.0998 5.62275 10.0998 5.62275 11.46094 6.44141 C12.84152 7.27479 12.84152 7.27479 14.25 8.125 C15.65379 8.96998 15.65379 8.96998 17.08594 9.83203 C19.39143 11.22003 21.69608 12.6094 24 14 C23.01 14.66 22.02 15.32 21 16 C20.11312 15.40188 19.22625 14.80375 18.3125 14.1875 C13.16796 10.71187 13.16796 10.71187 7.5625 8.125 C4.12491 6.61581 1.81006 4.48331 -1 2 C-0.67 1.34 -0.34 0.68 0 0 Z " fill="#F1F6EC" transform="translate(119,511)"/>
    <path d="M0 0 C-0.33 0.66 -0.66 1.32 -1 2 C-0.36063 2.28875 0.27875 2.5775 0.9375 2.875 C3 4 3 4 4 6 C2.68 6.33 1.36 6.66 0 7 C0 6.01 0 5.02 0 4 C-0.60328 4.08379 -1.20656 4.16758 -1.82812 4.25391 C-2.62734 4.35574 -3.42656 4.45758 -4.25 4.5625 C-5.03891 4.66691 -5.82781 4.77133 -6.64062 4.87891 C-9.07483 5.00384 -10.73178 4.88693 -13 4 C-13.66 3.01 -14.32 2.02 -15 1 C-13.25215 0.63536 -11.50159 0.28369 -9.75 -0.0625 C-8.2882 -0.35834 -8.2882 -0.35834 -6.79688 -0.66016 C-4.13188 -0.98398 -2.51128 -0.85503 0 0 Z " fill="#282C30" transform="translate(341,405)"/>
    <path d="M0 0 C0.33 0 0.66 0 1 0 C1.09797 0.66387 1.19594 1.32773 1.29688 2.01172 C2.20768 7.39016 3.02134 11.02134 7 15 C7.5775 15.59812 8.155 16.19625 8.75 16.8125 C9.1625 17.20438 9.575 17.59625 10 18 C7.625 18.125 7.625 18.125 5 18 C4.34 17.34 3.68 16.68 3 16 C2.67 16.66 2.34 17.32 2 18 C1.01 18 0.02 18 -1 18 C-1.09945 11.8891 -1.07128 6.02597 0 0 Z " fill="#1D2426" transform="translate(306,280)"/>
    <path d="M0 0 C0.33 0 0.66 0 1 0 C1 7.26 1 14.52 1 22 C1.66 22 2.32 22 3 22 C2.74439 24.34312 2.40729 26.67843 2 29 C1.34 29.33 0.68 29.66 0 30 C-0.99532 24.21769 -1.1507 18.61044 -1.125 12.75 C-1.12887 11.85281 -1.13273 10.95562 -1.13672 10.03125 C-1.13543 9.17016 -1.13414 8.30906 -1.13281 7.42188 C-1.13168 6.64425 -1.13056 5.86662 -1.12939 5.06543 C-1 3 -1 3 0 0 Z " fill="#1F2329" transform="translate(235,256)"/>
    <path d="M0 0 C0.33 1.32 0.66 2.64 1 4 C0.34 4 -0.32 4 -1 4 C-1.33 4.99 -1.66 5.98 -2 7 C-5.3 7.66 -8.6 8.32 -12 9 C-12.495 6.525 -12.495 6.525 -13 4 C-6.565 2.02 -6.565 2.02 0 0 Z " fill="#252B2E" transform="translate(358,322)"/>
    <path d="M0 0 C0.66 0.33 1.32 0.66 2 1 C-5.04022 7.39135 -14.99546 15 -25 15 C-22.65716 12.38952 -20.26137 10.92837 -17.14844 9.33594 C-16.21516 8.85383 -15.28188 8.37172 -14.32031 7.875 C-13.34836 7.38 -12.37641 6.885 -11.375 6.375 C-9.44452 5.38436 -7.51479 4.39225 -5.58594 3.39844 C-4.73048 2.96193 -3.87503 2.52542 -2.99365 2.07568 C-1.05954 1.15505 -1.05954 1.15505 0 0 Z " fill="#EDF2EA" transform="translate(396,520)"/>
    <path d="M0 0 C1.25665 2.906 2 4.79605 2 8 C3.98 7.67 5.96 7.34 8 7 C8.93065 9.60582 9.14917 10.64198 8.0625 13.25 C7.71188 13.8275 7.36125 14.405 7 15 C2.38599 11.74305 -1.00362 7.75713 -4 3 C-4 2.34 -4 1.68 -4 1 C-2 0 -2 0 0 0 Z " fill="#23282D" transform="translate(378,203)"/>
    <path d="M0 0 C2.38281 -0.29297 2.38281 -0.29297 5.125 -0.1875 C6.03508 -0.16043 6.94516 -0.13336 7.88281 -0.10547 C8.58148 -0.07066 9.28016 -0.03586 10 0 C9.67 0.66 9.34 1.32 9 2 C11.31 2.33 13.62 2.66 16 3 C15.67 3.66 15.34 4.32 15 5 C13.10449 5.05442 11.20852 5.09298 9.3125 5.125 C8.25676 5.1482 7.20102 5.17141 6.11328 5.19531 C2.97748 4.99859 0.82355 4.33058 -2 3 C-1.34 2.01 -0.68 1.02 0 0 Z " fill="#33393C" transform="translate(275,389)"/>
    <path d="M0 0 C2.49362 1.20381 4.68143 2.45429 7 4 C6 7 6 7 3.6875 8.1875 C1 9 1 9 -3 9 C-3.33 8.01 -3.66 7.02 -4 6 C-3.34 5.67 -2.68 5.34 -2 5 C-1.27841 3.35637 -0.60649 1.6895 0 0 Z " fill="#272D30" transform="translate(359,398)"/>
    <path d="M0 0 C1.45406 0.03094 1.45406 0.03094 2.9375 0.0625 C3.5625 2.375 3.5625 2.375 3.9375 5.0625 C2.9475 6.5475 2.9475 6.5475 1.9375 8.0625 C-2.9375 7.1875 -2.9375 7.1875 -4.0625 6.0625 C-4.1875 3.5625 -4.1875 3.5625 -4.0625 1.0625 C-3.0625 0.0625 -3.0625 0.0625 0 0 Z " fill="#EBF0E8" transform="translate(234.0625,143.9375)"/>
    <path d="M0 0 C-0.99 0.33 -1.98 0.66 -3 1 C-3 1.66 -3 2.32 -3 3 C-4.4364 3.19574 -5.8742 3.38128 -7.3125 3.5625 C-8.11301 3.66691 -8.91352 3.77133 -9.73828 3.87891 C-12 4 -12 4 -15 3 C-16.33364 2.85597 -17.67218 2.7541 -19.01172 2.68359 C-20.14771 2.62075 -20.14771 2.62075 -21.30664 2.55664 C-22.48517 2.49767 -22.48517 2.49767 -23.6875 2.4375 C-24.48479 2.39432 -25.28207 2.35113 -26.10352 2.30664 C-28.06881 2.20073 -30.03438 2.09987 -32 2 C-32 1.67 -32 1.34 -32 1 C-28.16679 0.83052 -24.33341 0.66493 -20.5 0.5 C-18.88352 0.42846 -18.88352 0.42846 -17.23438 0.35547 C-11.48312 0.10999 -5.75643 -0.05589 0 0 Z " fill="#8AAD76" transform="translate(289,525)"/>
    <path d="M0 0 C3.85645 -0.22037 6.49223 0.39645 10 2 C10 4.64 10 7.28 10 10 C6.01978 7.83931 3.0275 5.3735 0 2 C0 1.34 0 0.68 0 0 Z " fill="#24272A" transform="translate(408,361)"/>
    <path d="M0 0 C1.99955 -0.04254 4.00042 -0.04081 6 0 C7 1 7 1 7.125 3.5 C7 6 7 6 6 7 C3.5625 7.1875 3.5625 7.1875 1 7 C0.34 6.34 -0.32 5.68 -1 5 C-0.625 2.375 -0.625 2.375 0 0 Z " fill="#EEF3ED" transform="translate(294,144)"/>
    <path d="M0 0 C0.33 0 0.66 0 1 0 C3.46482 9.65386 4.40846 18.04558 4 28 C3.67 28 3.34 28 3 28 C2.49106 25.02212 1.99269 22.04307 1.5 19.0625 C1.35691 18.2317 1.21383 17.4009 1.06641 16.54492 C0.15271 10.95397 -0.1372 5.66506 0 0 Z " fill="#E7F1DF" transform="translate(33,299)"/>
    <path d="M0 0 C0.33 0 0.66 0 1 0 C1.33 2.31 1.66 4.62 2 7 C2.66 6.67 3.32 6.34 4 6 C3.25 12.625 3.25 12.625 1 16 C0.34 16 -0.32 16 -1 16 C-1.02685 13.52076 -1.04677 11.04181 -1.0625 8.5625 C-1.07507 7.50192 -1.07507 7.50192 -1.08789 6.41992 C-1.09654 4.61306 -1.0522 2.80612 -1 1 C-0.67 0.67 -0.34 0.34 0 0 Z " fill="#26272F" transform="translate(427,211)"/>
    <path d="M0 0 C0.66 0.33 1.32 0.66 2 1 C2 6.28 2 11.56 2 17 C1.01 16.67 0.02 16.34 -1 16 C-1.22127 13.70955 -1.42665 11.41755 -1.625 9.125 C-1.74102 7.84883 -1.85703 6.57266 -1.97656 5.25781 C-1.98816 3.6452 -1.98816 3.6452 -2 2 C-1.34 1.34 -0.68 0.68 0 0 Z " fill="#73A35C" transform="translate(260,145)"/>
    <path d="M0 0 C0.99 0.33 1.98 0.66 3 1 C1.40621 3.63143 -0.20176 6.25391 -1.8125 8.875 C-2.26432 9.62137 -2.71613 10.36773 -3.18164 11.13672 C-3.8439 12.20986 -3.8439 12.20986 -4.51953 13.30469 C-4.92277 13.96453 -5.326 14.62437 -5.74146 15.3042 C-7 17 -7 17 -10 19 C-9.47868 14.04275 -7.14797 10.71792 -4.4375 6.6875 C-4.01275 6.04232 -3.58801 5.39715 -3.15039 4.73242 C-2.10734 3.15026 -1.05462 1.57447 0 0 Z " fill="#F1F5EB" transform="translate(490,426)"/>
    <path d="M0 0 C3.79594 0.56426 5.58711 2.18252 8.25 4.875 C8.95641 5.57367 9.66281 6.27234 10.39062 6.99219 C12 9 12 9 12 12 C9.50638 10.79619 7.31857 9.54571 5 8 C5 7.34 5 6.68 5 6 C4.34 6 3.68 6 3 6 C0 2.53846 0 2.53846 0 0 Z " fill="#F7FCF3" transform="translate(74,474)"/>
    <path d="M0 0 C0.33 0.99 0.66 1.98 1 3 C-0.375 4.5 -0.375 4.5 -2 6 C-2.66 6 -3.32 6 -4 6 C-4 6.66 -4 7.32 -4 8 C-3.34 8.33 -2.68 8.66 -2 9 C-4.31 9.33 -6.62 9.66 -9 10 C-9.33 9.34 -9.66 8.68 -10 8 C-13.02934 7.34228 -13.02934 7.34228 -16 7 C-16 6.67 -16 6.34 -16 6 C-15.18016 5.90203 -14.36031 5.80406 -13.51562 5.70312 C-12.43797 5.55359 -11.36031 5.40406 -10.25 5.25 C-9.18266 5.11078 -8.11531 4.97156 -7.01562 4.82812 C-3.60025 3.89023 -2.24492 2.68083 0 0 Z " fill="#3D4244" transform="translate(296,379)"/>
    <path d="M0 0 C5.61 0 11.22 0 17 0 C13.09618 3.90382 11.33821 3.56244 6 4 C6 3.34 6 2.68 6 2 C4.35 2 2.7 2 1 2 C0.67 1.34 0.34 0.68 0 0 Z " fill="#1D2325" transform="translate(189,331)"/>
    <path d="M0 0 C0.66 0.99 1.32 1.98 2 3 C-1.52679 5.35119 -3.02879 5.21443 -7.1875 5.125 C-8.27418 5.10695 -9.36086 5.08891 -10.48047 5.07031 C-11.72764 5.03551 -11.72764 5.03551 -13 5 C-12.35156 3.04688 -12.35156 3.04688 -11 1 C-8.39844 0.39062 -8.39844 0.39062 -5.375 0.25 C-4.37211 0.19328 -3.36922 0.13656 -2.33594 0.07812 C-1.17965 0.03945 -1.17965 0.03945 0 0 Z " fill="#2C3133" transform="translate(346,316)"/>
    <path d="M0 0 C0.40219 0.50918 0.80437 1.01836 1.21875 1.54297 C-0.65625 3.16797 -0.65625 3.16797 -3.78125 4.54297 C-7.20641 4.21353 -10.46319 3.43852 -13.78125 2.54297 C-11.05025 0.7223 -9.3899 -0.00791 -6.28125 -0.76953 C-5.50781 -0.97191 -4.73438 -1.1743 -3.9375 -1.38281 C-1.78125 -1.45703 -1.78125 -1.45703 0 0 Z " fill="#2B3033" transform="translate(295.78125,388.45703125)"/>
    <path d="M0 0 C2.45818 4.30917 2.59827 8.13347 2 13 C0.625 15.5625 0.625 15.5625 -1 17 C-1.66 17 -2.32 17 -3 17 C-2.69188 14.54104 -2.37871 12.08292 -2.0625 9.625 C-1.97549 8.92633 -1.88848 8.22766 -1.79883 7.50781 C-1.11328 2.22656 -1.11328 2.22656 0 0 Z " fill="#1A2023" transform="translate(291,285)"/>
    <path d="M0 0 C3.73884 2.65655 5.64978 4.5811 7 9 C5.68 8.67 4.36 8.34 3 8 C1.68 9.98 0.36 11.96 -1 14 C-1.66 13.67 -2.32 13.34 -3 13 C-2.69063 12.27812 -2.38125 11.55625 -2.0625 10.8125 C-0.67241 7.13286 0 3.93204 0 0 Z " fill="#1C2023" transform="translate(378,243)"/>
    <path d="M0 0 C2.31 0 4.62 0 7 0 C7 1.32 7 2.64 7 4 C3.71481 5.09506 1.26337 5.09961 -2.1875 5.0625 C-3.81752 5.04896 -3.81752 5.04896 -5.48047 5.03516 C-6.31191 5.02355 -7.14336 5.01195 -8 5 C-8 4.67 -8 4.34 -8 4 C-6.02 4 -4.04 4 -2 4 C-1.34 2.68 -0.68 1.36 0 0 Z " fill="#3C4043" transform="translate(248,389)"/>
    <path d="M0 0 C0.66 0.99 1.32 1.98 2 3 C3.32 2.67 4.64 2.34 6 2 C1.375 6.875 1.375 6.875 -2 8 C-4.6875 6.5625 -4.6875 6.5625 -7 5 C-4.70278 3.25728 -2.40133 1.60089 0 0 Z " fill="#E9E9EA" transform="translate(362,313)"/>
    <path d="M0 0 C0.66 0 1.32 0 2 0 C2 0.66 2 1.32 2 2 C0.35 2.66 -1.3 3.32 -3 4 C-3 4.66 -3 5.32 -3 6 C-4.65 6.66 -6.3 7.32 -8 8 C-8 8.66 -8 9.32 -8 10 C-11.22792 12.15194 -12.28401 12.20086 -16 12 C-13.33566 9.03755 -10.19802 7.04497 -6.875 4.875 C-3.26201 2.6641 -3.26201 2.6641 0 0 Z " fill="#EBF1E9" transform="translate(416,507)"/>
    <path d="M0 0 C0.33 0.99 0.66 1.98 1 3 C-5.435 8.94 -5.435 8.94 -12 15 C-12.99 14.67 -13.98 14.34 -15 14 C-10.05 9.38 -5.1 4.76 0 0 Z " fill="#F3F7F3" transform="translate(446,482)"/>
    <path d="M0 0 C1.30249 3.59855 0.69931 5.58099 -0.75 9.0625 C-1.09547 9.91973 -1.44094 10.77695 -1.79688 11.66016 C-2.96265 13.92736 -4.09653 15.33173 -6 17 C-5.51947 11.35381 -4.17262 4.17262 0 0 Z " fill="#EDF2E5" transform="translate(517,369)"/>
    <path d="M0 0 C2.62571 -0.38613 4.38439 -0.38494 6.66797 1.04297 C8.3125 2.375 8.3125 2.375 11 5 C11 5.66 11 6.32 11 7 C11.63937 7.26812 12.27875 7.53625 12.9375 7.8125 C15 9 15 9 16 12 C12.21752 10.31992 9.03076 7.92161 5.75 5.4375 C5.1957 5.02564 4.64141 4.61379 4.07031 4.18945 C2.69299 3.15307 1.34371 2.07961 0 1 C0 0.67 0 0.34 0 0 Z " fill="#EDF3E5" transform="translate(414,49)"/>
    <path d="M0 0 C4 2 4 2 5 3 C5.04081 4.99958 5.04254 7.00045 5 9 C4.34 8.67 3.68 8.34 3 8 C2.67 8.99 2.34 9.98 2 11 C1.34 11 0.68 11 0 11 C0 7.37 0 3.74 0 0 Z " fill="#1F2429" transform="translate(426,356)"/>
    <path d="M0 0 C6.33881 0.62197 12.67094 1.28543 19 2 C19 2.33 19 2.66 19 3 C12.10164 3.93838 6.66071 4.13646 0 2 C0 1.34 0 0.68 0 0 Z " fill="#EEF4E9" transform="translate(219,553)"/>
    <path d="M0 0 C0.66 0.66 1.32 1.32 2 2 C2.66 1.67 3.32 1.34 4 1 C4 3.97 4 6.94 4 10 C1.03 9.505 1.03 9.505 -2 9 C-1.34 6.03 -0.68 3.06 0 0 Z " fill="#383E41" transform="translate(420,330)"/>
    <path d="M0 0 C1.32 0 2.64 0 4 0 C4.054 1.45793 4.09279 2.91643 4.125 4.375 C4.1482 5.18711 4.17141 5.99922 4.19531 6.83594 C4 9 4 9 2 11 C-1.07692 4.6 -1.07692 4.6 -0.6875 1.5625 C-0.46062 1.04688 -0.23375 0.53125 0 0 Z " fill="#202226" transform="translate(412,265)"/>
    <path d="M0 0 C0.66 0 1.32 0 2 0 C0.40377 4.39384 -1.78024 8.28996 -4.125 12.3125 C-4.49754 12.95768 -4.87008 13.60285 -5.25391 14.26758 C-6.16632 15.84676 -7.08276 17.42362 -8 19 C-8.74219 17.44922 -8.74219 17.44922 -9 15 C-7.80033 12.46446 -6.58035 10.19021 -5.125 7.8125 C-4.55846 6.85054 -4.55846 6.85054 -3.98047 5.86914 C-1.2235 1.2235 -1.2235 1.2235 0 0 Z " fill="#E8F0E3" transform="translate(43,125)"/>
    <path d="M0 0 C0.33 0.99 0.66 1.98 1 3 C-2.49359 6.59635 -6.11098 9.83452 -10 13 C-10.33 12.01 -10.66 11.02 -11 10 C-5.555 5.05 -5.555 5.05 0 0 Z " fill="#86A874" transform="translate(96,65)"/>
    <path d="M0 0 C2.5625 0.375 2.5625 0.375 4.375 2.375 C4.76687 3.035 5.15875 3.695 5.5625 4.375 C4.2425 4.375 2.9225 4.375 1.5625 4.375 C-1.51204 5.15139 -1.51204 5.15139 -3.4375 7.375 C-4.0625 5 -4.0625 5 -4.4375 2.375 C-2.4375 0.375 -2.4375 0.375 0 0 Z " fill="#373B3E" transform="translate(232.4375,378.625)"/>
    <path d="M0 0 C1.32 0.66 2.64 1.32 4 2 C3.25 5.375 3.25 5.375 2 9 C0.02 9.99 0.02 9.99 -2 11 C-1.34 7.37 -0.68 3.74 0 0 Z " fill="#88AC72" transform="translate(212,147)"/>
    <path d="M0 0 C2.0625 0.4375 2.0625 0.4375 4 1 C5.03268 3.78824 5.04509 4.86773 4.0625 7.75 C3.71188 8.4925 3.36125 9.235 3 10 C0 8 0 8 -0.75 4.4375 C-0.8325 3.30312 -0.915 2.16875 -1 1 C-0.67 0.67 -0.34 0.34 0 0 Z " fill="#1F2125" transform="translate(102,219)"/>
    <path d="M0 0 C4.875 4.625 4.875 4.625 6 8 C3.69 8 1.38 8 -1 8 C-1.33 7.34 -1.66 6.68 -2 6 C-1.67 5.67 -1.34 5.34 -1 5 C-1.66 4.34 -2.32 3.68 -3 3 C-2.01 2.01 -1.02 1.02 0 0 Z " fill="#FDFEFA" transform="translate(506,94)"/>
    <path d="M0 0 C0 0.66 0 1.32 0 2 C-6.38233 4.00925 -11.40609 3.9999 -18 3 C-18 2.67 -18 2.34 -18 2 C-15.93827 1.66191 -13.87558 1.32973 -11.8125 1 C-10.66395 0.81438 -9.51539 0.62875 -8.33203 0.4375 C-5.49585 0.06511 -2.8528 -0.08596 0 0 Z " fill="#E2E9DA" transform="translate(317,552)"/>
    <path d="M0 0 C-13.44875 5.74032 -13.44875 5.74032 -21 5 C-18.02265 3.0151 -15.92472 2.3167 -12.5 1.4375 C-3.16823 -0.98324 -3.16823 -0.98324 0 0 Z " fill="#E0E8DB" transform="translate(344,546)"/>
    <path d="M0 0 C0.77924 0.00902 1.55848 0.01805 2.36133 0.02734 C4.26185 0.05066 6.16222 0.08652 8.0625 0.125 C8.0625 0.455 8.0625 0.785 8.0625 1.125 C7.22848 1.17398 6.39445 1.22297 5.53516 1.27344 C0.20166 1.62778 -4.9325 1.99741 -10.125 3.3125 C-11.38313 3.58062 -12.64125 3.84875 -13.9375 4.125 C-14.5975 3.465 -15.2575 2.805 -15.9375 2.125 C-10.4669 0.27967 -5.7493 -0.12809 0 0 Z " fill="#4D4F51" transform="translate(336.9375,224.875)"/>
    <path d="M0 0 C2.97 0.495 2.97 0.495 6 1 C6 1.66 6 2.32 6 3 C7.32 3.33 8.64 3.66 10 4 C10 4.66 10 5.32 10 6 C10.63937 6.2475 11.27875 6.495 11.9375 6.75 C14 8 14 8 14.62891 10.07812 C14.8126 11.02945 14.8126 11.02945 15 12 C14.5875 11.62488 14.175 11.24977 13.75 10.86328 C9.88385 7.43725 5.96083 4.59373 1.50391 1.98047 C1.00762 1.65691 0.51133 1.33336 0 1 C0 0.67 0 0.34 0 0 Z " fill="#ECEFE7" transform="translate(297,124)"/>
    <path d="M0 0 C0.66 0 1.32 0 2 0 C2 0.66 2 1.32 2 2 C3.98 1.34 5.96 0.68 8 0 C8.99 0.99 9.98 1.98 11 3 C8 5 8 5 5.73828 4.75781 C4.93777 4.54898 4.13727 4.34016 3.3125 4.125 C2.50426 3.92133 1.69602 3.71766 0.86328 3.50781 C0.2484 3.34023 -0.36648 3.17266 -1 3 C-0.67 2.01 -0.34 1.02 0 0 Z " fill="#3B3F43" transform="translate(171,404)"/>
    <path d="M0 0 C0.66 0.33 1.32 0.66 2 1 C0.84941 6.39796 -0.42422 11.70987 -2 17 C-2.33 17 -2.66 17 -3 17 C-3.40214 10.83382 -1.96818 5.82254 0 0 Z " fill="#F1F2EC" transform="translate(526,332)"/>
    <path d="M0 0 C0.33 0 0.66 0 1 0 C0.67 6.93 0.34 13.86 0 21 C-0.33 21 -0.66 21 -1 21 C-1.22537 17.87598 -1.42739 14.75089 -1.625 11.625 C-1.68945 10.73555 -1.75391 9.84609 -1.82031 8.92969 C-1.87187 8.07891 -1.92344 7.22812 -1.97656 6.35156 C-2.05511 5.17328 -2.05511 5.17328 -2.13525 3.97119 C-2 2 -2 2 0 0 Z " fill="#404244" transform="translate(423,298)"/>
    <path d="M0 0 C0.99 0.33 1.98 0.66 3 1 C2.1875 3.4375 2.1875 3.4375 1 6 C-2.1335 7.0445 -2.98968 6.93424 -6 6 C-6 5.01 -6 4.02 -6 3 C-5.19563 2.69063 -4.39125 2.38125 -3.5625 2.0625 C-1.1092 1.23665 -1.1092 1.23665 0 0 Z " fill="#383D3F" transform="translate(327,284)"/>
    <path d="M0 0 C1.5625 1.1875 1.5625 1.1875 3 3 C2.6875 5.6875 2.6875 5.6875 2 8 C1.67 7.34 1.34 6.68 1 6 C0.34 6 -0.32 6 -1 6 C-1.33 6.99 -1.66 7.98 -2 9 C-2.495 6.525 -2.495 6.525 -3 4 C-3.66 4 -4.32 4 -5 4 C-3.74458 1.48917 -2.49937 1.12875 0 0 Z " fill="#212628" transform="translate(213,277)"/>
    <path d="M0 0 C-2.25598 2.25598 -4.04604 2.96574 -7 4.125 C-7.88688 4.4782 -8.77375 4.83141 -9.6875 5.19531 C-12 6 -12 6 -14 6 C-14 5.01 -14 4.02 -14 3 C-9.03007 0.56575 -5.65395 -0.34616 0 0 Z " fill="#EBF4E6" transform="translate(181,15)"/>
    <path d="M0 0 C0.33 0 0.66 0 1 0 C0.50769 6.4 0.50769 6.4 -2.0625 9.4375 C-3.02156 10.21094 -3.02156 10.21094 -4 11 C-5 8 -5 8 -4.25 5.375 C-3 3 -3 3 0 2 C0 1.34 0 0.68 0 0 Z " fill="#31353A" transform="translate(295,347)"/>
    <path d="M0 0 C0.66 0.33 1.32 0.66 2 1 C1.6875 4.375 1.6875 4.375 1 8 C0.01 8.66 -0.98 9.32 -2 10 C-3.0625 8.1875 -3.0625 8.1875 -4 6 C-3.67 5.01 -3.34 4.02 -3 3 C-2.34 3 -1.68 3 -1 3 C-0.67 2.01 -0.34 1.02 0 0 Z " fill="#313838" transform="translate(215,280)"/>
    <path d="M0 0 C1.99098 2.98647 2.94125 5.59687 4 9 C3.01 9.33 2.02 9.66 1 10 C-3 5.25 -3 5.25 -3 3 C-1.5 1.375 -1.5 1.375 0 0 Z " fill="#303338" transform="translate(413,251)"/>
    <path d="M0 0 C1.36125 0.12375 1.36125 0.12375 2.75 0.25 C2.09 1.9 1.43 3.55 0.75 5.25 C-1.89 4.92 -4.53 4.59 -7.25 4.25 C-4.83923 1.2829 -3.90322 0.30025 0 0 Z " fill="#1C2025" transform="translate(196.25,167.75)"/>
    <path d="M0 0 C6.15782 -0.19549 12.13488 -0.12087 18 2 C18.33 2.66 18.66 3.32 19 4 C12.56025 3.3768 6.32428 2.35992 0 1 C0 0.67 0 0.34 0 0 Z " fill="#EBF0E1" transform="translate(211,519)"/>
    <path d="M0 0 C11.52164 0.96355 11.52164 0.96355 17 2 C15 4 15 4 13.04688 4.04688 C8.48014 3.45662 4.32809 2.66465 0 1 C0 0.67 0 0.34 0 0 Z " fill="#EEF2E9" transform="translate(291,34)"/>
    <path d="M0 0 C11.52164 1.92711 11.52164 1.92711 17 4 C17 4.33 17 4.66 17 5 C15.37536 5.05395 13.75021 5.09277 12.125 5.125 C10.76762 5.1598 10.76762 5.1598 9.38281 5.19531 C7 5 7 5 5 3 C2.42939 2.35232 2.42939 2.35232 0 2 C0 1.34 0 0.68 0 0 Z " fill="#89A97A" transform="translate(324,8)"/>
    <path d="M0 0 C4.24822 0.47202 6.1999 2.96656 9 6 C5.52177 7.15941 3.54104 6.70821 0 6 C0.18563 5.38125 0.37125 4.7625 0.5625 4.125 C1.23686 1.9584 1.23686 1.9584 0 0 Z " fill="#33383B" transform="translate(269,379)"/>
    <path d="M0 0 C1.32 0.66 2.64 1.32 4 2 C1.74745 5.37882 1.65078 5.26984 -2 6 C-3.67442 6.64694 -5.34303 7.30959 -7 8 C-6.02134 6.85374 -5.04205 5.708 -4.0625 4.5625 C-3.51723 3.92441 -2.97195 3.28633 -2.41016 2.62891 C-1.63204 1.73009 -0.84063 0.84063 0 0 Z " fill="#34383B" transform="translate(313,249)"/>
    <path d="M0 0 C-0.33 0.66 -0.66 1.32 -1 2 C-2.95804 2.05389 -4.91649 2.09274 -6.875 2.125 C-7.96555 2.1482 -9.05609 2.17141 -10.17969 2.19531 C-13 2 -13 2 -15 0 C-9.96267 -1.5112 -5.11829 -0.646 0 0 Z " fill="#2D3235" transform="translate(380,151)"/>
    <path d="M0 0 C0 0.66 0 1.32 0 2 C-5.0089 1.38487 -10.00632 0.72824 -15 0 C-15 -0.33 -15 -0.66 -15 -1 C-10.09244 -2.38025 -4.62941 -2.31471 0 0 Z " fill="#E3EDDB" transform="translate(315,4)"/>
    <path d="M0 0 C1.98 0 3.96 0 6 0 C5 3 5 3 2 5 C0.80767 7.05004 0.80767 7.05004 0 9 C0 7.68 0 6.36 0 5 C-0.66 5 -1.32 5 -2 5 C-1.34 3.35 -0.68 1.7 0 0 Z " fill="#323639" transform="translate(269,365)"/>
    <path d="M0 0 C0.66 0 1.32 0 2 0 C3.0011 3.31071 3.10356 6.30085 3.0625 9.75 C3.05348 10.73484 3.04445 11.71969 3.03516 12.73438 C3.02355 13.48203 3.01195 14.22969 3 15 C0.73045 11.59568 0.6345 9.83476 0.375 5.8125 C0.30023 4.72582 0.22547 3.63914 0.14844 2.51953 C0.09945 1.68809 0.05047 0.85664 0 0 Z " fill="#F4F7F0" transform="translate(0,307)"/>
    <path d="M0 0 C4.29 0.33 8.58 0.66 13 1 C13 1.66 13 2.32 13 3 C11.58344 3.02724 10.16673 3.0465 8.75 3.0625 C7.56664 3.0799 7.56664 3.0799 6.35938 3.09766 C4.09309 3.00385 2.17111 2.63241 0 2 C0 1.34 0 0.68 0 0 Z " fill="#F7FBF1" transform="translate(292,0)"/>
    <path d="M0 0 C1.84791 3.31016 2.74541 6.57173 3.625 10.25 C3.88539 11.32766 4.14578 12.40531 4.41406 13.51562 C4.60742 14.33547 4.80078 15.15531 5 16 C3.04688 14.91797 3.04688 14.91797 1 13 C0.39062 9.86328 0.39062 9.86328 0.25 6.3125 C0.19328 5.13301 0.13656 3.95352 0.07812 2.73828 C0.03945 1.38283 0.03945 1.38283 0 0 Z " fill="#E1EADB" transform="translate(10,353)"/>
    <path d="M0 0 C0 0.66 0 1.32 0 2 C-2.59241 3.85977 -5.14411 5.57205 -8 7 C-7.125 2.25 -7.125 2.25 -6 0 C-3 -1 -3 -1 0 0 Z " fill="#1D2023" transform="translate(317,268)"/>
    <path d="M0 0 C0.33 0 0.66 0 1 0 C1 1.98 1 3.96 1 6 C0.34 6 -0.32 6 -1 6 C-1 6.66 -1 7.32 -1 8 C-2.32 8.33 -3.64 8.66 -5 9 C-5 8.01 -5 7.02 -5 6 C-4.34 6 -3.68 6 -3 6 C-3 5.01 -3 4.02 -3 3 C-2.34 3 -1.68 3 -1 3 C-0.67 2.01 -0.34 1.02 0 0 Z " fill="#202327" transform="translate(387,262)"/>
    <path d="M0 0 C0.33 0.99 0.66 1.98 1 3 C-0.21484 4.82422 -0.21484 4.82422 -1.9375 6.6875 C-2.5034 7.31012 -3.0693 7.93273 -3.65234 8.57422 C-4.09707 9.04473 -4.5418 9.51523 -5 10 C-5.61328 8.16797 -5.61328 8.16797 -6 6 C-4.21482 3.35301 -2.87979 1.43989 0 0 Z " fill="#22262A" transform="translate(124,243)"/>
    <path d="M0 0 C0.33 0 0.66 0 1 0 C1 1.98 1 3.96 1 6 C-4.28 6 -9.56 6 -15 6 C-15 5.67 -15 5.34 -15 5 C-14.25234 4.93941 -13.50469 4.87883 -12.73438 4.81641 C-11.74953 4.73262 -10.76469 4.64883 -9.75 4.5625 C-8.77547 4.48129 -7.80094 4.40008 -6.79688 4.31641 C-4.43538 4.04925 -2.28099 3.64628 0 3 C0 2.01 0 1.02 0 0 Z " fill="#88AF73" transform="translate(321,156)"/>
    <path d="M0 0 C2.0625 0.4375 2.0625 0.4375 4 1 C4 1.99 4 2.98 4 4 C3.01 4.66 2.02 5.32 1 6 C-0.19233 8.05004 -0.19233 8.05004 -1 10 C-1.02689 8.52093 -1.04635 7.04173 -1.0625 5.5625 C-1.0741 4.73879 -1.0857 3.91508 -1.09766 3.06641 C-1 1 -1 1 0 0 Z " fill="#171C20" transform="translate(291,345)"/>
    <path d="M0 0 C0 0.66 0 1.32 0 2 C-0.99 2.33 -1.98 2.66 -3 3 C-3.68062 3.80437 -3.68062 3.80437 -4.375 4.625 C-4.91125 5.07875 -5.4475 5.5325 -6 6 C-8.6875 5.6875 -8.6875 5.6875 -11 5 C-7.7271 2.33319 -4.35127 0 0 0 Z " fill="#313538" transform="translate(206,244)"/>
    <path d="M0 0 C2.34312 0.25561 4.67843 0.59271 7 1 C7.33 1.66 7.66 2.32 8 3 C4.7 3.33 1.4 3.66 -2 4 C-1.34 2.68 -0.68 1.36 0 0 Z " fill="#1B2122" transform="translate(161,151)"/>
    <path d="M0 0 C2.02055 1.6417 4.02043 3.30912 6 5 C6 5.33 6 5.66 6 6 C4.02 6 2.04 6 0 6 C-0.38219 4.34385 -0.71395 2.67543 -1 1 C-0.67 0.67 -0.34 0.34 0 0 Z " fill="#1F2527" transform="translate(411,341)"/>
    <path d="M0 0 C0.33 0 0.66 0 1 0 C1 4.62 1 9.24 1 14 C0.01 14.33 -0.98 14.66 -2 15 C-1.47462 9.96979 -0.89405 4.98115 0 0 Z " fill="#81AD6D" transform="translate(495,323)"/>
    <path d="M0 0 C3.16116 1.36984 3.99271 1.98906 6 5 C4.35 5.33 2.7 5.66 1 6 C0.34 4.35 -0.32 2.7 -1 1 C-0.67 0.67 -0.34 0.34 0 0 Z " fill="#1B2023" transform="translate(402,333)"/>
    <path d="M0 0 C-1.5625 1.5625 -1.5625 1.5625 -4 3 C-7.75 2.6875 -7.75 2.6875 -11 2 C-7.00042 -0.06875 -4.43559 -1.37656 0 0 Z " fill="#87AB77" transform="translate(204,10)"/>
    <path d="M0 0 C0.66 0 1.32 0 2 0 C2.18562 0.95906 2.18562 0.95906 2.375 1.9375 C2.58125 2.61813 2.7875 3.29875 3 4 C3.66 4.33 4.32 4.66 5 5 C5 5.99 5 6.98 5 8 C4.01 8.33 3.02 8.66 2 9 C0.14223 5.86502 -0.2014 3.62529 0 0 Z " fill="#373B3E" transform="translate(235,347)"/>
    <path d="M0 0 C0.33 1.32 0.66 2.64 1 4 C0.34 4 -0.32 4 -1 4 C-1.33 4.99 -1.66 5.98 -2 7 C-2.33 6.34 -2.66 5.68 -3 5 C-3.99 4.67 -4.98 4.34 -6 4 C-6 3.34 -6 2.68 -6 2 C-4.02 1.34 -2.04 0.68 0 0 Z " fill="#383E41" transform="translate(358,322)"/>
    <path d="M0 0 C0.66 0.33 1.32 0.66 2 1 C-0.97 4.96 -0.97 4.96 -4 9 C-4.66 8.67 -5.32 8.34 -6 8 C-5.1875 6.0625 -5.1875 6.0625 -4 4 C-3.01 3.67 -2.02 3.34 -1 3 C-0.67 2.01 -0.34 1.02 0 0 Z " fill="#323638" transform="translate(426,227)"/>
    <path d="M0 0 C0 0.66 0 1.32 0 2 C-8.26196 6.59226 -8.26196 6.59226 -13 6 C-9.40464 2.9799 -4.81375 0 0 0 Z " fill="#E3EDE0" transform="translate(182,49)"/>
    <path d="M0 0 C0.66 0.66 1.32 1.32 2 2 C1.01 2.33 0.02 2.66 -1 3 C-1.6837 4.32468 -2.34964 5.65864 -3 7 C-3.99 7.66 -4.98 8.32 -6 9 C-6 6 -6 6 -4.6875 4.39453 C-4.13063 3.87246 -3.57375 3.35039 -3 2.8125 C-2.44313 2.2827 -1.88625 1.75289 -1.3125 1.20703 C-0.66281 0.60955 -0.66281 0.60955 0 0 Z " fill="#F0F6F0" transform="translate(456,472)"/>
    <path d="M0 0 C0.66 0.33 1.32 0.66 2 1 C-0.31 3.97 -2.62 6.94 -5 10 C-5.33 9.01 -5.66 8.02 -6 7 C-4.78516 5.17578 -4.78516 5.17578 -3.0625 3.3125 C-2.4966 2.68988 -1.9307 2.06727 -1.34766 1.42578 C-0.90293 0.95527 -0.4582 0.48477 0 0 Z " fill="#EDF3E8" transform="translate(446,433)"/>
    <path d="M0 0 C0.66 0 1.32 0 2 0 C1.34 3.96 0.68 7.92 0 12 C-0.33 12 -0.66 12 -1 12 C-1.02687 10.18758 -1.04634 8.37505 -1.0625 6.5625 C-1.0741 5.55316 -1.0857 4.54383 -1.09766 3.50391 C-1 1 -1 1 0 0 Z " fill="#1D2022" transform="translate(371,284)"/>
    <path d="M0 0 C1.65 0 3.3 0 5 0 C4.67 1.65 4.34 3.3 4 5 C3.01 5 2.02 5 1 5 C0.505 2.525 0.505 2.525 0 0 Z " fill="#202426" transform="translate(320,276)"/>
    <path d="M0 0 C0.66 0.33 1.32 0.66 2 1 C1.67 2.65 1.34 4.3 1 6 C0.34 6 -0.32 6 -1 6 C-1 7.98 -1 9.96 -1 12 C-1.33 12 -1.66 12 -2 12 C-2.05395 10.37536 -2.09277 8.75021 -2.125 7.125 C-2.1482 6.22008 -2.17141 5.31516 -2.19531 4.38281 C-2 2 -2 2 0 0 Z " fill="#3B4044" transform="translate(225,274)"/>
    <path d="M0 0 C2 1 2 1 2 1 Z M-2 1 C-1.01 1.33 -0.02 1.66 1 2 C1 3.98 1 5.96 1 8 C-0.32 7.34 -1.64 6.68 -3 6 C-3 3 -3 3 -2 1 Z " fill="#171B1D" transform="translate(370,241)"/>
    <path d="M0 0 C1.65 0 3.3 0 5 0 C4.34 1.98 3.68 3.96 3 6 C2.01 5.67 1.02 5.34 0 5 C0 3.35 0 1.7 0 0 Z " fill="#212529" transform="translate(130,235)"/>
    <path d="M0 0 C1.125 1.75 1.125 1.75 2 4 C1.125 6.25 1.125 6.25 0 8 C-0.99 7.34 -1.98 6.68 -3 6 C-2.67 4.68 -2.34 3.36 -2 2 C-1.34 2 -0.68 2 0 2 C0 1.34 0 0.68 0 0 Z " fill="#171C20" transform="translate(385,210)"/>
    <path d="M0 0 C1.32 0.33 2.64 0.66 4 1 C4 1.66 4 2.32 4 3 C3.01 3.495 3.01 3.495 2 4 C2.33 4.66 2.66 5.32 3 6 C1.35 6 -0.3 6 -2 6 C-1.49396 3.83126 -1.00016 2.00032 0 0 Z " fill="#739E5E" transform="translate(240,178)"/>
    <path d="M0 0 C0.66 0.33 1.32 0.66 2 1 C1.04455 2.46022 0.08553 3.91811 -0.875 5.375 C-1.40867 6.18711 -1.94234 6.99922 -2.49219 7.83594 C-4 10 -4 10 -6 12 C-5.59792 6.37083 -3.7107 3.99614 0 0 Z " fill="#E7EEE3" transform="translate(218,135)"/>
    <path d="M0 0 C3.96 0 7.92 0 12 0 C12 0.66 12 1.32 12 2 C8.7 2.33 5.4 2.66 2 3 C2 2.34 2 1.68 2 1 C1.34 0.67 0.68 0.34 0 0 Z " fill="#FAFDF6" transform="translate(313,3)"/>
    <path d="M0 0 C0.66 0.33 1.32 0.66 2 1 C0.02 4.3 -1.96 7.6 -4 11 C-5 7 -5 7 -4.00391 5.07812 C-3.52824 4.47484 -3.05258 3.87156 -2.5625 3.25 C-2.08941 2.63641 -1.61633 2.02281 -1.12891 1.39062 C-0.75637 0.93172 -0.38383 0.47281 0 0 Z " fill="#E9F0E2" transform="translate(461,411)"/>
    <path d="M0 0 C1.32 0.33 2.64 0.66 4 1 C3.67 2.65 3.34 4.3 3 6 C2.01 6.33 1.02 6.66 0 7 C0 4.69 0 2.38 0 0 Z " fill="#1E2126" transform="translate(426,220)"/>
    <path d="M0 0 C0.66 0.66 1.32 1.32 2 2 C1.01 2.99 0.02 3.98 -1 5 C-1.99 4.67 -2.98 4.34 -4 4 C-2.68 2.68 -1.36 1.36 0 0 Z M-5 5 C-4.67 5.99 -4.34 6.98 -4 8 C-5.32 8.33 -6.64 8.66 -8 9 C-7.01 7.68 -6.02 6.36 -5 5 Z " fill="#81A76E" transform="translate(226,129)"/>
    <path d="M0 0 C2.97 0 5.94 0 9 0 C9 0.99 9 1.98 9 3 C5.7 2.67 2.4 2.34 -1 2 C-0.67 1.34 -0.34 0.68 0 0 Z " fill="#8AAC77" transform="translate(235,2)"/>
    <path d="M0 0 C3.3 0.33 6.6 0.66 10 1 C10 1.66 10 2.32 10 3 C5.82412 4.39196 3.86525 2.82323 0 1 C0 0.67 0 0.34 0 0 Z " fill="#F5F7F2" transform="translate(198,549)"/>
    <path d="M0 0 C-1.293 2.88438 -2.65941 4.87219 -5 7 C-5.99 6.67 -6.98 6.34 -8 6 C-7.04793 4.99404 -6.08813 3.99538 -5.125 3 C-4.59133 2.44313 -4.05766 1.88625 -3.50781 1.3125 C-2 0 -2 0 0 0 Z " fill="#EBF0EA" transform="translate(439,490)"/>
    <path d="M0 0 C0.99 0.33 1.98 0.66 3 1 C-1.455 3.97 -1.455 3.97 -6 7 C-6 6.01 -6 5.02 -6 4 C-3.1875 1.75 -3.1875 1.75 0 0 Z " fill="#EAF1E4" transform="translate(394,483)"/>
    <path d="M0 0 C0.66 0 1.32 0 2 0 C2.7308 1.97747 3.39422 3.98072 4 6 C3.67 6.66 3.34 7.32 3 8 C2.01 8 1.02 8 0 8 C0 5.36 0 2.72 0 0 Z " fill="#1E2126" transform="translate(218,307)"/>
    <path d="M0 0 C2.79872 2.52788 4.45773 4.20411 5 8 C4.34 8 3.68 8 3 8 C2.67 6.68 2.34 5.36 2 4 C1.01 4.33 0.02 4.66 -1 5 C-0.67 3.35 -0.34 1.7 0 0 Z " fill="#242829" transform="translate(371,280)"/>
    <path d="M0 0 C0.66 0.99 1.32 1.98 2 3 C1.125 5.6875 1.125 5.6875 0 8 C-0.33 7.34 -0.66 6.68 -1 6 C-1.66 5.67 -2.32 5.34 -3 5 C-2.67 4.01 -2.34 3.02 -2 2 C-1.34 2 -0.68 2 0 2 C0 1.34 0 0.68 0 0 Z " fill="#404647" transform="translate(422,274)"/>
    <path d="M0 0 C0.99 0.33 1.98 0.66 3 1 C2.67 2.32 2.34 3.64 2 5 C0.35 5 -1.3 5 -3 5 C-1.125 1.125 -1.125 1.125 0 0 Z " fill="#1C2023" transform="translate(176,262)"/>
    <path d="M0 0 C1.32 0.66 2.64 1.32 4 2 C2.75 3.5625 2.75 3.5625 1 5 C-1.1875 4.6875 -1.1875 4.6875 -3 4 C-3 3.34 -3 2.68 -3 2 C-2.01 1.34 -1.02 0.68 0 0 Z " fill="#313537" transform="translate(328,245)"/>
    <path d="M0 0 C4.75 0.75 4.75 0.75 7 3 C6.34 4.32 5.68 5.64 5 7 C4.67 5.68 4.34 4.36 4 3 C2.68 3 1.36 3 0 3 C0 2.01 0 1.02 0 0 Z " fill="#192022" transform="translate(302,240)"/>
    <path d="M0 0 C-0.66 1.32 -1.32 2.64 -2 4 C-3.32 3.01 -4.64 2.02 -6 1 C-3 0 -3 0 0 0 Z M-5 4 C-4.34 4 -3.68 4 -3 4 C-3 4.66 -3 5.32 -3 6 C-3.99 6.33 -4.98 6.66 -6 7 C-5.67 6.01 -5.34 5.02 -5 4 Z " fill="#404347" transform="translate(350,401)"/>
    <path d="M0 0 C0.33 0.99 0.66 1.98 1 3 C-0.375 4.5 -0.375 4.5 -2 6 C-2.66 6 -3.32 6 -4 6 C-4.33 6.66 -4.66 7.32 -5 8 C-5 7.34 -5 6.68 -5 6 C-5.66 5.67 -6.32 5.34 -7 5 C-6.21625 4.54625 -5.4325 4.0925 -4.625 3.625 C-1.96302 2.11571 -1.96302 2.11571 0 0 Z " fill="#44494B" transform="translate(296,379)"/>
    <path d="M0 0 C0.66 0 1.32 0 2 0 C2 2.31 2 4.62 2 7 C1.67 6.34 1.34 5.68 1 5 C0.34 5 -0.32 5 -1 5 C-1.33 5.66 -1.66 6.32 -2 7 C-1.125 2.25 -1.125 2.25 0 0 Z " fill="#212327" transform="translate(427,294)"/>
    <path d="M0 0 C-0.66 1.65 -1.32 3.3 -2 5 C-2.99 5 -3.98 5 -5 5 C-5.66 4.34 -6.32 3.68 -7 3 C-2.25 0 -2.25 0 0 0 Z " fill="#31383B" transform="translate(359,155)"/>
    <path d="M0 0 C-2.85478 1.90319 -4.41941 2.46191 -7.6875 3.125 C-8.49574 3.29258 -9.30398 3.46016 -10.13672 3.63281 C-10.7516 3.75398 -11.36648 3.87516 -12 4 C-8.21693 0.21693 -5.30339 -0.24106 0 0 Z " fill="#F5F7F3" transform="translate(351,544)"/>
    <path d="M0 0 C3.83736 0.95934 4.5966 1.23609 7 4 C6.67 4.99 6.34 5.98 6 7 C4.02 4.69 2.04 2.38 0 0 Z " fill="#EDF2E4" transform="translate(99,452)"/>
    <path d="M0 0 C1.9375 0.3125 1.9375 0.3125 4 1 C4.33 1.99 4.66 2.98 5 4 C2.69 3.67 0.38 3.34 -2 3 C-1.34 2.67 -0.68 2.34 0 2 C0 1.34 0 0.68 0 0 Z " fill="#2C3235" transform="translate(350,325)"/>
    <path d="M0 0 C0.66 0 1.32 0 2 0 C2.66 2.97 3.32 5.94 4 9 C0.06154 5.67692 0.06154 5.67692 -0.25 2.25 C-0.1675 1.5075 -0.085 0.765 0 0 Z " fill="#3E4343" transform="translate(314,281)"/>
    <path d="M0 0 C-1.62366 3.24733 -4.75388 3.70155 -8 5 C-8.66 4.34 -9.32 3.68 -10 3 C-3.375 0 -3.375 0 0 0 Z " fill="#3D4045" transform="translate(205,164)"/>
    <path d="M0 0 C0.99 0 1.98 0 3 0 C3 0.66 3 1.32 3 2 C3.66 2.33 4.32 2.66 5 3 C5 4.98 5 6.96 5 9 C2.67528 6.14693 1.24917 3.45925 0 0 Z " fill="#E6EFDE" transform="translate(498,147)"/>
    <path d="M0 0 C2.9375 0.8125 2.9375 0.8125 6 2 C6.33 2.99 6.66 3.98 7 5 C1.25 3.25 1.25 3.25 -1 1 C-0.67 0.67 -0.34 0.34 0 0 Z " fill="#E6ECDE" transform="translate(290,119)"/>
    <path d="M0 0 C-2.38573 1.89213 -4.07175 3.02392 -7 4 C-6.6875 2.0625 -6.6875 2.0625 -6 0 C-3 -1 -3 -1 0 0 Z " fill="#85AF70" transform="translate(386,526)"/>
    <path d="M0 0 C3.35596 0.59928 5.37801 1.84622 8 4 C7.67 4.66 7.34 5.32 7 6 C5.83054 5.19152 4.6645 4.37811 3.5 3.5625 C2.85031 3.11004 2.20063 2.65758 1.53125 2.19141 C1.02594 1.79824 0.52062 1.40508 0 1 C0 0.67 0 0.34 0 0 Z " fill="#EFF3E7" transform="translate(132,481)"/>
    <path d="M0 0 C4 4.625 4 4.625 4 8 C2 6.8125 2 6.8125 0 5 C-0.25 2.3125 -0.25 2.3125 0 0 Z " fill="#E8EFE4" transform="translate(46,435)"/>
    <path d="M0 0 C0.99 0.99 1.98 1.98 3 3 C2.34 3.66 1.68 4.32 1 5 C0.01 5 -0.98 5 -2 5 C-2.33 3.68 -2.66 2.36 -3 1 C-2.01 0.67 -1.02 0.34 0 0 Z " fill="#242A2D" transform="translate(294,387)"/>
    <path d="M0 0 C0.66 0 1.32 0 2 0 C3.85777 3.13498 4.2014 5.37471 4 9 C1.49702 6.06171 0.53069 3.82097 0 0 Z " fill="#EBF0E6" transform="translate(49,371)"/>
    <path d="M0 0 C0.99 0.33 1.98 0.66 3 1 C3.6875 3.0625 3.6875 3.0625 4 5 C1.69 4.34 -0.62 3.68 -3 3 C-2.01 2.67 -1.02 2.34 0 2 C0 1.34 0 0.68 0 0 Z " fill="#393D40" transform="translate(259,365)"/>
    <path d="M0 0 C0.33 0 0.66 0 1 0 C1.33 2.64 1.66 5.28 2 8 C1.01 8 0.02 8 -1 8 C-1.125 2.25 -1.125 2.25 0 0 Z " fill="#1C2125" transform="translate(153,307)"/>
    <path d="M0 0 C0.33 0 0.66 0 1 0 C1.25 2.3125 1.25 2.3125 1 5 C-1 6.8125 -1 6.8125 -3 8 C-2.45276 4.62537 -1.9451 2.91765 0 0 Z " fill="#1E2224" transform="translate(424,292)"/>
    <path d="M0 0 C0.66 0 1.32 0 2 0 C2 0.66 2 1.32 2 2 C2.66 2.33 3.32 2.66 4 3 C2.625 4.5 2.625 4.5 1 6 C0.34 6 -0.32 6 -1 6 C-0.67 4.02 -0.34 2.04 0 0 Z " fill="#3E4143" transform="translate(299,268)"/>
    <path d="M0 0 C0.66 0 1.32 0 2 0 C2.33 2.31 2.66 4.62 3 7 C2.34 7 1.68 7 1 7 C0.34 5.02 -0.32 3.04 -1 1 C-0.67 0.67 -0.34 0.34 0 0 Z " fill="#1A1D21" transform="translate(303,261)"/>
    <path d="M0 0 C0.99 0.66 1.98 1.32 3 2 C1.68 3.32 0.36 4.64 -1 6 C-1.66 5.67 -2.32 5.34 -3 5 C-1.125 1.125 -1.125 1.125 0 0 Z " fill="#84AA6F" transform="translate(103,59)"/>
    <path d="M0 0 C1.98 0 3.96 0 6 0 C6 0.33 6 0.66 6 1 C4.02 1 2.04 1 0 1 C0 0.67 0 0.34 0 0 Z " fill="#FEFFFA" transform="translate(505,103)"/>
    <path d="M0 0 C1.32 0.33 2.64 0.66 4 1 C3.01 1.33 2.02 1.66 1 2 C0.67 1.34 0.34 0.68 0 0 Z " fill="#FCFDF9" transform="translate(83,28)"/>
    <path d="M0 0 C0.99 0.495 0.99 0.495 2 1 C1.67 1.66 1.34 2.32 1 3 C0.67 2.01 0.34 1.02 0 0 Z " fill="#FCFEFA" transform="translate(454,29)"/>
    <path d="M0 0 C0.99 0.495 0.99 0.495 2 1 C1.01 1.495 1.01 1.495 0 2 C0 1.34 0 0.68 0 0 Z " fill="#FDFEFA" transform="translate(408,3)"/>
    <path d="" fill="#FEF8FD" transform="translate(0,0)"/>
    <path d="" fill="#FFF8FF" transform="translate(0,0)"/>
    <path d="" fill="#FCFFFB" transform="translate(0,0)"/>
    <path d="" fill="#FEFFFB" transform="translate(0,0)"/>
    <path d="" fill="#FCFEFA" transform="translate(0,0)"/>
    <path d="" fill="#FCFEFA" transform="translate(0,0)"/>
    <path d="" fill="#FCFDF9" transform="translate(0,0)"/>
    <path d="" fill="#FAFAF9" transform="translate(0,0)"/>
    <path d="" fill="#FDFFFB" transform="translate(0,0)"/>
    <path d="" fill="#FFF9FE" transform="translate(0,0)"/>
    <path d="" fill="#FFF9FF" transform="translate(0,0)"/>
    <path d="" fill="#FFF9FF" transform="translate(0,0)"/>
    <path d="" fill="#FFF9FF" transform="translate(0,0)"/>
    <path d="" fill="#FFF9FF" transform="translate(0,0)"/>
    <path d="" fill="#FFF8FE" transform="translate(0,0)"/>
    <path d="" fill="#FFF9FF" transform="translate(0,0)"/>
    <path d="" fill="#FBFFFB" transform="translate(0,0)"/>
    <path d="" fill="#FCFFFB" transform="translate(0,0)"/>
    <path d="" fill="#FFF9FE" transform="translate(0,0)"/>
    <path d="" fill="#FDFFFB" transform="translate(0,0)"/>
    <path d="" fill="#FEF8FE" transform="translate(0,0)"/>
    <path d="" fill="#FCFFFB" transform="translate(0,0)"/>
    <path d="" fill="#FDFFFB" transform="translate(0,0)"/>
    <path d="" fill="#FDFFFB" transform="translate(0,0)"/>
    <path d="" fill="#FFF9FF" transform="translate(0,0)"/>
    <path d="" fill="#FFF9FF" transform="translate(0,0)"/>
    <path d="" fill="#FCFFFB" transform="translate(0,0)"/>
    <path d="" fill="#FFF9FE" transform="translate(0,0)"/>
    <path d="" fill="#FEFFFB" transform="translate(0,0)"/>
    <path d="" fill="#FCFBF9" transform="translate(0,0)"/>
    <path d="" fill="#FDFFFB" transform="translate(0,0)"/>
    <path d="" fill="#FDFFFB" transform="translate(0,0)"/>
    <path d="" fill="#FCFCF9" transform="translate(0,0)"/>
    <path d="" fill="#FDFFFB" transform="translate(0,0)"/>
    <path d="" fill="#FFFFFB" transform="translate(0,0)"/>
    <path d="" fill="#FFF9FE" transform="translate(0,0)"/>
    <path d="" fill="#FCFEFA" transform="translate(0,0)"/>
    <path d="" fill="#FDFFFB" transform="translate(0,0)"/>
    <path d="" fill="#FDFEFA" transform="translate(0,0)"/>
    <path d="" fill="#FDFFFB" transform="translate(0,0)"/>
    <path d="" fill="#FDFFFB" transform="translate(0,0)"/>
    <path d="" fill="#FDFFFB" transform="translate(0,0)"/>
    <path d="" fill="#FDFEFA" transform="translate(0,0)"/>
    <path d="" fill="#FDFFFB" transform="translate(0,0)"/>
    <path d="" fill="#FDFFFB" transform="translate(0,0)"/>
    <path d="" fill="#FCFEFA" transform="translate(0,0)"/>
  </svg>
  <text class="logo-title" style="font-size: 100px; white-space: pre;" x="569.399" y="210.727">China Starter Guide</text>
  <text class="logo-tagline" style="font-size: 60px; white-space: pre;" x="586.034" y="323.607">A Practical Guide for First-Time</text>
  <text class="logo-tagline" style="font-size: 60px; white-space: pre;" x="587.008" y="407.949">Visitors to China.</text>
</svg>